<?xml version="1.0" encoding="utf-8" standalone="no"?>
<!DOCTYPE svg PUBLIC "-//W3C//DTD SVG 1.1//EN"
  "http://www.w3.org/Graphics/SVG/1.1/DTD/svg11.dtd">
<svg xmlns:xlink="http://www.w3.org/1999/xlink" width="624.993763pt" height="388.91625pt" viewBox="0 0 624.993763 388.91625" xmlns="http://www.w3.org/2000/svg" version="1.1">
 <metadata>
  <rdf:RDF xmlns:dc="http://purl.org/dc/elements/1.1/" xmlns:cc="http://creativecommons.org/ns#" xmlns:rdf="http://www.w3.org/1999/02/22-rdf-syntax-ns#">
   <cc:Work>
    <dc:type rdf:resource="http://purl.org/dc/dcmitype/StillImage"/>
    <dc:date>2023-04-15T07:35:56.215207</dc:date>
    <dc:format>image/svg+xml</dc:format>
    <dc:creator>
     <cc:Agent>
      <dc:title>Matplotlib v3.7.1, https://matplotlib.org/</dc:title>
     </cc:Agent>
    </dc:creator>
   </cc:Work>
  </rdf:RDF>
 </metadata>
 <defs>
  <style type="text/css">*{stroke-linejoin: round; stroke-linecap: butt}</style>
 </defs>
 <g id="figure_1">
  <g id="patch_1">
   <path d="M 0 388.91625 
L 624.993763 388.91625 
L 624.993763 0 
L 0 0 
z
" style="fill: #ffffff"/>
  </g>
  <g id="axes_1">
   <g id="patch_2">
    <path d="M 40.603125 365.038125 
L 598.603125 365.038125 
L 598.603125 22.318125 
L 40.603125 22.318125 
z
" style="fill: #ffffff"/>
   </g>
   <g id="matplotlib.axis_1">
    <g id="xtick_1">
     <g id="line2d_1">
      <defs>
       <path id="mf8c0b144b3" d="M 0 0 
L 0 3.5 
" style="stroke: #000000; stroke-width: 0.8"/>
      </defs>
      <g>
       <use xlink:href="#mf8c0b144b3" x="57.093186" y="365.038125" style="stroke: #000000; stroke-width: 0.8"/>
      </g>
     </g>
     <g id="text_1">
      <!-- 2022-05 -->
      <g transform="translate(36.20178 379.636562) scale(0.1 -0.1)">
       <defs>
        <path id="DejaVuSans-32" d="M 1228 531 
L 3431 531 
L 3431 0 
L 469 0 
L 469 531 
Q 828 903 1448 1529 
Q 2069 2156 2228 2338 
Q 2531 2678 2651 2914 
Q 2772 3150 2772 3378 
Q 2772 3750 2511 3984 
Q 2250 4219 1831 4219 
Q 1534 4219 1204 4116 
Q 875 4013 500 3803 
L 500 4441 
Q 881 4594 1212 4672 
Q 1544 4750 1819 4750 
Q 2544 4750 2975 4387 
Q 3406 4025 3406 3419 
Q 3406 3131 3298 2873 
Q 3191 2616 2906 2266 
Q 2828 2175 2409 1742 
Q 1991 1309 1228 531 
z
" transform="scale(0.015625)"/>
        <path id="DejaVuSans-30" d="M 2034 4250 
Q 1547 4250 1301 3770 
Q 1056 3291 1056 2328 
Q 1056 1369 1301 889 
Q 1547 409 2034 409 
Q 2525 409 2770 889 
Q 3016 1369 3016 2328 
Q 3016 3291 2770 3770 
Q 2525 4250 2034 4250 
z
M 2034 4750 
Q 2819 4750 3233 4129 
Q 3647 3509 3647 2328 
Q 3647 1150 3233 529 
Q 2819 -91 2034 -91 
Q 1250 -91 836 529 
Q 422 1150 422 2328 
Q 422 3509 836 4129 
Q 1250 4750 2034 4750 
z
" transform="scale(0.015625)"/>
        <path id="DejaVuSans-2d" d="M 313 2009 
L 1997 2009 
L 1997 1497 
L 313 1497 
L 313 2009 
z
" transform="scale(0.015625)"/>
        <path id="DejaVuSans-35" d="M 691 4666 
L 3169 4666 
L 3169 4134 
L 1269 4134 
L 1269 2991 
Q 1406 3038 1543 3061 
Q 1681 3084 1819 3084 
Q 2600 3084 3056 2656 
Q 3513 2228 3513 1497 
Q 3513 744 3044 326 
Q 2575 -91 1722 -91 
Q 1428 -91 1123 -41 
Q 819 9 494 109 
L 494 744 
Q 775 591 1075 516 
Q 1375 441 1709 441 
Q 2250 441 2565 725 
Q 2881 1009 2881 1497 
Q 2881 1984 2565 2268 
Q 2250 2553 1709 2553 
Q 1456 2553 1204 2497 
Q 953 2441 691 2322 
L 691 4666 
z
" transform="scale(0.015625)"/>
       </defs>
       <use xlink:href="#DejaVuSans-32"/>
       <use xlink:href="#DejaVuSans-30" x="63.623047"/>
       <use xlink:href="#DejaVuSans-32" x="127.246094"/>
       <use xlink:href="#DejaVuSans-32" x="190.869141"/>
       <use xlink:href="#DejaVuSans-2d" x="254.492188"/>
       <use xlink:href="#DejaVuSans-30" x="290.576172"/>
       <use xlink:href="#DejaVuSans-35" x="354.199219"/>
      </g>
     </g>
    </g>
    <g id="xtick_2">
     <g id="line2d_2">
      <g>
       <use xlink:href="#mf8c0b144b3" x="147.307869" y="365.038125" style="stroke: #000000; stroke-width: 0.8"/>
      </g>
     </g>
     <g id="text_2">
      <!-- 2022-07 -->
      <g transform="translate(126.416463 379.636562) scale(0.1 -0.1)">
       <defs>
        <path id="DejaVuSans-37" d="M 525 4666 
L 3525 4666 
L 3525 4397 
L 1831 0 
L 1172 0 
L 2766 4134 
L 525 4134 
L 525 4666 
z
" transform="scale(0.015625)"/>
       </defs>
       <use xlink:href="#DejaVuSans-32"/>
       <use xlink:href="#DejaVuSans-30" x="63.623047"/>
       <use xlink:href="#DejaVuSans-32" x="127.246094"/>
       <use xlink:href="#DejaVuSans-32" x="190.869141"/>
       <use xlink:href="#DejaVuSans-2d" x="254.492188"/>
       <use xlink:href="#DejaVuSans-30" x="290.576172"/>
       <use xlink:href="#DejaVuSans-37" x="354.199219"/>
      </g>
     </g>
    </g>
    <g id="xtick_3">
     <g id="line2d_3">
      <g>
       <use xlink:href="#mf8c0b144b3" x="239.001482" y="365.038125" style="stroke: #000000; stroke-width: 0.8"/>
      </g>
     </g>
     <g id="text_3">
      <!-- 2022-09 -->
      <g transform="translate(218.110075 379.636562) scale(0.1 -0.1)">
       <defs>
        <path id="DejaVuSans-39" d="M 703 97 
L 703 672 
Q 941 559 1184 500 
Q 1428 441 1663 441 
Q 2288 441 2617 861 
Q 2947 1281 2994 2138 
Q 2813 1869 2534 1725 
Q 2256 1581 1919 1581 
Q 1219 1581 811 2004 
Q 403 2428 403 3163 
Q 403 3881 828 4315 
Q 1253 4750 1959 4750 
Q 2769 4750 3195 4129 
Q 3622 3509 3622 2328 
Q 3622 1225 3098 567 
Q 2575 -91 1691 -91 
Q 1453 -91 1209 -44 
Q 966 3 703 97 
z
M 1959 2075 
Q 2384 2075 2632 2365 
Q 2881 2656 2881 3163 
Q 2881 3666 2632 3958 
Q 2384 4250 1959 4250 
Q 1534 4250 1286 3958 
Q 1038 3666 1038 3163 
Q 1038 2656 1286 2365 
Q 1534 2075 1959 2075 
z
" transform="scale(0.015625)"/>
       </defs>
       <use xlink:href="#DejaVuSans-32"/>
       <use xlink:href="#DejaVuSans-30" x="63.623047"/>
       <use xlink:href="#DejaVuSans-32" x="127.246094"/>
       <use xlink:href="#DejaVuSans-32" x="190.869141"/>
       <use xlink:href="#DejaVuSans-2d" x="254.492188"/>
       <use xlink:href="#DejaVuSans-30" x="290.576172"/>
       <use xlink:href="#DejaVuSans-39" x="354.199219"/>
      </g>
     </g>
    </g>
    <g id="xtick_4">
     <g id="line2d_4">
      <g>
       <use xlink:href="#mf8c0b144b3" x="329.216165" y="365.038125" style="stroke: #000000; stroke-width: 0.8"/>
      </g>
     </g>
     <g id="text_4">
      <!-- 2022-11 -->
      <g transform="translate(308.324759 379.636562) scale(0.1 -0.1)">
       <defs>
        <path id="DejaVuSans-31" d="M 794 531 
L 1825 531 
L 1825 4091 
L 703 3866 
L 703 4441 
L 1819 4666 
L 2450 4666 
L 2450 531 
L 3481 531 
L 3481 0 
L 794 0 
L 794 531 
z
" transform="scale(0.015625)"/>
       </defs>
       <use xlink:href="#DejaVuSans-32"/>
       <use xlink:href="#DejaVuSans-30" x="63.623047"/>
       <use xlink:href="#DejaVuSans-32" x="127.246094"/>
       <use xlink:href="#DejaVuSans-32" x="190.869141"/>
       <use xlink:href="#DejaVuSans-2d" x="254.492188"/>
       <use xlink:href="#DejaVuSans-31" x="290.576172"/>
       <use xlink:href="#DejaVuSans-31" x="354.199219"/>
      </g>
     </g>
    </g>
    <g id="xtick_5">
     <g id="line2d_5">
      <g>
       <use xlink:href="#mf8c0b144b3" x="419.430848" y="365.038125" style="stroke: #000000; stroke-width: 0.8"/>
      </g>
     </g>
     <g id="text_5">
      <!-- 2023-01 -->
      <g transform="translate(398.539442 379.636562) scale(0.1 -0.1)">
       <defs>
        <path id="DejaVuSans-33" d="M 2597 2516 
Q 3050 2419 3304 2112 
Q 3559 1806 3559 1356 
Q 3559 666 3084 287 
Q 2609 -91 1734 -91 
Q 1441 -91 1130 -33 
Q 819 25 488 141 
L 488 750 
Q 750 597 1062 519 
Q 1375 441 1716 441 
Q 2309 441 2620 675 
Q 2931 909 2931 1356 
Q 2931 1769 2642 2001 
Q 2353 2234 1838 2234 
L 1294 2234 
L 1294 2753 
L 1863 2753 
Q 2328 2753 2575 2939 
Q 2822 3125 2822 3475 
Q 2822 3834 2567 4026 
Q 2313 4219 1838 4219 
Q 1578 4219 1281 4162 
Q 984 4106 628 3988 
L 628 4550 
Q 988 4650 1302 4700 
Q 1616 4750 1894 4750 
Q 2613 4750 3031 4423 
Q 3450 4097 3450 3541 
Q 3450 3153 3228 2886 
Q 3006 2619 2597 2516 
z
" transform="scale(0.015625)"/>
       </defs>
       <use xlink:href="#DejaVuSans-32"/>
       <use xlink:href="#DejaVuSans-30" x="63.623047"/>
       <use xlink:href="#DejaVuSans-32" x="127.246094"/>
       <use xlink:href="#DejaVuSans-33" x="190.869141"/>
       <use xlink:href="#DejaVuSans-2d" x="254.492188"/>
       <use xlink:href="#DejaVuSans-30" x="290.576172"/>
       <use xlink:href="#DejaVuSans-31" x="354.199219"/>
      </g>
     </g>
    </g>
    <g id="xtick_6">
     <g id="line2d_6">
      <g>
       <use xlink:href="#mf8c0b144b3" x="506.687673" y="365.038125" style="stroke: #000000; stroke-width: 0.8"/>
      </g>
     </g>
     <g id="text_6">
      <!-- 2023-03 -->
      <g transform="translate(485.796267 379.636562) scale(0.1 -0.1)">
       <use xlink:href="#DejaVuSans-32"/>
       <use xlink:href="#DejaVuSans-30" x="63.623047"/>
       <use xlink:href="#DejaVuSans-32" x="127.246094"/>
       <use xlink:href="#DejaVuSans-33" x="190.869141"/>
       <use xlink:href="#DejaVuSans-2d" x="254.492188"/>
       <use xlink:href="#DejaVuSans-30" x="290.576172"/>
       <use xlink:href="#DejaVuSans-33" x="354.199219"/>
      </g>
     </g>
    </g>
    <g id="xtick_7">
     <g id="line2d_7">
      <g>
       <use xlink:href="#mf8c0b144b3" x="596.902356" y="365.038125" style="stroke: #000000; stroke-width: 0.8"/>
      </g>
     </g>
     <g id="text_7">
      <!-- 2023-05 -->
      <g transform="translate(576.01095 379.636562) scale(0.1 -0.1)">
       <use xlink:href="#DejaVuSans-32"/>
       <use xlink:href="#DejaVuSans-30" x="63.623047"/>
       <use xlink:href="#DejaVuSans-32" x="127.246094"/>
       <use xlink:href="#DejaVuSans-33" x="190.869141"/>
       <use xlink:href="#DejaVuSans-2d" x="254.492188"/>
       <use xlink:href="#DejaVuSans-30" x="290.576172"/>
       <use xlink:href="#DejaVuSans-35" x="354.199219"/>
      </g>
     </g>
    </g>
    <g id="xtick_8">
     <g id="line2d_8">
      <defs>
       <path id="m055d69a924" d="M 0 0 
L 0 2 
" style="stroke: #000000; stroke-width: 0.6"/>
      </defs>
      <g>
       <use xlink:href="#m055d69a924" x="102.939992" y="365.038125" style="stroke: #000000; stroke-width: 0.6"/>
      </g>
     </g>
    </g>
    <g id="xtick_9">
     <g id="line2d_9">
      <g>
       <use xlink:href="#m055d69a924" x="193.154675" y="365.038125" style="stroke: #000000; stroke-width: 0.6"/>
      </g>
     </g>
    </g>
    <g id="xtick_10">
     <g id="line2d_10">
      <g>
       <use xlink:href="#m055d69a924" x="283.369359" y="365.038125" style="stroke: #000000; stroke-width: 0.6"/>
      </g>
     </g>
    </g>
    <g id="xtick_11">
     <g id="line2d_11">
      <g>
       <use xlink:href="#m055d69a924" x="373.584042" y="365.038125" style="stroke: #000000; stroke-width: 0.6"/>
      </g>
     </g>
    </g>
    <g id="xtick_12">
     <g id="line2d_12">
      <g>
       <use xlink:href="#m055d69a924" x="465.277655" y="365.038125" style="stroke: #000000; stroke-width: 0.6"/>
      </g>
     </g>
    </g>
    <g id="xtick_13">
     <g id="line2d_13">
      <g>
       <use xlink:href="#m055d69a924" x="552.534479" y="365.038125" style="stroke: #000000; stroke-width: 0.6"/>
      </g>
     </g>
    </g>
   </g>
   <g id="matplotlib.axis_2">
    <g id="ytick_1">
     <g id="line2d_14">
      <defs>
       <path id="m10c1140476" d="M 0 0 
L -3.5 0 
" style="stroke: #000000; stroke-width: 0.8"/>
      </defs>
      <g>
       <use xlink:href="#m10c1140476" x="40.603125" y="365.038125" style="stroke: #000000; stroke-width: 0.8"/>
      </g>
     </g>
     <g id="text_8">
      <!-- 0 -->
      <g transform="translate(27.240625 368.837344) scale(0.1 -0.1)">
       <use xlink:href="#DejaVuSans-30"/>
      </g>
     </g>
    </g>
    <g id="ytick_2">
     <g id="line2d_15">
      <g>
       <use xlink:href="#m10c1140476" x="40.603125" y="293.03283" style="stroke: #000000; stroke-width: 0.8"/>
      </g>
     </g>
     <g id="text_9">
      <!-- 5 -->
      <g transform="translate(27.240625 296.832049) scale(0.1 -0.1)">
       <use xlink:href="#DejaVuSans-35"/>
      </g>
     </g>
    </g>
    <g id="ytick_3">
     <g id="line2d_16">
      <g>
       <use xlink:href="#m10c1140476" x="40.603125" y="221.027536" style="stroke: #000000; stroke-width: 0.8"/>
      </g>
     </g>
     <g id="text_10">
      <!-- 10 -->
      <g transform="translate(20.878125 224.826755) scale(0.1 -0.1)">
       <use xlink:href="#DejaVuSans-31"/>
       <use xlink:href="#DejaVuSans-30" x="63.623047"/>
      </g>
     </g>
    </g>
    <g id="ytick_4">
     <g id="line2d_17">
      <g>
       <use xlink:href="#m10c1140476" x="40.603125" y="149.022241" style="stroke: #000000; stroke-width: 0.8"/>
      </g>
     </g>
     <g id="text_11">
      <!-- 15 -->
      <g transform="translate(20.878125 152.82146) scale(0.1 -0.1)">
       <use xlink:href="#DejaVuSans-31"/>
       <use xlink:href="#DejaVuSans-35" x="63.623047"/>
      </g>
     </g>
    </g>
    <g id="ytick_5">
     <g id="line2d_18">
      <g>
       <use xlink:href="#m10c1140476" x="40.603125" y="77.016947" style="stroke: #000000; stroke-width: 0.8"/>
      </g>
     </g>
     <g id="text_12">
      <!-- 20 -->
      <g transform="translate(20.878125 80.816166) scale(0.1 -0.1)">
       <use xlink:href="#DejaVuSans-32"/>
       <use xlink:href="#DejaVuSans-30" x="63.623047"/>
      </g>
     </g>
    </g>
    <g id="text_13">
     <!-- Daily Solar Generation and Energy Use (kWh) -->
     <g transform="translate(14.798437 307.6625) rotate(-90) scale(0.1 -0.1)">
      <defs>
       <path id="DejaVuSans-44" d="M 1259 4147 
L 1259 519 
L 2022 519 
Q 2988 519 3436 956 
Q 3884 1394 3884 2338 
Q 3884 3275 3436 3711 
Q 2988 4147 2022 4147 
L 1259 4147 
z
M 628 4666 
L 1925 4666 
Q 3281 4666 3915 4102 
Q 4550 3538 4550 2338 
Q 4550 1131 3912 565 
Q 3275 0 1925 0 
L 628 0 
L 628 4666 
z
" transform="scale(0.015625)"/>
       <path id="DejaVuSans-61" d="M 2194 1759 
Q 1497 1759 1228 1600 
Q 959 1441 959 1056 
Q 959 750 1161 570 
Q 1363 391 1709 391 
Q 2188 391 2477 730 
Q 2766 1069 2766 1631 
L 2766 1759 
L 2194 1759 
z
M 3341 1997 
L 3341 0 
L 2766 0 
L 2766 531 
Q 2569 213 2275 61 
Q 1981 -91 1556 -91 
Q 1019 -91 701 211 
Q 384 513 384 1019 
Q 384 1609 779 1909 
Q 1175 2209 1959 2209 
L 2766 2209 
L 2766 2266 
Q 2766 2663 2505 2880 
Q 2244 3097 1772 3097 
Q 1472 3097 1187 3025 
Q 903 2953 641 2809 
L 641 3341 
Q 956 3463 1253 3523 
Q 1550 3584 1831 3584 
Q 2591 3584 2966 3190 
Q 3341 2797 3341 1997 
z
" transform="scale(0.015625)"/>
       <path id="DejaVuSans-69" d="M 603 3500 
L 1178 3500 
L 1178 0 
L 603 0 
L 603 3500 
z
M 603 4863 
L 1178 4863 
L 1178 4134 
L 603 4134 
L 603 4863 
z
" transform="scale(0.015625)"/>
       <path id="DejaVuSans-6c" d="M 603 4863 
L 1178 4863 
L 1178 0 
L 603 0 
L 603 4863 
z
" transform="scale(0.015625)"/>
       <path id="DejaVuSans-79" d="M 2059 -325 
Q 1816 -950 1584 -1140 
Q 1353 -1331 966 -1331 
L 506 -1331 
L 506 -850 
L 844 -850 
Q 1081 -850 1212 -737 
Q 1344 -625 1503 -206 
L 1606 56 
L 191 3500 
L 800 3500 
L 1894 763 
L 2988 3500 
L 3597 3500 
L 2059 -325 
z
" transform="scale(0.015625)"/>
       <path id="DejaVuSans-20" transform="scale(0.015625)"/>
       <path id="DejaVuSans-53" d="M 3425 4513 
L 3425 3897 
Q 3066 4069 2747 4153 
Q 2428 4238 2131 4238 
Q 1616 4238 1336 4038 
Q 1056 3838 1056 3469 
Q 1056 3159 1242 3001 
Q 1428 2844 1947 2747 
L 2328 2669 
Q 3034 2534 3370 2195 
Q 3706 1856 3706 1288 
Q 3706 609 3251 259 
Q 2797 -91 1919 -91 
Q 1588 -91 1214 -16 
Q 841 59 441 206 
L 441 856 
Q 825 641 1194 531 
Q 1563 422 1919 422 
Q 2459 422 2753 634 
Q 3047 847 3047 1241 
Q 3047 1584 2836 1778 
Q 2625 1972 2144 2069 
L 1759 2144 
Q 1053 2284 737 2584 
Q 422 2884 422 3419 
Q 422 4038 858 4394 
Q 1294 4750 2059 4750 
Q 2388 4750 2728 4690 
Q 3069 4631 3425 4513 
z
" transform="scale(0.015625)"/>
       <path id="DejaVuSans-6f" d="M 1959 3097 
Q 1497 3097 1228 2736 
Q 959 2375 959 1747 
Q 959 1119 1226 758 
Q 1494 397 1959 397 
Q 2419 397 2687 759 
Q 2956 1122 2956 1747 
Q 2956 2369 2687 2733 
Q 2419 3097 1959 3097 
z
M 1959 3584 
Q 2709 3584 3137 3096 
Q 3566 2609 3566 1747 
Q 3566 888 3137 398 
Q 2709 -91 1959 -91 
Q 1206 -91 779 398 
Q 353 888 353 1747 
Q 353 2609 779 3096 
Q 1206 3584 1959 3584 
z
" transform="scale(0.015625)"/>
       <path id="DejaVuSans-72" d="M 2631 2963 
Q 2534 3019 2420 3045 
Q 2306 3072 2169 3072 
Q 1681 3072 1420 2755 
Q 1159 2438 1159 1844 
L 1159 0 
L 581 0 
L 581 3500 
L 1159 3500 
L 1159 2956 
Q 1341 3275 1631 3429 
Q 1922 3584 2338 3584 
Q 2397 3584 2469 3576 
Q 2541 3569 2628 3553 
L 2631 2963 
z
" transform="scale(0.015625)"/>
       <path id="DejaVuSans-47" d="M 3809 666 
L 3809 1919 
L 2778 1919 
L 2778 2438 
L 4434 2438 
L 4434 434 
Q 4069 175 3628 42 
Q 3188 -91 2688 -91 
Q 1594 -91 976 548 
Q 359 1188 359 2328 
Q 359 3472 976 4111 
Q 1594 4750 2688 4750 
Q 3144 4750 3555 4637 
Q 3966 4525 4313 4306 
L 4313 3634 
Q 3963 3931 3569 4081 
Q 3175 4231 2741 4231 
Q 1884 4231 1454 3753 
Q 1025 3275 1025 2328 
Q 1025 1384 1454 906 
Q 1884 428 2741 428 
Q 3075 428 3337 486 
Q 3600 544 3809 666 
z
" transform="scale(0.015625)"/>
       <path id="DejaVuSans-65" d="M 3597 1894 
L 3597 1613 
L 953 1613 
Q 991 1019 1311 708 
Q 1631 397 2203 397 
Q 2534 397 2845 478 
Q 3156 559 3463 722 
L 3463 178 
Q 3153 47 2828 -22 
Q 2503 -91 2169 -91 
Q 1331 -91 842 396 
Q 353 884 353 1716 
Q 353 2575 817 3079 
Q 1281 3584 2069 3584 
Q 2775 3584 3186 3129 
Q 3597 2675 3597 1894 
z
M 3022 2063 
Q 3016 2534 2758 2815 
Q 2500 3097 2075 3097 
Q 1594 3097 1305 2825 
Q 1016 2553 972 2059 
L 3022 2063 
z
" transform="scale(0.015625)"/>
       <path id="DejaVuSans-6e" d="M 3513 2113 
L 3513 0 
L 2938 0 
L 2938 2094 
Q 2938 2591 2744 2837 
Q 2550 3084 2163 3084 
Q 1697 3084 1428 2787 
Q 1159 2491 1159 1978 
L 1159 0 
L 581 0 
L 581 3500 
L 1159 3500 
L 1159 2956 
Q 1366 3272 1645 3428 
Q 1925 3584 2291 3584 
Q 2894 3584 3203 3211 
Q 3513 2838 3513 2113 
z
" transform="scale(0.015625)"/>
       <path id="DejaVuSans-74" d="M 1172 4494 
L 1172 3500 
L 2356 3500 
L 2356 3053 
L 1172 3053 
L 1172 1153 
Q 1172 725 1289 603 
Q 1406 481 1766 481 
L 2356 481 
L 2356 0 
L 1766 0 
Q 1100 0 847 248 
Q 594 497 594 1153 
L 594 3053 
L 172 3053 
L 172 3500 
L 594 3500 
L 594 4494 
L 1172 4494 
z
" transform="scale(0.015625)"/>
       <path id="DejaVuSans-64" d="M 2906 2969 
L 2906 4863 
L 3481 4863 
L 3481 0 
L 2906 0 
L 2906 525 
Q 2725 213 2448 61 
Q 2172 -91 1784 -91 
Q 1150 -91 751 415 
Q 353 922 353 1747 
Q 353 2572 751 3078 
Q 1150 3584 1784 3584 
Q 2172 3584 2448 3432 
Q 2725 3281 2906 2969 
z
M 947 1747 
Q 947 1113 1208 752 
Q 1469 391 1925 391 
Q 2381 391 2643 752 
Q 2906 1113 2906 1747 
Q 2906 2381 2643 2742 
Q 2381 3103 1925 3103 
Q 1469 3103 1208 2742 
Q 947 2381 947 1747 
z
" transform="scale(0.015625)"/>
       <path id="DejaVuSans-45" d="M 628 4666 
L 3578 4666 
L 3578 4134 
L 1259 4134 
L 1259 2753 
L 3481 2753 
L 3481 2222 
L 1259 2222 
L 1259 531 
L 3634 531 
L 3634 0 
L 628 0 
L 628 4666 
z
" transform="scale(0.015625)"/>
       <path id="DejaVuSans-67" d="M 2906 1791 
Q 2906 2416 2648 2759 
Q 2391 3103 1925 3103 
Q 1463 3103 1205 2759 
Q 947 2416 947 1791 
Q 947 1169 1205 825 
Q 1463 481 1925 481 
Q 2391 481 2648 825 
Q 2906 1169 2906 1791 
z
M 3481 434 
Q 3481 -459 3084 -895 
Q 2688 -1331 1869 -1331 
Q 1566 -1331 1297 -1286 
Q 1028 -1241 775 -1147 
L 775 -588 
Q 1028 -725 1275 -790 
Q 1522 -856 1778 -856 
Q 2344 -856 2625 -561 
Q 2906 -266 2906 331 
L 2906 616 
Q 2728 306 2450 153 
Q 2172 0 1784 0 
Q 1141 0 747 490 
Q 353 981 353 1791 
Q 353 2603 747 3093 
Q 1141 3584 1784 3584 
Q 2172 3584 2450 3431 
Q 2728 3278 2906 2969 
L 2906 3500 
L 3481 3500 
L 3481 434 
z
" transform="scale(0.015625)"/>
       <path id="DejaVuSans-55" d="M 556 4666 
L 1191 4666 
L 1191 1831 
Q 1191 1081 1462 751 
Q 1734 422 2344 422 
Q 2950 422 3222 751 
Q 3494 1081 3494 1831 
L 3494 4666 
L 4128 4666 
L 4128 1753 
Q 4128 841 3676 375 
Q 3225 -91 2344 -91 
Q 1459 -91 1007 375 
Q 556 841 556 1753 
L 556 4666 
z
" transform="scale(0.015625)"/>
       <path id="DejaVuSans-73" d="M 2834 3397 
L 2834 2853 
Q 2591 2978 2328 3040 
Q 2066 3103 1784 3103 
Q 1356 3103 1142 2972 
Q 928 2841 928 2578 
Q 928 2378 1081 2264 
Q 1234 2150 1697 2047 
L 1894 2003 
Q 2506 1872 2764 1633 
Q 3022 1394 3022 966 
Q 3022 478 2636 193 
Q 2250 -91 1575 -91 
Q 1294 -91 989 -36 
Q 684 19 347 128 
L 347 722 
Q 666 556 975 473 
Q 1284 391 1588 391 
Q 1994 391 2212 530 
Q 2431 669 2431 922 
Q 2431 1156 2273 1281 
Q 2116 1406 1581 1522 
L 1381 1569 
Q 847 1681 609 1914 
Q 372 2147 372 2553 
Q 372 3047 722 3315 
Q 1072 3584 1716 3584 
Q 2034 3584 2315 3537 
Q 2597 3491 2834 3397 
z
" transform="scale(0.015625)"/>
       <path id="DejaVuSans-28" d="M 1984 4856 
Q 1566 4138 1362 3434 
Q 1159 2731 1159 2009 
Q 1159 1288 1364 580 
Q 1569 -128 1984 -844 
L 1484 -844 
Q 1016 -109 783 600 
Q 550 1309 550 2009 
Q 550 2706 781 3412 
Q 1013 4119 1484 4856 
L 1984 4856 
z
" transform="scale(0.015625)"/>
       <path id="DejaVuSans-6b" d="M 581 4863 
L 1159 4863 
L 1159 1991 
L 2875 3500 
L 3609 3500 
L 1753 1863 
L 3688 0 
L 2938 0 
L 1159 1709 
L 1159 0 
L 581 0 
L 581 4863 
z
" transform="scale(0.015625)"/>
       <path id="DejaVuSans-57" d="M 213 4666 
L 850 4666 
L 1831 722 
L 2809 4666 
L 3519 4666 
L 4500 722 
L 5478 4666 
L 6119 4666 
L 4947 0 
L 4153 0 
L 3169 4050 
L 2175 0 
L 1381 0 
L 213 4666 
z
" transform="scale(0.015625)"/>
       <path id="DejaVuSans-68" d="M 3513 2113 
L 3513 0 
L 2938 0 
L 2938 2094 
Q 2938 2591 2744 2837 
Q 2550 3084 2163 3084 
Q 1697 3084 1428 2787 
Q 1159 2491 1159 1978 
L 1159 0 
L 581 0 
L 581 4863 
L 1159 4863 
L 1159 2956 
Q 1366 3272 1645 3428 
Q 1925 3584 2291 3584 
Q 2894 3584 3203 3211 
Q 3513 2838 3513 2113 
z
" transform="scale(0.015625)"/>
       <path id="DejaVuSans-29" d="M 513 4856 
L 1013 4856 
Q 1481 4119 1714 3412 
Q 1947 2706 1947 2009 
Q 1947 1309 1714 600 
Q 1481 -109 1013 -844 
L 513 -844 
Q 928 -128 1133 580 
Q 1338 1288 1338 2009 
Q 1338 2731 1133 3434 
Q 928 4138 513 4856 
z
" transform="scale(0.015625)"/>
      </defs>
      <use xlink:href="#DejaVuSans-44"/>
      <use xlink:href="#DejaVuSans-61" x="77.001953"/>
      <use xlink:href="#DejaVuSans-69" x="138.28125"/>
      <use xlink:href="#DejaVuSans-6c" x="166.064453"/>
      <use xlink:href="#DejaVuSans-79" x="193.847656"/>
      <use xlink:href="#DejaVuSans-20" x="253.027344"/>
      <use xlink:href="#DejaVuSans-53" x="284.814453"/>
      <use xlink:href="#DejaVuSans-6f" x="348.291016"/>
      <use xlink:href="#DejaVuSans-6c" x="409.472656"/>
      <use xlink:href="#DejaVuSans-61" x="437.255859"/>
      <use xlink:href="#DejaVuSans-72" x="498.535156"/>
      <use xlink:href="#DejaVuSans-20" x="539.648438"/>
      <use xlink:href="#DejaVuSans-47" x="571.435547"/>
      <use xlink:href="#DejaVuSans-65" x="648.925781"/>
      <use xlink:href="#DejaVuSans-6e" x="710.449219"/>
      <use xlink:href="#DejaVuSans-65" x="773.828125"/>
      <use xlink:href="#DejaVuSans-72" x="835.351562"/>
      <use xlink:href="#DejaVuSans-61" x="876.464844"/>
      <use xlink:href="#DejaVuSans-74" x="937.744141"/>
      <use xlink:href="#DejaVuSans-69" x="976.953125"/>
      <use xlink:href="#DejaVuSans-6f" x="1004.736328"/>
      <use xlink:href="#DejaVuSans-6e" x="1065.917969"/>
      <use xlink:href="#DejaVuSans-20" x="1129.296875"/>
      <use xlink:href="#DejaVuSans-61" x="1161.083984"/>
      <use xlink:href="#DejaVuSans-6e" x="1222.363281"/>
      <use xlink:href="#DejaVuSans-64" x="1285.742188"/>
      <use xlink:href="#DejaVuSans-20" x="1349.21875"/>
      <use xlink:href="#DejaVuSans-45" x="1381.005859"/>
      <use xlink:href="#DejaVuSans-6e" x="1444.189453"/>
      <use xlink:href="#DejaVuSans-65" x="1507.568359"/>
      <use xlink:href="#DejaVuSans-72" x="1569.091797"/>
      <use xlink:href="#DejaVuSans-67" x="1608.455078"/>
      <use xlink:href="#DejaVuSans-79" x="1671.931641"/>
      <use xlink:href="#DejaVuSans-20" x="1731.111328"/>
      <use xlink:href="#DejaVuSans-55" x="1762.898438"/>
      <use xlink:href="#DejaVuSans-73" x="1836.091797"/>
      <use xlink:href="#DejaVuSans-65" x="1888.191406"/>
      <use xlink:href="#DejaVuSans-20" x="1949.714844"/>
      <use xlink:href="#DejaVuSans-28" x="1981.501953"/>
      <use xlink:href="#DejaVuSans-6b" x="2020.515625"/>
      <use xlink:href="#DejaVuSans-57" x="2078.425781"/>
      <use xlink:href="#DejaVuSans-68" x="2177.302734"/>
      <use xlink:href="#DejaVuSans-29" x="2240.681641"/>
     </g>
    </g>
   </g>
   <g id="PolyCollection_1">
    <path d="M 65.966761 254.236378 
L 65.966761 365.038125 
L 76.319266 365.038125 
L 86.671771 365.038125 
L 97.024275 365.038125 
L 107.37678 365.038125 
L 117.729285 365.038125 
L 128.081789 365.038125 
L 138.434294 365.038125 
L 148.786798 365.038125 
L 159.139303 365.038125 
L 169.491808 365.038125 
L 179.844312 365.038125 
L 190.196817 365.038125 
L 200.549322 365.038125 
L 210.901826 365.038125 
L 221.254331 365.038125 
L 231.606836 365.038125 
L 241.95934 365.038125 
L 252.311845 365.038125 
L 262.664349 365.038125 
L 273.016854 365.038125 
L 283.369359 365.038125 
L 293.721863 365.038125 
L 304.074368 365.038125 
L 314.426873 365.038125 
L 324.779377 365.038125 
L 335.131882 365.038125 
L 344.005457 365.038125 
L 355.836891 365.038125 
L 366.189396 365.038125 
L 376.541901 365.038125 
L 386.894405 365.038125 
L 397.24691 365.038125 
L 407.599414 365.038125 
L 417.951919 365.038125 
L 428.304424 365.038125 
L 438.656928 365.038125 
L 449.009433 365.038125 
L 459.361938 365.038125 
L 469.714442 365.038125 
L 480.066947 365.038125 
L 490.419452 365.038125 
L 500.771956 365.038125 
L 511.124461 365.038125 
L 521.476965 365.038125 
L 531.82947 365.038125 
L 542.181975 365.038125 
L 552.534479 365.038125 
L 562.886984 365.038125 
L 573.239489 365.038125 
L 573.239489 318.078329 
L 573.239489 318.078329 
L 562.886984 314.963586 
L 552.534479 314.774315 
L 542.181975 292.582283 
L 531.82947 244.464231 
L 521.476965 291.730563 
L 511.124461 266.637747 
L 500.771956 243.089958 
L 490.419452 258.202841 
L 480.066947 275.284554 
L 469.714442 251.164838 
L 459.361938 265.012484 
L 449.009433 268.441994 
L 438.656928 269.254625 
L 428.304424 269.394521 
L 417.951919 269.645511 
L 407.599414 273.591401 
L 397.24691 268.00379 
L 386.894405 254.473995 
L 376.541901 250.096073 
L 366.189396 259.809588 
L 355.836891 281.084066 
L 344.005457 254.209633 
L 335.131882 243.890246 
L 324.779377 264.940479 
L 314.426873 257.106303 
L 304.074368 238.066046 
L 293.721863 253.578044 
L 283.369359 253.86195 
L 273.016854 256.949949 
L 262.664349 257.231798 
L 252.311845 248.029521 
L 241.95934 252.683121 
L 231.606836 240.695268 
L 221.254331 249.284471 
L 210.901826 249.899602 
L 200.549322 253.384658 
L 190.196817 251.576297 
L 179.844312 253.580101 
L 169.491808 241.752717 
L 159.139303 229.682572 
L 148.786798 249.983951 
L 138.434294 253.388773 
L 128.081789 244.098032 
L 117.729285 253.152184 
L 107.37678 253.180986 
L 97.024275 254.139685 
L 86.671771 255.39052 
L 76.319266 260.344484 
L 65.966761 254.236378 
z
" clip-path="url(#p123a92672b)" style="fill: #1f77b4"/>
   </g>
   <g id="PolyCollection_2">
    <path d="M 65.966761 254.236378 
L 65.966761 254.236378 
L 76.319266 260.344484 
L 86.671771 255.39052 
L 97.024275 254.139685 
L 107.37678 253.180986 
L 117.729285 253.152184 
L 128.081789 244.098032 
L 138.434294 253.388773 
L 148.786798 249.983951 
L 159.139303 229.682572 
L 169.491808 241.752717 
L 179.844312 253.580101 
L 190.196817 251.576297 
L 200.549322 253.384658 
L 210.901826 249.899602 
L 221.254331 249.284471 
L 231.606836 240.695268 
L 241.95934 252.683121 
L 252.311845 248.029521 
L 262.664349 257.231798 
L 273.016854 256.949949 
L 283.369359 253.86195 
L 293.721863 253.578044 
L 304.074368 238.066046 
L 314.426873 257.106303 
L 324.779377 264.940479 
L 335.131882 243.890246 
L 344.005457 254.209633 
L 355.836891 281.084066 
L 366.189396 259.809588 
L 376.541901 250.096073 
L 386.894405 254.473995 
L 397.24691 268.00379 
L 407.599414 273.591401 
L 417.951919 269.645511 
L 428.304424 269.394521 
L 438.656928 269.254625 
L 449.009433 268.441994 
L 459.361938 265.012484 
L 469.714442 251.164838 
L 480.066947 275.284554 
L 490.419452 258.202841 
L 500.771956 243.089958 
L 511.124461 266.637747 
L 521.476965 291.730563 
L 531.82947 244.464231 
L 542.181975 292.582283 
L 552.534479 314.774315 
L 562.886984 314.963586 
L 573.239489 318.078329 
L 573.239489 291.837543 
L 573.239489 291.837543 
L 562.886984 287.597459 
L 552.534479 293.322909 
L 542.181975 292.582283 
L 531.82947 244.464231 
L 521.476965 291.730563 
L 511.124461 266.637747 
L 500.771956 243.089958 
L 490.419452 258.202841 
L 480.066947 275.284554 
L 469.714442 251.164838 
L 459.361938 265.012484 
L 449.009433 268.441994 
L 438.656928 269.254625 
L 428.304424 269.394521 
L 417.951919 269.645511 
L 407.599414 273.591401 
L 397.24691 268.00379 
L 386.894405 254.473995 
L 376.541901 250.096073 
L 366.189396 259.809588 
L 355.836891 281.084066 
L 344.005457 254.209633 
L 335.131882 243.890246 
L 324.779377 264.940479 
L 314.426873 257.106303 
L 304.074368 238.066046 
L 293.721863 253.578044 
L 283.369359 253.86195 
L 273.016854 256.949949 
L 262.664349 257.231798 
L 252.311845 248.029521 
L 241.95934 252.683121 
L 231.606836 240.695268 
L 221.254331 249.284471 
L 210.901826 249.899602 
L 200.549322 253.384658 
L 190.196817 251.576297 
L 179.844312 253.580101 
L 169.491808 241.752717 
L 159.139303 229.682572 
L 148.786798 249.983951 
L 138.434294 253.388773 
L 128.081789 244.098032 
L 117.729285 253.152184 
L 107.37678 253.180986 
L 97.024275 254.139685 
L 86.671771 255.39052 
L 76.319266 260.344484 
L 65.966761 254.236378 
z
" clip-path="url(#p123a92672b)" style="fill: #ff7f0e"/>
   </g>
   <g id="PolyCollection_3">
    <path d="M 65.966761 254.236378 
L 65.966761 254.236378 
L 76.319266 260.344484 
L 86.671771 255.39052 
L 97.024275 254.139685 
L 107.37678 253.180986 
L 117.729285 253.152184 
L 128.081789 244.098032 
L 138.434294 253.388773 
L 148.786798 249.983951 
L 159.139303 229.682572 
L 169.491808 241.752717 
L 179.844312 253.580101 
L 190.196817 251.576297 
L 200.549322 253.384658 
L 210.901826 249.899602 
L 221.254331 249.284471 
L 231.606836 240.695268 
L 241.95934 252.683121 
L 252.311845 248.029521 
L 262.664349 257.231798 
L 273.016854 256.949949 
L 283.369359 253.86195 
L 293.721863 253.578044 
L 304.074368 238.066046 
L 314.426873 257.106303 
L 324.779377 264.940479 
L 335.131882 243.890246 
L 344.005457 254.209633 
L 355.836891 281.084066 
L 366.189396 259.809588 
L 376.541901 250.096073 
L 386.894405 254.473995 
L 397.24691 268.00379 
L 407.599414 273.591401 
L 417.951919 269.645511 
L 428.304424 269.394521 
L 438.656928 269.254625 
L 449.009433 268.441994 
L 459.361938 265.012484 
L 469.714442 251.164838 
L 480.066947 275.284554 
L 490.419452 258.202841 
L 500.771956 243.089958 
L 511.124461 266.637747 
L 521.476965 291.730563 
L 531.82947 244.464231 
L 542.181975 292.582283 
L 552.534479 293.322909 
L 562.886984 287.597459 
L 573.239489 291.837543 
L 573.239489 276.393436 
L 573.239489 276.393436 
L 562.886984 274.99859 
L 552.534479 280.372242 
L 542.181975 275.504685 
L 531.82947 243.205167 
L 521.476965 291.730563 
L 511.124461 266.637747 
L 500.771956 243.089958 
L 490.419452 258.202841 
L 480.066947 275.284554 
L 469.714442 251.164838 
L 459.361938 265.012484 
L 449.009433 268.441994 
L 438.656928 269.254625 
L 428.304424 269.394521 
L 417.951919 269.645511 
L 407.599414 273.591401 
L 397.24691 268.00379 
L 386.894405 254.473995 
L 376.541901 250.096073 
L 366.189396 259.809588 
L 355.836891 281.084066 
L 344.005457 254.209633 
L 335.131882 243.890246 
L 324.779377 264.940479 
L 314.426873 257.106303 
L 304.074368 238.066046 
L 293.721863 253.578044 
L 283.369359 253.86195 
L 273.016854 256.949949 
L 262.664349 257.231798 
L 252.311845 248.029521 
L 241.95934 252.683121 
L 231.606836 240.695268 
L 221.254331 249.284471 
L 210.901826 249.899602 
L 200.549322 253.384658 
L 190.196817 251.576297 
L 179.844312 253.580101 
L 169.491808 241.752717 
L 159.139303 229.682572 
L 148.786798 249.983951 
L 138.434294 253.388773 
L 128.081789 244.098032 
L 117.729285 253.152184 
L 107.37678 253.180986 
L 97.024275 254.139685 
L 86.671771 255.39052 
L 76.319266 260.344484 
L 65.966761 254.236378 
z
" clip-path="url(#p123a92672b)" style="fill: #2ca02c"/>
   </g>
   <g id="PolyCollection_4">
    <path d="M 65.966761 254.236378 
L 65.966761 254.236378 
L 76.319266 260.344484 
L 86.671771 255.39052 
L 97.024275 254.139685 
L 107.37678 253.180986 
L 117.729285 253.152184 
L 128.081789 244.098032 
L 138.434294 253.388773 
L 148.786798 249.983951 
L 159.139303 229.682572 
L 169.491808 241.752717 
L 179.844312 253.580101 
L 190.196817 251.576297 
L 200.549322 253.384658 
L 210.901826 249.899602 
L 221.254331 249.284471 
L 231.606836 240.695268 
L 241.95934 252.683121 
L 252.311845 248.029521 
L 262.664349 257.231798 
L 273.016854 256.949949 
L 283.369359 253.86195 
L 293.721863 253.578044 
L 304.074368 238.066046 
L 314.426873 257.106303 
L 324.779377 264.940479 
L 335.131882 243.890246 
L 344.005457 254.209633 
L 355.836891 281.084066 
L 366.189396 259.809588 
L 376.541901 250.096073 
L 386.894405 254.473995 
L 397.24691 268.00379 
L 407.599414 273.591401 
L 417.951919 269.645511 
L 428.304424 269.394521 
L 438.656928 269.254625 
L 449.009433 268.441994 
L 459.361938 265.012484 
L 469.714442 251.164838 
L 480.066947 275.284554 
L 490.419452 258.202841 
L 500.771956 243.089958 
L 511.124461 266.637747 
L 521.476965 291.730563 
L 531.82947 243.205167 
L 542.181975 275.504685 
L 552.534479 280.372242 
L 562.886984 274.99859 
L 573.239489 276.393436 
L 573.239489 272.285019 
L 573.239489 272.285019 
L 562.886984 269.995251 
L 552.534479 274.235334 
L 542.181975 269.559104 
L 531.82947 242.376077 
L 521.476965 291.730563 
L 511.124461 266.637747 
L 500.771956 243.089958 
L 490.419452 258.202841 
L 480.066947 275.284554 
L 469.714442 251.164838 
L 459.361938 265.012484 
L 449.009433 268.441994 
L 438.656928 269.254625 
L 428.304424 269.394521 
L 417.951919 269.645511 
L 407.599414 273.591401 
L 397.24691 268.00379 
L 386.894405 254.473995 
L 376.541901 250.096073 
L 366.189396 259.809588 
L 355.836891 281.084066 
L 344.005457 254.209633 
L 335.131882 243.890246 
L 324.779377 264.940479 
L 314.426873 257.106303 
L 304.074368 238.066046 
L 293.721863 253.578044 
L 283.369359 253.86195 
L 273.016854 256.949949 
L 262.664349 257.231798 
L 252.311845 248.029521 
L 241.95934 252.683121 
L 231.606836 240.695268 
L 221.254331 249.284471 
L 210.901826 249.899602 
L 200.549322 253.384658 
L 190.196817 251.576297 
L 179.844312 253.580101 
L 169.491808 241.752717 
L 159.139303 229.682572 
L 148.786798 249.983951 
L 138.434294 253.388773 
L 128.081789 244.098032 
L 117.729285 253.152184 
L 107.37678 253.180986 
L 97.024275 254.139685 
L 86.671771 255.39052 
L 76.319266 260.344484 
L 65.966761 254.236378 
z
" clip-path="url(#p123a92672b)" style="fill: #d62728"/>
   </g>
   <g id="PolyCollection_5">
    <path d="M 65.966761 252.419787 
L 65.966761 254.236378 
L 76.319266 260.344484 
L 86.671771 255.39052 
L 97.024275 254.139685 
L 107.37678 253.180986 
L 117.729285 253.152184 
L 128.081789 244.098032 
L 138.434294 253.388773 
L 148.786798 249.983951 
L 159.139303 229.682572 
L 169.491808 241.752717 
L 179.844312 253.580101 
L 190.196817 251.576297 
L 200.549322 253.384658 
L 210.901826 249.899602 
L 221.254331 249.284471 
L 231.606836 240.695268 
L 241.95934 252.683121 
L 252.311845 248.029521 
L 262.664349 257.231798 
L 273.016854 256.949949 
L 283.369359 253.86195 
L 293.721863 253.578044 
L 304.074368 238.066046 
L 314.426873 257.106303 
L 324.779377 264.940479 
L 335.131882 243.890246 
L 344.005457 254.209633 
L 355.836891 281.084066 
L 366.189396 259.809588 
L 376.541901 250.096073 
L 386.894405 254.473995 
L 397.24691 268.00379 
L 407.599414 273.591401 
L 417.951919 269.645511 
L 428.304424 269.394521 
L 438.656928 269.254625 
L 449.009433 268.441994 
L 459.361938 265.012484 
L 469.714442 251.164838 
L 480.066947 275.284554 
L 490.419452 258.202841 
L 500.771956 243.089958 
L 511.124461 266.637747 
L 521.476965 291.730563 
L 531.82947 242.376077 
L 542.181975 269.559104 
L 552.534479 274.235334 
L 562.886984 269.995251 
L 573.239489 272.285019 
L 573.239489 272.285019 
L 573.239489 272.285019 
L 562.886984 250.61554 
L 552.534479 258.692477 
L 542.181975 263.103316 
L 531.82947 240.742586 
L 521.476965 291.730563 
L 511.124461 256.797709 
L 500.771956 234.539844 
L 490.419452 240.536856 
L 480.066947 259.346696 
L 469.714442 239.658392 
L 459.361938 260.406203 
L 449.009433 255.174504 
L 438.656928 261.06248 
L 428.304424 262.041752 
L 417.951919 258.213127 
L 407.599414 267.956472 
L 397.24691 257.865445 
L 386.894405 244.296304 
L 376.541901 248.495756 
L 366.189396 259.809588 
L 355.836891 278.078359 
L 344.005457 251.522807 
L 335.131882 242.890401 
L 324.779377 264.940479 
L 314.426873 257.106303 
L 304.074368 238.066046 
L 293.721863 253.578044 
L 283.369359 253.86195 
L 273.016854 256.949949 
L 262.664349 257.231798 
L 252.311845 248.029521 
L 241.95934 252.683121 
L 231.606836 240.695268 
L 221.254331 249.284471 
L 210.901826 249.899602 
L 200.549322 253.384658 
L 190.196817 251.576297 
L 179.844312 253.580101 
L 169.491808 241.752717 
L 159.139303 229.682572 
L 148.786798 249.983951 
L 138.434294 253.388773 
L 128.081789 244.098032 
L 117.729285 253.152184 
L 107.37678 253.180986 
L 97.024275 254.139685 
L 86.671771 254.390675 
L 76.319266 259.408415 
L 65.966761 252.419787 
z
" clip-path="url(#p123a92672b)" style="fill: #9467bd"/>
   </g>
   <g id="PolyCollection_6">
    <path d="M 65.966761 252.419787 
L 65.966761 252.419787 
L 76.319266 259.408415 
L 86.671771 254.390675 
L 97.024275 254.139685 
L 107.37678 253.180986 
L 117.729285 253.152184 
L 128.081789 244.098032 
L 138.434294 253.388773 
L 148.786798 249.983951 
L 159.139303 229.682572 
L 169.491808 241.752717 
L 179.844312 253.580101 
L 190.196817 251.576297 
L 200.549322 253.384658 
L 210.901826 249.899602 
L 221.254331 249.284471 
L 231.606836 240.695268 
L 241.95934 252.683121 
L 252.311845 248.029521 
L 262.664349 257.231798 
L 273.016854 256.949949 
L 283.369359 253.86195 
L 293.721863 253.578044 
L 304.074368 238.066046 
L 314.426873 257.106303 
L 324.779377 264.940479 
L 335.131882 242.890401 
L 344.005457 251.522807 
L 355.836891 278.078359 
L 366.189396 259.809588 
L 376.541901 248.495756 
L 386.894405 244.296304 
L 397.24691 257.865445 
L 407.599414 267.956472 
L 417.951919 258.213127 
L 428.304424 262.041752 
L 438.656928 261.06248 
L 449.009433 255.174504 
L 459.361938 260.406203 
L 469.714442 239.658392 
L 480.066947 259.346696 
L 490.419452 240.536856 
L 500.771956 234.539844 
L 511.124461 256.797709 
L 521.476965 291.730563 
L 531.82947 240.742586 
L 542.181975 263.103316 
L 552.534479 258.692477 
L 562.886984 250.61554 
L 573.239489 272.285019 
L 573.239489 272.285019 
L 573.239489 272.285019 
L 562.886984 250.61554 
L 552.534479 253.115153 
L 542.181975 263.103316 
L 531.82947 239.15024 
L 521.476965 286.159411 
L 511.124461 220.398004 
L 500.771956 226.713897 
L 490.419452 209.200152 
L 480.066947 258.404456 
L 469.714442 218.268705 
L 459.361938 248.984106 
L 449.009433 225.043374 
L 438.656928 261.06248 
L 428.304424 249.058168 
L 417.951919 241.668368 
L 407.599414 247.235406 
L 397.24691 231.711064 
L 386.894405 233.431477 
L 376.541901 238.197198 
L 366.189396 259.809588 
L 355.836891 277.257499 
L 344.005457 251.522807 
L 335.131882 242.890401 
L 324.779377 264.940479 
L 314.426873 257.106303 
L 304.074368 238.066046 
L 293.721863 253.578044 
L 283.369359 253.86195 
L 273.016854 256.947891 
L 262.664349 257.231798 
L 252.311845 240.839278 
L 241.95934 252.683121 
L 231.606836 240.695268 
L 221.254331 249.284471 
L 210.901826 249.899602 
L 200.549322 253.384658 
L 190.196817 251.576297 
L 179.844312 253.580101 
L 169.491808 241.752717 
L 159.139303 229.682572 
L 148.786798 249.983951 
L 138.434294 253.388773 
L 128.081789 244.098032 
L 117.729285 253.152184 
L 107.37678 253.180986 
L 97.024275 254.139685 
L 86.671771 254.374217 
L 76.319266 259.408415 
L 65.966761 252.419787 
z
" clip-path="url(#p123a92672b)" style="fill: #8c564b"/>
   </g>
   <g id="PolyCollection_7">
    <path d="M 65.966761 184.646347 
L 65.966761 252.419787 
L 76.319266 259.408415 
L 86.671771 254.374217 
L 97.024275 254.139685 
L 107.37678 253.180986 
L 117.729285 253.152184 
L 128.081789 244.098032 
L 138.434294 253.388773 
L 148.786798 249.983951 
L 159.139303 229.682572 
L 169.491808 241.752717 
L 179.844312 253.580101 
L 190.196817 251.576297 
L 200.549322 253.384658 
L 210.901826 249.899602 
L 221.254331 249.284471 
L 231.606836 240.695268 
L 241.95934 252.683121 
L 252.311845 240.839278 
L 262.664349 257.231798 
L 273.016854 256.947891 
L 283.369359 253.86195 
L 293.721863 253.578044 
L 304.074368 238.066046 
L 314.426873 257.106303 
L 324.779377 264.940479 
L 335.131882 242.890401 
L 344.005457 251.522807 
L 355.836891 277.257499 
L 366.189396 259.809588 
L 376.541901 238.197198 
L 386.894405 233.431477 
L 397.24691 231.711064 
L 407.599414 247.235406 
L 417.951919 241.668368 
L 428.304424 249.058168 
L 438.656928 261.06248 
L 449.009433 225.043374 
L 459.361938 248.984106 
L 469.714442 218.268705 
L 480.066947 258.404456 
L 490.419452 209.200152 
L 500.771956 226.713897 
L 511.124461 220.398004 
L 521.476965 286.159411 
L 531.82947 239.15024 
L 542.181975 263.103316 
L 552.534479 253.115153 
L 562.886984 250.61554 
L 573.239489 272.285019 
L 573.239489 230.793511 
L 573.239489 230.793511 
L 562.886984 135.096418 
L 552.534479 134.137718 
L 542.181975 121.532677 
L 531.82947 188.273356 
L 521.476965 223.393424 
L 511.124461 143.685621 
L 500.771956 190.980755 
L 490.419452 64.825422 
L 480.066947 120.164577 
L 469.714442 124.50341 
L 459.361938 151.386072 
L 449.009433 133.670713 
L 438.656928 138.871552 
L 428.304424 100.505074 
L 417.951919 108.289875 
L 407.599414 126.544246 
L 397.24691 51.897386 
L 386.894405 136.642474 
L 376.541901 150.671163 
L 366.189396 84.48081 
L 355.836891 127.085314 
L 344.005457 162.499575 
L 335.131882 149.771097 
L 324.779377 128.107789 
L 314.426873 126.287084 
L 304.074368 143.175412 
L 293.721863 118.740929 
L 283.369359 133.602822 
L 273.016854 182.087073 
L 262.664349 133.483499 
L 252.311845 143.876949 
L 241.95934 141.455514 
L 231.606836 109.66209 
L 221.254331 139.581319 
L 210.901826 146.314842 
L 200.549322 166.140986 
L 190.196817 93.331289 
L 179.844312 158.047591 
L 169.491808 132.44868 
L 159.139303 80.946379 
L 148.786798 79.784008 
L 138.434294 181.037853 
L 128.081789 189.80604 
L 117.729285 111.478681 
L 107.37678 172.06805 
L 97.024275 159.300483 
L 86.671771 78.483798 
L 76.319266 46.939307 
L 65.966761 184.646347 
z
" clip-path="url(#p123a92672b)" style="fill: #e377c2"/>
   </g>
   <g id="PathCollection_1">
    <defs>
     <path id="m05d7ca3492" d="M 0 1.414214 
C 0.375054 1.414214 0.734797 1.265203 1 1 
C 1.265203 0.734797 1.414214 0.375054 1.414214 0 
C 1.414214 -0.375054 1.265203 -0.734797 1 -1 
C 0.734797 -1.265203 0.375054 -1.414214 0 -1.414214 
C -0.375054 -1.414214 -0.734797 -1.265203 -1 -1 
C -1.265203 -0.734797 -1.414214 -0.375054 -1.414214 0 
C -1.414214 0.375054 -1.265203 0.734797 -1 1 
C -0.734797 1.265203 -0.375054 1.414214 0 1.414214 
z
" style="stroke: #b0b0b0"/>
    </defs>
    <g clip-path="url(#p123a92672b)">
     <use xlink:href="#m05d7ca3492" x="65.966761" y="101.704477" style="fill: #b0b0b0; stroke: #b0b0b0"/>
     <use xlink:href="#m05d7ca3492" x="76.319266" y="91.418006" style="fill: #b0b0b0; stroke: #b0b0b0"/>
     <use xlink:href="#m05d7ca3492" x="86.671771" y="81.131535" style="fill: #b0b0b0; stroke: #b0b0b0"/>
     <use xlink:href="#m05d7ca3492" x="97.024275" y="95.532594" style="fill: #b0b0b0; stroke: #b0b0b0"/>
     <use xlink:href="#m05d7ca3492" x="107.37678" y="93.4753" style="fill: #b0b0b0; stroke: #b0b0b0"/>
     <use xlink:href="#m05d7ca3492" x="117.729285" y="124.334712" style="fill: #b0b0b0; stroke: #b0b0b0"/>
     <use xlink:href="#m05d7ca3492" x="128.081789" y="103.761771" style="fill: #b0b0b0; stroke: #b0b0b0"/>
     <use xlink:href="#m05d7ca3492" x="138.434294" y="101.704477" style="fill: #b0b0b0; stroke: #b0b0b0"/>
     <use xlink:href="#m05d7ca3492" x="148.786798" y="85.246123" style="fill: #b0b0b0; stroke: #b0b0b0"/>
     <use xlink:href="#m05d7ca3492" x="159.139303" y="126.392006" style="fill: #b0b0b0; stroke: #b0b0b0"/>
     <use xlink:href="#m05d7ca3492" x="169.491808" y="95.532594" style="fill: #b0b0b0; stroke: #b0b0b0"/>
     <use xlink:href="#m05d7ca3492" x="179.844312" y="101.704477" style="fill: #b0b0b0; stroke: #b0b0b0"/>
     <use xlink:href="#m05d7ca3492" x="190.196817" y="89.360712" style="fill: #b0b0b0; stroke: #b0b0b0"/>
     <use xlink:href="#m05d7ca3492" x="200.549322" y="132.563888" style="fill: #b0b0b0; stroke: #b0b0b0"/>
     <use xlink:href="#m05d7ca3492" x="210.901826" y="91.418006" style="fill: #b0b0b0; stroke: #b0b0b0"/>
     <use xlink:href="#m05d7ca3492" x="221.254331" y="118.16283" style="fill: #b0b0b0; stroke: #b0b0b0"/>
     <use xlink:href="#m05d7ca3492" x="231.606836" y="111.990947" style="fill: #b0b0b0; stroke: #b0b0b0"/>
     <use xlink:href="#m05d7ca3492" x="241.95934" y="124.334712" style="fill: #b0b0b0; stroke: #b0b0b0"/>
     <use xlink:href="#m05d7ca3492" x="252.311845" y="144.907653" style="fill: #b0b0b0; stroke: #b0b0b0"/>
     <use xlink:href="#m05d7ca3492" x="262.664349" y="196.340006" style="fill: #b0b0b0; stroke: #b0b0b0"/>
     <use xlink:href="#m05d7ca3492" x="273.016854" y="179.881653" style="fill: #b0b0b0; stroke: #b0b0b0"/>
     <use xlink:href="#m05d7ca3492" x="283.369359" y="165.480595" style="fill: #b0b0b0; stroke: #b0b0b0"/>
     <use xlink:href="#m05d7ca3492" x="293.721863" y="188.11083" style="fill: #b0b0b0; stroke: #b0b0b0"/>
     <use xlink:href="#m05d7ca3492" x="304.074368" y="200.454595" style="fill: #b0b0b0; stroke: #b0b0b0"/>
     <use xlink:href="#m05d7ca3492" x="314.426873" y="221.027536" style="fill: #b0b0b0; stroke: #b0b0b0"/>
     <use xlink:href="#m05d7ca3492" x="324.779377" y="218.970242" style="fill: #b0b0b0; stroke: #b0b0b0"/>
     <use xlink:href="#m05d7ca3492" x="335.131882" y="249.829654" style="fill: #b0b0b0; stroke: #b0b0b0"/>
     <use xlink:href="#m05d7ca3492" x="344.005457" y="251.886948" style="fill: #b0b0b0; stroke: #b0b0b0"/>
     <use xlink:href="#m05d7ca3492" x="355.836891" y="237.485889" style="fill: #b0b0b0; stroke: #b0b0b0"/>
     <use xlink:href="#m05d7ca3492" x="366.189396" y="247.77236" style="fill: #b0b0b0; stroke: #b0b0b0"/>
     <use xlink:href="#m05d7ca3492" x="376.541901" y="278.631772" style="fill: #b0b0b0; stroke: #b0b0b0"/>
     <use xlink:href="#m05d7ca3492" x="386.894405" y="282.74636" style="fill: #b0b0b0; stroke: #b0b0b0"/>
     <use xlink:href="#m05d7ca3492" x="397.24691" y="276.574477" style="fill: #b0b0b0; stroke: #b0b0b0"/>
     <use xlink:href="#m05d7ca3492" x="407.599414" y="266.288007" style="fill: #b0b0b0; stroke: #b0b0b0"/>
     <use xlink:href="#m05d7ca3492" x="417.951919" y="303.319301" style="fill: #b0b0b0; stroke: #b0b0b0"/>
     <use xlink:href="#m05d7ca3492" x="428.304424" y="305.376595" style="fill: #b0b0b0; stroke: #b0b0b0"/>
     <use xlink:href="#m05d7ca3492" x="438.656928" y="303.319301" style="fill: #b0b0b0; stroke: #b0b0b0"/>
     <use xlink:href="#m05d7ca3492" x="449.009433" y="276.574477" style="fill: #b0b0b0; stroke: #b0b0b0"/>
     <use xlink:href="#m05d7ca3492" x="459.361938" y="237.485889" style="fill: #b0b0b0; stroke: #b0b0b0"/>
     <use xlink:href="#m05d7ca3492" x="469.714442" y="249.829654" style="fill: #b0b0b0; stroke: #b0b0b0"/>
     <use xlink:href="#m05d7ca3492" x="480.066947" y="235.428595" style="fill: #b0b0b0; stroke: #b0b0b0"/>
     <use xlink:href="#m05d7ca3492" x="490.419452" y="223.08483" style="fill: #b0b0b0; stroke: #b0b0b0"/>
     <use xlink:href="#m05d7ca3492" x="500.771956" y="210.741065" style="fill: #b0b0b0; stroke: #b0b0b0"/>
     <use xlink:href="#m05d7ca3492" x="511.124461" y="233.371301" style="fill: #b0b0b0; stroke: #b0b0b0"/>
     <use xlink:href="#m05d7ca3492" x="521.476965" y="223.08483" style="fill: #b0b0b0; stroke: #b0b0b0"/>
     <use xlink:href="#m05d7ca3492" x="531.82947" y="239.543183" style="fill: #b0b0b0; stroke: #b0b0b0"/>
     <use xlink:href="#m05d7ca3492" x="542.181975" y="206.626477" style="fill: #b0b0b0; stroke: #b0b0b0"/>
     <use xlink:href="#m05d7ca3492" x="552.534479" y="173.709771" style="fill: #b0b0b0; stroke: #b0b0b0"/>
     <use xlink:href="#m05d7ca3492" x="562.886984" y="130.506594" style="fill: #b0b0b0; stroke: #b0b0b0"/>
     <use xlink:href="#m05d7ca3492" x="573.239489" y="109.933653" style="fill: #b0b0b0; stroke: #b0b0b0"/>
    </g>
   </g>
   <g id="PathCollection_2">
    <defs>
     <path id="mb1c5635e69" d="M 0 1.414214 
C 0.375054 1.414214 0.734797 1.265203 1 1 
C 1.265203 0.734797 1.414214 0.375054 1.414214 0 
C 1.414214 -0.375054 1.265203 -0.734797 1 -1 
C 0.734797 -1.265203 0.375054 -1.414214 0 -1.414214 
C -0.375054 -1.414214 -0.734797 -1.265203 -1 -1 
C -1.265203 -0.734797 -1.414214 -0.375054 -1.414214 0 
C -1.414214 0.375054 -1.265203 0.734797 -1 1 
C -0.734797 1.265203 -0.375054 1.414214 0 1.414214 
z
" style="stroke: #000000"/>
    </defs>
    <g clip-path="url(#p123a92672b)">
     <use xlink:href="#mb1c5635e69" x="65.966761" y="77.667052" style="stroke: #000000"/>
     <use xlink:href="#mb1c5635e69" x="76.319266" y="67.512248" style="stroke: #000000"/>
     <use xlink:href="#mb1c5635e69" x="86.671771" y="53.796268" style="stroke: #000000"/>
     <use xlink:href="#mb1c5635e69" x="97.024275" y="68.779541" style="stroke: #000000"/>
     <use xlink:href="#mb1c5635e69" x="107.37678" y="67.14605" style="stroke: #000000"/>
     <use xlink:href="#mb1c5635e69" x="117.729285" y="88.848446" style="stroke: #000000"/>
     <use xlink:href="#mb1c5635e69" x="128.081789" y="62.253804" style="stroke: #000000"/>
     <use xlink:href="#mb1c5635e69" x="138.434294" y="61.714793" style="stroke: #000000"/>
     <use xlink:href="#mb1c5635e69" x="148.786798" y="38.638125" style="stroke: #000000"/>
     <use xlink:href="#mb1c5635e69" x="159.139303" y="83.003673" style="stroke: #000000"/>
     <use xlink:href="#mb1c5635e69" x="169.491808" y="48.099621" style="stroke: #000000"/>
     <use xlink:href="#mb1c5635e69" x="179.844312" y="61.354767" style="stroke: #000000"/>
     <use xlink:href="#mb1c5635e69" x="190.196817" y="48.070819" style="stroke: #000000"/>
     <use xlink:href="#mb1c5635e69" x="200.549322" y="96.192986" style="stroke: #000000"/>
     <use xlink:href="#mb1c5635e69" x="210.901826" y="49.622018" style="stroke: #000000"/>
     <use xlink:href="#mb1c5635e69" x="221.254331" y="84.034377" style="stroke: #000000"/>
     <use xlink:href="#mb1c5635e69" x="231.606836" y="76.745384" style="stroke: #000000"/>
     <use xlink:href="#mb1c5635e69" x="241.95934" y="90.02316" style="stroke: #000000"/>
     <use xlink:href="#mb1c5635e69" x="252.311845" y="117.132125" style="stroke: #000000"/>
     <use xlink:href="#mb1c5635e69" x="262.664349" y="170.514793" style="stroke: #000000"/>
     <use xlink:href="#mb1c5635e69" x="273.016854" y="153.284955" style="stroke: #000000"/>
     <use xlink:href="#mb1c5635e69" x="283.369359" y="137.71741" style="stroke: #000000"/>
     <use xlink:href="#mb1c5635e69" x="293.721863" y="161.944106" style="stroke: #000000"/>
     <use xlink:href="#mb1c5635e69" x="304.074368" y="174.034823" style="stroke: #000000"/>
     <use xlink:href="#mb1c5635e69" x="314.426873" y="196.235084" style="stroke: #000000"/>
     <use xlink:href="#mb1c5635e69" x="324.779377" y="191.883907" style="stroke: #000000"/>
     <use xlink:href="#mb1c5635e69" x="335.131882" y="225.890979" style="stroke: #000000"/>
     <use xlink:href="#mb1c5635e69" x="344.005457" y="232.447576" style="stroke: #000000"/>
     <use xlink:href="#mb1c5635e69" x="355.836891" y="205.262491" style="stroke: #000000"/>
     <use xlink:href="#mb1c5635e69" x="366.189396" y="224.376811" style="stroke: #000000"/>
     <use xlink:href="#mb1c5635e69" x="376.541901" y="265.879634" style="stroke: #000000"/>
     <use xlink:href="#mb1c5635e69" x="386.894405" y="270.366592" style="stroke: #000000"/>
     <use xlink:href="#mb1c5635e69" x="397.24691" y="263.798681" style="stroke: #000000"/>
     <use xlink:href="#mb1c5635e69" x="407.599414" y="249.981894" style="stroke: #000000"/>
     <use xlink:href="#mb1c5635e69" x="417.951919" y="295.503641" style="stroke: #000000"/>
     <use xlink:href="#mb1c5635e69" x="428.304424" y="295.948016" style="stroke: #000000"/>
     <use xlink:href="#mb1c5635e69" x="438.656928" y="293.168612" style="stroke: #000000"/>
     <use xlink:href="#mb1c5635e69" x="449.009433" y="261.222949" style="stroke: #000000"/>
     <use xlink:href="#mb1c5635e69" x="459.361938" y="211.047602" style="stroke: #000000"/>
     <use xlink:href="#mb1c5635e69" x="469.714442" y="212.967058" style="stroke: #000000"/>
     <use xlink:href="#mb1c5635e69" x="480.066947" y="223.029283" style="stroke: #000000"/>
     <use xlink:href="#mb1c5635e69" x="490.419452" y="196.492246" style="stroke: #000000"/>
     <use xlink:href="#mb1c5635e69" x="500.771956" y="186.866167" style="stroke: #000000"/>
     <use xlink:href="#mb1c5635e69" x="511.124461" y="211.576327" style="stroke: #000000"/>
     <use xlink:href="#mb1c5635e69" x="521.476965" y="200.763189" style="stroke: #000000"/>
     <use xlink:href="#mb1c5635e69" x="531.82947" y="221.190062" style="stroke: #000000"/>
     <use xlink:href="#mb1c5635e69" x="542.181975" y="183.251501" style="stroke: #000000"/>
     <use xlink:href="#mb1c5635e69" x="552.534479" y="146.481483" style="stroke: #000000"/>
     <use xlink:href="#mb1c5635e69" x="562.886984" y="96.007829" style="stroke: #000000"/>
     <use xlink:href="#mb1c5635e69" x="573.239489" y="74.439157" style="stroke: #000000"/>
    </g>
   </g>
   <g id="line2d_19">
    <path d="M 65.966761 101.704477 
L 76.319266 91.418006 
L 86.671771 81.131535 
L 97.024275 95.532594 
L 107.37678 93.4753 
L 117.729285 124.334712 
L 128.081789 103.761771 
L 138.434294 101.704477 
L 148.786798 85.246123 
L 159.139303 126.392006 
L 169.491808 95.532594 
L 179.844312 101.704477 
L 190.196817 89.360712 
L 200.549322 132.563888 
L 210.901826 91.418006 
L 221.254331 118.16283 
L 231.606836 111.990947 
L 241.95934 124.334712 
L 252.311845 144.907653 
L 262.664349 196.340006 
L 273.016854 179.881653 
L 283.369359 165.480595 
L 293.721863 188.11083 
L 304.074368 200.454595 
L 314.426873 221.027536 
L 324.779377 218.970242 
L 335.131882 249.829654 
L 344.005457 251.886948 
L 355.836891 237.485889 
L 366.189396 247.77236 
L 376.541901 278.631772 
L 386.894405 282.74636 
L 397.24691 276.574477 
L 407.599414 266.288007 
L 417.951919 303.319301 
L 428.304424 305.376595 
L 438.656928 303.319301 
L 449.009433 276.574477 
L 459.361938 237.485889 
L 469.714442 249.829654 
L 480.066947 235.428595 
L 490.419452 223.08483 
L 500.771956 210.741065 
L 511.124461 233.371301 
L 521.476965 223.08483 
L 531.82947 239.543183 
L 542.181975 206.626477 
L 552.534479 173.709771 
L 562.886984 130.506594 
L 573.239489 109.933653 
" clip-path="url(#p123a92672b)" style="fill: none; stroke: #b0b0b0; stroke-width: 1.5; stroke-linecap: square"/>
   </g>
   <g id="line2d_20">
    <path d="M 65.966761 77.667052 
L 76.319266 67.512248 
L 86.671771 53.796268 
L 97.024275 68.779541 
L 107.37678 67.14605 
L 117.729285 88.848446 
L 128.081789 62.253804 
L 138.434294 61.714793 
L 148.786798 38.638125 
L 159.139303 83.003673 
L 169.491808 48.099621 
L 179.844312 61.354767 
L 190.196817 48.070819 
L 200.549322 96.192986 
L 210.901826 49.622018 
L 221.254331 84.034377 
L 231.606836 76.745384 
L 241.95934 90.02316 
L 252.311845 117.132125 
L 262.664349 170.514793 
L 273.016854 153.284955 
L 283.369359 137.71741 
L 293.721863 161.944106 
L 304.074368 174.034823 
L 314.426873 196.235084 
L 324.779377 191.883907 
L 335.131882 225.890979 
L 344.005457 232.447576 
L 355.836891 205.262491 
L 366.189396 224.376811 
L 376.541901 265.879634 
L 386.894405 270.366592 
L 397.24691 263.798681 
L 407.599414 249.981894 
L 417.951919 295.503641 
L 428.304424 295.948016 
L 438.656928 293.168612 
L 449.009433 261.222949 
L 459.361938 211.047602 
L 469.714442 212.967058 
L 480.066947 223.029283 
L 490.419452 196.492246 
L 500.771956 186.866167 
L 511.124461 211.576327 
L 521.476965 200.763189 
L 531.82947 221.190062 
L 542.181975 183.251501 
L 552.534479 146.481483 
L 562.886984 96.007829 
L 573.239489 74.439157 
" clip-path="url(#p123a92672b)" style="fill: none; stroke: #000000; stroke-width: 1.5; stroke-linecap: square"/>
   </g>
   <g id="patch_3">
    <path d="M 40.603125 365.038125 
L 40.603125 22.318125 
" style="fill: none; stroke: #000000; stroke-width: 0.8; stroke-linejoin: miter; stroke-linecap: square"/>
   </g>
   <g id="patch_4">
    <path d="M 598.603125 365.038125 
L 598.603125 22.318125 
" style="fill: none; stroke: #000000; stroke-width: 0.8; stroke-linejoin: miter; stroke-linecap: square"/>
   </g>
   <g id="patch_5">
    <path d="M 40.603125 365.038125 
L 598.603125 365.038125 
" style="fill: none; stroke: #000000; stroke-width: 0.8; stroke-linejoin: miter; stroke-linecap: square"/>
   </g>
   <g id="patch_6">
    <path d="M 40.603125 22.318125 
L 598.603125 22.318125 
" style="fill: none; stroke: #000000; stroke-width: 0.8; stroke-linejoin: miter; stroke-linecap: square"/>
   </g>
   <g id="text_14">
    <!-- Solar Generation and Use - 3.24+.6 kW System -->
    <g transform="translate(176.938125 16.318125) scale(0.12 -0.12)">
     <defs>
      <path id="DejaVuSans-2e" d="M 684 794 
L 1344 794 
L 1344 0 
L 684 0 
L 684 794 
z
" transform="scale(0.015625)"/>
      <path id="DejaVuSans-34" d="M 2419 4116 
L 825 1625 
L 2419 1625 
L 2419 4116 
z
M 2253 4666 
L 3047 4666 
L 3047 1625 
L 3713 1625 
L 3713 1100 
L 3047 1100 
L 3047 0 
L 2419 0 
L 2419 1100 
L 313 1100 
L 313 1709 
L 2253 4666 
z
" transform="scale(0.015625)"/>
      <path id="DejaVuSans-2b" d="M 2944 4013 
L 2944 2272 
L 4684 2272 
L 4684 1741 
L 2944 1741 
L 2944 0 
L 2419 0 
L 2419 1741 
L 678 1741 
L 678 2272 
L 2419 2272 
L 2419 4013 
L 2944 4013 
z
" transform="scale(0.015625)"/>
      <path id="DejaVuSans-36" d="M 2113 2584 
Q 1688 2584 1439 2293 
Q 1191 2003 1191 1497 
Q 1191 994 1439 701 
Q 1688 409 2113 409 
Q 2538 409 2786 701 
Q 3034 994 3034 1497 
Q 3034 2003 2786 2293 
Q 2538 2584 2113 2584 
z
M 3366 4563 
L 3366 3988 
Q 3128 4100 2886 4159 
Q 2644 4219 2406 4219 
Q 1781 4219 1451 3797 
Q 1122 3375 1075 2522 
Q 1259 2794 1537 2939 
Q 1816 3084 2150 3084 
Q 2853 3084 3261 2657 
Q 3669 2231 3669 1497 
Q 3669 778 3244 343 
Q 2819 -91 2113 -91 
Q 1303 -91 875 529 
Q 447 1150 447 2328 
Q 447 3434 972 4092 
Q 1497 4750 2381 4750 
Q 2619 4750 2861 4703 
Q 3103 4656 3366 4563 
z
" transform="scale(0.015625)"/>
      <path id="DejaVuSans-6d" d="M 3328 2828 
Q 3544 3216 3844 3400 
Q 4144 3584 4550 3584 
Q 5097 3584 5394 3201 
Q 5691 2819 5691 2113 
L 5691 0 
L 5113 0 
L 5113 2094 
Q 5113 2597 4934 2840 
Q 4756 3084 4391 3084 
Q 3944 3084 3684 2787 
Q 3425 2491 3425 1978 
L 3425 0 
L 2847 0 
L 2847 2094 
Q 2847 2600 2669 2842 
Q 2491 3084 2119 3084 
Q 1678 3084 1418 2786 
Q 1159 2488 1159 1978 
L 1159 0 
L 581 0 
L 581 3500 
L 1159 3500 
L 1159 2956 
Q 1356 3278 1631 3431 
Q 1906 3584 2284 3584 
Q 2666 3584 2933 3390 
Q 3200 3197 3328 2828 
z
" transform="scale(0.015625)"/>
     </defs>
     <use xlink:href="#DejaVuSans-53"/>
     <use xlink:href="#DejaVuSans-6f" x="63.476562"/>
     <use xlink:href="#DejaVuSans-6c" x="124.658203"/>
     <use xlink:href="#DejaVuSans-61" x="152.441406"/>
     <use xlink:href="#DejaVuSans-72" x="213.720703"/>
     <use xlink:href="#DejaVuSans-20" x="254.833984"/>
     <use xlink:href="#DejaVuSans-47" x="286.621094"/>
     <use xlink:href="#DejaVuSans-65" x="364.111328"/>
     <use xlink:href="#DejaVuSans-6e" x="425.634766"/>
     <use xlink:href="#DejaVuSans-65" x="489.013672"/>
     <use xlink:href="#DejaVuSans-72" x="550.537109"/>
     <use xlink:href="#DejaVuSans-61" x="591.650391"/>
     <use xlink:href="#DejaVuSans-74" x="652.929688"/>
     <use xlink:href="#DejaVuSans-69" x="692.138672"/>
     <use xlink:href="#DejaVuSans-6f" x="719.921875"/>
     <use xlink:href="#DejaVuSans-6e" x="781.103516"/>
     <use xlink:href="#DejaVuSans-20" x="844.482422"/>
     <use xlink:href="#DejaVuSans-61" x="876.269531"/>
     <use xlink:href="#DejaVuSans-6e" x="937.548828"/>
     <use xlink:href="#DejaVuSans-64" x="1000.927734"/>
     <use xlink:href="#DejaVuSans-20" x="1064.404297"/>
     <use xlink:href="#DejaVuSans-55" x="1096.191406"/>
     <use xlink:href="#DejaVuSans-73" x="1169.384766"/>
     <use xlink:href="#DejaVuSans-65" x="1221.484375"/>
     <use xlink:href="#DejaVuSans-20" x="1283.007812"/>
     <use xlink:href="#DejaVuSans-2d" x="1314.794922"/>
     <use xlink:href="#DejaVuSans-20" x="1350.878906"/>
     <use xlink:href="#DejaVuSans-33" x="1382.666016"/>
     <use xlink:href="#DejaVuSans-2e" x="1446.289062"/>
     <use xlink:href="#DejaVuSans-32" x="1478.076172"/>
     <use xlink:href="#DejaVuSans-34" x="1541.699219"/>
     <use xlink:href="#DejaVuSans-2b" x="1605.322266"/>
     <use xlink:href="#DejaVuSans-2e" x="1689.111328"/>
     <use xlink:href="#DejaVuSans-36" x="1720.898438"/>
     <use xlink:href="#DejaVuSans-20" x="1784.521484"/>
     <use xlink:href="#DejaVuSans-6b" x="1816.308594"/>
     <use xlink:href="#DejaVuSans-57" x="1874.21875"/>
     <use xlink:href="#DejaVuSans-20" x="1973.095703"/>
     <use xlink:href="#DejaVuSans-53" x="2004.882812"/>
     <use xlink:href="#DejaVuSans-79" x="2068.359375"/>
     <use xlink:href="#DejaVuSans-73" x="2127.539062"/>
     <use xlink:href="#DejaVuSans-74" x="2179.638672"/>
     <use xlink:href="#DejaVuSans-65" x="2218.847656"/>
     <use xlink:href="#DejaVuSans-6d" x="2280.371094"/>
    </g>
   </g>
   <g id="legend_1">
    <g id="patch_7">
     <path d="M 47.603125 360.038125 
L 136.235938 360.038125 
Q 138.235938 360.038125 138.235938 358.038125 
L 138.235938 226.935 
Q 138.235938 224.935 136.235938 224.935 
L 47.603125 224.935 
Q 45.603125 224.935 45.603125 226.935 
L 45.603125 358.038125 
Q 45.603125 360.038125 47.603125 360.038125 
z
" style="fill: #ffffff; opacity: 0.8; stroke: #cccccc; stroke-linejoin: miter"/>
    </g>
    <g id="patch_8">
     <path d="M 49.603125 236.533437 
L 69.603125 236.533437 
L 69.603125 229.533437 
L 49.603125 229.533437 
z
" style="fill: #1f77b4"/>
    </g>
    <g id="text_15">
     <!-- Other -->
     <g transform="translate(77.603125 236.533437) scale(0.1 -0.1)">
      <defs>
       <path id="DejaVuSans-4f" d="M 2522 4238 
Q 1834 4238 1429 3725 
Q 1025 3213 1025 2328 
Q 1025 1447 1429 934 
Q 1834 422 2522 422 
Q 3209 422 3611 934 
Q 4013 1447 4013 2328 
Q 4013 3213 3611 3725 
Q 3209 4238 2522 4238 
z
M 2522 4750 
Q 3503 4750 4090 4092 
Q 4678 3434 4678 2328 
Q 4678 1225 4090 567 
Q 3503 -91 2522 -91 
Q 1538 -91 948 565 
Q 359 1222 359 2328 
Q 359 3434 948 4092 
Q 1538 4750 2522 4750 
z
" transform="scale(0.015625)"/>
      </defs>
      <use xlink:href="#DejaVuSans-4f"/>
      <use xlink:href="#DejaVuSans-74" x="78.710938"/>
      <use xlink:href="#DejaVuSans-68" x="117.919922"/>
      <use xlink:href="#DejaVuSans-65" x="181.298828"/>
      <use xlink:href="#DejaVuSans-72" x="242.822266"/>
     </g>
    </g>
    <g id="patch_9">
     <path d="M 49.603125 251.211562 
L 69.603125 251.211562 
L 69.603125 244.211562 
L 49.603125 244.211562 
z
" style="fill: #ff7f0e"/>
    </g>
    <g id="text_16">
     <!-- Fridge -->
     <g transform="translate(77.603125 251.211562) scale(0.1 -0.1)">
      <defs>
       <path id="DejaVuSans-46" d="M 628 4666 
L 3309 4666 
L 3309 4134 
L 1259 4134 
L 1259 2759 
L 3109 2759 
L 3109 2228 
L 1259 2228 
L 1259 0 
L 628 0 
L 628 4666 
z
" transform="scale(0.015625)"/>
      </defs>
      <use xlink:href="#DejaVuSans-46"/>
      <use xlink:href="#DejaVuSans-72" x="50.269531"/>
      <use xlink:href="#DejaVuSans-69" x="91.382812"/>
      <use xlink:href="#DejaVuSans-64" x="119.166016"/>
      <use xlink:href="#DejaVuSans-67" x="182.642578"/>
      <use xlink:href="#DejaVuSans-65" x="246.119141"/>
     </g>
    </g>
    <g id="patch_10">
     <path d="M 49.603125 265.889687 
L 69.603125 265.889687 
L 69.603125 258.889687 
L 49.603125 258.889687 
z
" style="fill: #2ca02c"/>
    </g>
    <g id="text_17">
     <!-- TV / Cable -->
     <g transform="translate(77.603125 265.889687) scale(0.1 -0.1)">
      <defs>
       <path id="DejaVuSans-54" d="M -19 4666 
L 3928 4666 
L 3928 4134 
L 2272 4134 
L 2272 0 
L 1638 0 
L 1638 4134 
L -19 4134 
L -19 4666 
z
" transform="scale(0.015625)"/>
       <path id="DejaVuSans-56" d="M 1831 0 
L 50 4666 
L 709 4666 
L 2188 738 
L 3669 4666 
L 4325 4666 
L 2547 0 
L 1831 0 
z
" transform="scale(0.015625)"/>
       <path id="DejaVuSans-2f" d="M 1625 4666 
L 2156 4666 
L 531 -594 
L 0 -594 
L 1625 4666 
z
" transform="scale(0.015625)"/>
       <path id="DejaVuSans-43" d="M 4122 4306 
L 4122 3641 
Q 3803 3938 3442 4084 
Q 3081 4231 2675 4231 
Q 1875 4231 1450 3742 
Q 1025 3253 1025 2328 
Q 1025 1406 1450 917 
Q 1875 428 2675 428 
Q 3081 428 3442 575 
Q 3803 722 4122 1019 
L 4122 359 
Q 3791 134 3420 21 
Q 3050 -91 2638 -91 
Q 1578 -91 968 557 
Q 359 1206 359 2328 
Q 359 3453 968 4101 
Q 1578 4750 2638 4750 
Q 3056 4750 3426 4639 
Q 3797 4528 4122 4306 
z
" transform="scale(0.015625)"/>
       <path id="DejaVuSans-62" d="M 3116 1747 
Q 3116 2381 2855 2742 
Q 2594 3103 2138 3103 
Q 1681 3103 1420 2742 
Q 1159 2381 1159 1747 
Q 1159 1113 1420 752 
Q 1681 391 2138 391 
Q 2594 391 2855 752 
Q 3116 1113 3116 1747 
z
M 1159 2969 
Q 1341 3281 1617 3432 
Q 1894 3584 2278 3584 
Q 2916 3584 3314 3078 
Q 3713 2572 3713 1747 
Q 3713 922 3314 415 
Q 2916 -91 2278 -91 
Q 1894 -91 1617 61 
Q 1341 213 1159 525 
L 1159 0 
L 581 0 
L 581 4863 
L 1159 4863 
L 1159 2969 
z
" transform="scale(0.015625)"/>
      </defs>
      <use xlink:href="#DejaVuSans-54"/>
      <use xlink:href="#DejaVuSans-56" x="61.083984"/>
      <use xlink:href="#DejaVuSans-20" x="129.492188"/>
      <use xlink:href="#DejaVuSans-2f" x="161.279297"/>
      <use xlink:href="#DejaVuSans-20" x="194.970703"/>
      <use xlink:href="#DejaVuSans-43" x="226.757812"/>
      <use xlink:href="#DejaVuSans-61" x="296.582031"/>
      <use xlink:href="#DejaVuSans-62" x="357.861328"/>
      <use xlink:href="#DejaVuSans-6c" x="421.337891"/>
      <use xlink:href="#DejaVuSans-65" x="449.121094"/>
     </g>
    </g>
    <g id="patch_11">
     <path d="M 49.603125 280.567812 
L 69.603125 280.567812 
L 69.603125 273.567812 
L 49.603125 273.567812 
z
" style="fill: #d62728"/>
    </g>
    <g id="text_18">
     <!-- Computers -->
     <g transform="translate(77.603125 280.567812) scale(0.1 -0.1)">
      <defs>
       <path id="DejaVuSans-70" d="M 1159 525 
L 1159 -1331 
L 581 -1331 
L 581 3500 
L 1159 3500 
L 1159 2969 
Q 1341 3281 1617 3432 
Q 1894 3584 2278 3584 
Q 2916 3584 3314 3078 
Q 3713 2572 3713 1747 
Q 3713 922 3314 415 
Q 2916 -91 2278 -91 
Q 1894 -91 1617 61 
Q 1341 213 1159 525 
z
M 3116 1747 
Q 3116 2381 2855 2742 
Q 2594 3103 2138 3103 
Q 1681 3103 1420 2742 
Q 1159 2381 1159 1747 
Q 1159 1113 1420 752 
Q 1681 391 2138 391 
Q 2594 391 2855 752 
Q 3116 1113 3116 1747 
z
" transform="scale(0.015625)"/>
       <path id="DejaVuSans-75" d="M 544 1381 
L 544 3500 
L 1119 3500 
L 1119 1403 
Q 1119 906 1312 657 
Q 1506 409 1894 409 
Q 2359 409 2629 706 
Q 2900 1003 2900 1516 
L 2900 3500 
L 3475 3500 
L 3475 0 
L 2900 0 
L 2900 538 
Q 2691 219 2414 64 
Q 2138 -91 1772 -91 
Q 1169 -91 856 284 
Q 544 659 544 1381 
z
M 1991 3584 
L 1991 3584 
z
" transform="scale(0.015625)"/>
      </defs>
      <use xlink:href="#DejaVuSans-43"/>
      <use xlink:href="#DejaVuSans-6f" x="69.824219"/>
      <use xlink:href="#DejaVuSans-6d" x="131.005859"/>
      <use xlink:href="#DejaVuSans-70" x="228.417969"/>
      <use xlink:href="#DejaVuSans-75" x="291.894531"/>
      <use xlink:href="#DejaVuSans-74" x="355.273438"/>
      <use xlink:href="#DejaVuSans-65" x="394.482422"/>
      <use xlink:href="#DejaVuSans-72" x="456.005859"/>
      <use xlink:href="#DejaVuSans-73" x="497.119141"/>
     </g>
    </g>
    <g id="patch_12">
     <path d="M 49.603125 295.245937 
L 69.603125 295.245937 
L 69.603125 288.245937 
L 49.603125 288.245937 
z
" style="fill: #9467bd"/>
    </g>
    <g id="text_19">
     <!-- Bath Heat -->
     <g transform="translate(77.603125 295.245937) scale(0.1 -0.1)">
      <defs>
       <path id="DejaVuSans-42" d="M 1259 2228 
L 1259 519 
L 2272 519 
Q 2781 519 3026 730 
Q 3272 941 3272 1375 
Q 3272 1813 3026 2020 
Q 2781 2228 2272 2228 
L 1259 2228 
z
M 1259 4147 
L 1259 2741 
L 2194 2741 
Q 2656 2741 2882 2914 
Q 3109 3088 3109 3444 
Q 3109 3797 2882 3972 
Q 2656 4147 2194 4147 
L 1259 4147 
z
M 628 4666 
L 2241 4666 
Q 2963 4666 3353 4366 
Q 3744 4066 3744 3513 
Q 3744 3084 3544 2831 
Q 3344 2578 2956 2516 
Q 3422 2416 3680 2098 
Q 3938 1781 3938 1306 
Q 3938 681 3513 340 
Q 3088 0 2303 0 
L 628 0 
L 628 4666 
z
" transform="scale(0.015625)"/>
       <path id="DejaVuSans-48" d="M 628 4666 
L 1259 4666 
L 1259 2753 
L 3553 2753 
L 3553 4666 
L 4184 4666 
L 4184 0 
L 3553 0 
L 3553 2222 
L 1259 2222 
L 1259 0 
L 628 0 
L 628 4666 
z
" transform="scale(0.015625)"/>
      </defs>
      <use xlink:href="#DejaVuSans-42"/>
      <use xlink:href="#DejaVuSans-61" x="68.603516"/>
      <use xlink:href="#DejaVuSans-74" x="129.882812"/>
      <use xlink:href="#DejaVuSans-68" x="169.091797"/>
      <use xlink:href="#DejaVuSans-20" x="232.470703"/>
      <use xlink:href="#DejaVuSans-48" x="264.257812"/>
      <use xlink:href="#DejaVuSans-65" x="339.453125"/>
      <use xlink:href="#DejaVuSans-61" x="400.976562"/>
      <use xlink:href="#DejaVuSans-74" x="462.255859"/>
     </g>
    </g>
    <g id="patch_13">
     <path d="M 49.603125 309.924062 
L 69.603125 309.924062 
L 69.603125 302.924062 
L 49.603125 302.924062 
z
" style="fill: #8c564b"/>
    </g>
    <g id="text_20">
     <!-- Living Heat -->
     <g transform="translate(77.603125 309.924062) scale(0.1 -0.1)">
      <defs>
       <path id="DejaVuSans-4c" d="M 628 4666 
L 1259 4666 
L 1259 531 
L 3531 531 
L 3531 0 
L 628 0 
L 628 4666 
z
" transform="scale(0.015625)"/>
       <path id="DejaVuSans-76" d="M 191 3500 
L 800 3500 
L 1894 563 
L 2988 3500 
L 3597 3500 
L 2284 0 
L 1503 0 
L 191 3500 
z
" transform="scale(0.015625)"/>
      </defs>
      <use xlink:href="#DejaVuSans-4c"/>
      <use xlink:href="#DejaVuSans-69" x="55.712891"/>
      <use xlink:href="#DejaVuSans-76" x="83.496094"/>
      <use xlink:href="#DejaVuSans-69" x="142.675781"/>
      <use xlink:href="#DejaVuSans-6e" x="170.458984"/>
      <use xlink:href="#DejaVuSans-67" x="233.837891"/>
      <use xlink:href="#DejaVuSans-20" x="297.314453"/>
      <use xlink:href="#DejaVuSans-48" x="329.101562"/>
      <use xlink:href="#DejaVuSans-65" x="404.296875"/>
      <use xlink:href="#DejaVuSans-61" x="465.820312"/>
      <use xlink:href="#DejaVuSans-74" x="527.099609"/>
     </g>
    </g>
    <g id="patch_14">
     <path d="M 49.603125 324.602187 
L 69.603125 324.602187 
L 69.603125 317.602187 
L 49.603125 317.602187 
z
" style="fill: #e377c2"/>
    </g>
    <g id="text_21">
     <!-- Car -->
     <g transform="translate(77.603125 324.602187) scale(0.1 -0.1)">
      <use xlink:href="#DejaVuSans-43"/>
      <use xlink:href="#DejaVuSans-61" x="69.824219"/>
      <use xlink:href="#DejaVuSans-72" x="131.103516"/>
     </g>
    </g>
    <g id="PathCollection_3">
     <g>
      <use xlink:href="#m05d7ca3492" x="59.603125" y="336.655312" style="fill: #b0b0b0; stroke: #b0b0b0"/>
     </g>
    </g>
    <g id="text_22">
     <!-- Roof Solar -->
     <g transform="translate(77.603125 339.280312) scale(0.1 -0.1)">
      <defs>
       <path id="DejaVuSans-52" d="M 2841 2188 
Q 3044 2119 3236 1894 
Q 3428 1669 3622 1275 
L 4263 0 
L 3584 0 
L 2988 1197 
Q 2756 1666 2539 1819 
Q 2322 1972 1947 1972 
L 1259 1972 
L 1259 0 
L 628 0 
L 628 4666 
L 2053 4666 
Q 2853 4666 3247 4331 
Q 3641 3997 3641 3322 
Q 3641 2881 3436 2590 
Q 3231 2300 2841 2188 
z
M 1259 4147 
L 1259 2491 
L 2053 2491 
Q 2509 2491 2742 2702 
Q 2975 2913 2975 3322 
Q 2975 3731 2742 3939 
Q 2509 4147 2053 4147 
L 1259 4147 
z
" transform="scale(0.015625)"/>
       <path id="DejaVuSans-66" d="M 2375 4863 
L 2375 4384 
L 1825 4384 
Q 1516 4384 1395 4259 
Q 1275 4134 1275 3809 
L 1275 3500 
L 2222 3500 
L 2222 3053 
L 1275 3053 
L 1275 0 
L 697 0 
L 697 3053 
L 147 3053 
L 147 3500 
L 697 3500 
L 697 3744 
Q 697 4328 969 4595 
Q 1241 4863 1831 4863 
L 2375 4863 
z
" transform="scale(0.015625)"/>
      </defs>
      <use xlink:href="#DejaVuSans-52"/>
      <use xlink:href="#DejaVuSans-6f" x="64.982422"/>
      <use xlink:href="#DejaVuSans-6f" x="126.164062"/>
      <use xlink:href="#DejaVuSans-66" x="187.345703"/>
      <use xlink:href="#DejaVuSans-20" x="222.550781"/>
      <use xlink:href="#DejaVuSans-53" x="254.337891"/>
      <use xlink:href="#DejaVuSans-6f" x="317.814453"/>
      <use xlink:href="#DejaVuSans-6c" x="378.996094"/>
      <use xlink:href="#DejaVuSans-61" x="406.779297"/>
      <use xlink:href="#DejaVuSans-72" x="468.058594"/>
     </g>
    </g>
    <g id="PathCollection_4">
     <g>
      <use xlink:href="#mb1c5635e69" x="59.603125" y="351.333437" style="stroke: #000000"/>
     </g>
    </g>
    <g id="text_23">
     <!-- Total Solar -->
     <g transform="translate(77.603125 353.958437) scale(0.1 -0.1)">
      <use xlink:href="#DejaVuSans-54"/>
      <use xlink:href="#DejaVuSans-6f" x="44.083984"/>
      <use xlink:href="#DejaVuSans-74" x="105.265625"/>
      <use xlink:href="#DejaVuSans-61" x="144.474609"/>
      <use xlink:href="#DejaVuSans-6c" x="205.753906"/>
      <use xlink:href="#DejaVuSans-20" x="233.537109"/>
      <use xlink:href="#DejaVuSans-53" x="265.324219"/>
      <use xlink:href="#DejaVuSans-6f" x="328.800781"/>
      <use xlink:href="#DejaVuSans-6c" x="389.982422"/>
      <use xlink:href="#DejaVuSans-61" x="417.765625"/>
      <use xlink:href="#DejaVuSans-72" x="479.044922"/>
     </g>
    </g>
   </g>
  </g>
 </g>
 <defs>
  <clipPath id="p123a92672b">
   <rect x="40.603125" y="22.318125" width="558" height="342.72"/>
  </clipPath>
 </defs>
</svg>
