<?xml version="1.0" encoding="utf-8" standalone="no"?>
<!DOCTYPE svg PUBLIC "-//W3C//DTD SVG 1.1//EN"
  "http://www.w3.org/Graphics/SVG/1.1/DTD/svg11.dtd">
<!-- Created with matplotlib (https://matplotlib.org/) -->
<svg height="504pt" version="1.1" viewBox="0 0 720 504" width="720pt" xmlns="http://www.w3.org/2000/svg" xmlns:xlink="http://www.w3.org/1999/xlink">
 <metadata>
  <rdf:RDF xmlns:cc="http://creativecommons.org/ns#" xmlns:dc="http://purl.org/dc/elements/1.1/" xmlns:rdf="http://www.w3.org/1999/02/22-rdf-syntax-ns#">
   <cc:Work>
    <dc:type rdf:resource="http://purl.org/dc/dcmitype/StillImage"/>
    <dc:date>2020-09-06T08:59:53.343019</dc:date>
    <dc:format>image/svg+xml</dc:format>
    <dc:creator>
     <cc:Agent>
      <dc:title>Matplotlib v3.3.1, https://matplotlib.org/</dc:title>
     </cc:Agent>
    </dc:creator>
   </cc:Work>
  </rdf:RDF>
 </metadata>
 <defs>
  <style type="text/css">*{stroke-linecap:butt;stroke-linejoin:round;}</style>
 </defs>
 <g id="figure_1">
  <g id="patch_1">
   <path d="M 0 504 
L 720 504 
L 720 0 
L 0 0 
z
" style="fill:#ffffff;"/>
  </g>
  <g id="axes_1">
   <g id="patch_2">
    <path d="M 90 403.2 
L 648 403.2 
L 648 60.48 
L 90 60.48 
z
" style="fill:#ffffff;"/>
   </g>
   <g id="matplotlib.axis_1">
    <g id="xtick_1">
     <g id="line2d_1">
      <path clip-path="url(#p843d4e759e)" d="M 110.486014 403.2 
L 110.486014 60.48 
" style="fill:none;stroke:#eeeeee;stroke-linecap:square;stroke-width:0.8;"/>
     </g>
     <g id="line2d_2">
      <defs>
       <path d="M 0 0 
L 0 3.5 
" id="mf1d265122e" style="stroke:#000000;stroke-width:0.8;"/>
      </defs>
      <g>
       <use style="stroke:#000000;stroke-width:0.8;" x="110.486014" xlink:href="#mf1d265122e" y="403.2"/>
      </g>
     </g>
     <g id="text_1">
      <!-- 2018-09 -->
      <g transform="translate(90.942997 451.279327)rotate(-65)scale(0.1 -0.1)">
       <defs>
        <path d="M 19.1875 8.296875 
L 53.609375 8.296875 
L 53.609375 0 
L 7.328125 0 
L 7.328125 8.296875 
Q 12.9375 14.109375 22.625 23.890625 
Q 32.328125 33.6875 34.8125 36.53125 
Q 39.546875 41.84375 41.421875 45.53125 
Q 43.3125 49.21875 43.3125 52.78125 
Q 43.3125 58.59375 39.234375 62.25 
Q 35.15625 65.921875 28.609375 65.921875 
Q 23.96875 65.921875 18.8125 64.3125 
Q 13.671875 62.703125 7.8125 59.421875 
L 7.8125 69.390625 
Q 13.765625 71.78125 18.9375 73 
Q 24.125 74.21875 28.421875 74.21875 
Q 39.75 74.21875 46.484375 68.546875 
Q 53.21875 62.890625 53.21875 53.421875 
Q 53.21875 48.921875 51.53125 44.890625 
Q 49.859375 40.875 45.40625 35.40625 
Q 44.1875 33.984375 37.640625 27.21875 
Q 31.109375 20.453125 19.1875 8.296875 
z
" id="DejaVuSans-50"/>
        <path d="M 31.78125 66.40625 
Q 24.171875 66.40625 20.328125 58.90625 
Q 16.5 51.421875 16.5 36.375 
Q 16.5 21.390625 20.328125 13.890625 
Q 24.171875 6.390625 31.78125 6.390625 
Q 39.453125 6.390625 43.28125 13.890625 
Q 47.125 21.390625 47.125 36.375 
Q 47.125 51.421875 43.28125 58.90625 
Q 39.453125 66.40625 31.78125 66.40625 
z
M 31.78125 74.21875 
Q 44.046875 74.21875 50.515625 64.515625 
Q 56.984375 54.828125 56.984375 36.375 
Q 56.984375 17.96875 50.515625 8.265625 
Q 44.046875 -1.421875 31.78125 -1.421875 
Q 19.53125 -1.421875 13.0625 8.265625 
Q 6.59375 17.96875 6.59375 36.375 
Q 6.59375 54.828125 13.0625 64.515625 
Q 19.53125 74.21875 31.78125 74.21875 
z
" id="DejaVuSans-48"/>
        <path d="M 12.40625 8.296875 
L 28.515625 8.296875 
L 28.515625 63.921875 
L 10.984375 60.40625 
L 10.984375 69.390625 
L 28.421875 72.90625 
L 38.28125 72.90625 
L 38.28125 8.296875 
L 54.390625 8.296875 
L 54.390625 0 
L 12.40625 0 
z
" id="DejaVuSans-49"/>
        <path d="M 31.78125 34.625 
Q 24.75 34.625 20.71875 30.859375 
Q 16.703125 27.09375 16.703125 20.515625 
Q 16.703125 13.921875 20.71875 10.15625 
Q 24.75 6.390625 31.78125 6.390625 
Q 38.8125 6.390625 42.859375 10.171875 
Q 46.921875 13.96875 46.921875 20.515625 
Q 46.921875 27.09375 42.890625 30.859375 
Q 38.875 34.625 31.78125 34.625 
z
M 21.921875 38.8125 
Q 15.578125 40.375 12.03125 44.71875 
Q 8.5 49.078125 8.5 55.328125 
Q 8.5 64.0625 14.71875 69.140625 
Q 20.953125 74.21875 31.78125 74.21875 
Q 42.671875 74.21875 48.875 69.140625 
Q 55.078125 64.0625 55.078125 55.328125 
Q 55.078125 49.078125 51.53125 44.71875 
Q 48 40.375 41.703125 38.8125 
Q 48.828125 37.15625 52.796875 32.3125 
Q 56.78125 27.484375 56.78125 20.515625 
Q 56.78125 9.90625 50.3125 4.234375 
Q 43.84375 -1.421875 31.78125 -1.421875 
Q 19.734375 -1.421875 13.25 4.234375 
Q 6.78125 9.90625 6.78125 20.515625 
Q 6.78125 27.484375 10.78125 32.3125 
Q 14.796875 37.15625 21.921875 38.8125 
z
M 18.3125 54.390625 
Q 18.3125 48.734375 21.84375 45.5625 
Q 25.390625 42.390625 31.78125 42.390625 
Q 38.140625 42.390625 41.71875 45.5625 
Q 45.3125 48.734375 45.3125 54.390625 
Q 45.3125 60.0625 41.71875 63.234375 
Q 38.140625 66.40625 31.78125 66.40625 
Q 25.390625 66.40625 21.84375 63.234375 
Q 18.3125 60.0625 18.3125 54.390625 
z
" id="DejaVuSans-56"/>
        <path d="M 4.890625 31.390625 
L 31.203125 31.390625 
L 31.203125 23.390625 
L 4.890625 23.390625 
z
" id="DejaVuSans-45"/>
        <path d="M 10.984375 1.515625 
L 10.984375 10.5 
Q 14.703125 8.734375 18.5 7.8125 
Q 22.3125 6.890625 25.984375 6.890625 
Q 35.75 6.890625 40.890625 13.453125 
Q 46.046875 20.015625 46.78125 33.40625 
Q 43.953125 29.203125 39.59375 26.953125 
Q 35.25 24.703125 29.984375 24.703125 
Q 19.046875 24.703125 12.671875 31.3125 
Q 6.296875 37.9375 6.296875 49.421875 
Q 6.296875 60.640625 12.9375 67.421875 
Q 19.578125 74.21875 30.609375 74.21875 
Q 43.265625 74.21875 49.921875 64.515625 
Q 56.59375 54.828125 56.59375 36.375 
Q 56.59375 19.140625 48.40625 8.859375 
Q 40.234375 -1.421875 26.421875 -1.421875 
Q 22.703125 -1.421875 18.890625 -0.6875 
Q 15.09375 0.046875 10.984375 1.515625 
z
M 30.609375 32.421875 
Q 37.25 32.421875 41.125 36.953125 
Q 45.015625 41.5 45.015625 49.421875 
Q 45.015625 57.28125 41.125 61.84375 
Q 37.25 66.40625 30.609375 66.40625 
Q 23.96875 66.40625 20.09375 61.84375 
Q 16.21875 57.28125 16.21875 49.421875 
Q 16.21875 41.5 20.09375 36.953125 
Q 23.96875 32.421875 30.609375 32.421875 
z
" id="DejaVuSans-57"/>
       </defs>
       <use xlink:href="#DejaVuSans-50"/>
       <use x="63.623047" xlink:href="#DejaVuSans-48"/>
       <use x="127.246094" xlink:href="#DejaVuSans-49"/>
       <use x="190.869141" xlink:href="#DejaVuSans-56"/>
       <use x="254.492188" xlink:href="#DejaVuSans-45"/>
       <use x="290.576172" xlink:href="#DejaVuSans-48"/>
       <use x="354.199219" xlink:href="#DejaVuSans-57"/>
      </g>
     </g>
    </g>
    <g id="xtick_2">
     <g id="line2d_3">
      <path clip-path="url(#p843d4e759e)" d="M 131.39011 403.2 
L 131.39011 60.48 
" style="fill:none;stroke:#eeeeee;stroke-linecap:square;stroke-width:0.8;"/>
     </g>
     <g id="line2d_4">
      <g>
       <use style="stroke:#000000;stroke-width:0.8;" x="131.39011" xlink:href="#mf1d265122e" y="403.2"/>
      </g>
     </g>
     <g id="text_2">
      <!-- 2018-10 -->
      <g transform="translate(111.847093 451.279327)rotate(-65)scale(0.1 -0.1)">
       <use xlink:href="#DejaVuSans-50"/>
       <use x="63.623047" xlink:href="#DejaVuSans-48"/>
       <use x="127.246094" xlink:href="#DejaVuSans-49"/>
       <use x="190.869141" xlink:href="#DejaVuSans-56"/>
       <use x="254.492188" xlink:href="#DejaVuSans-45"/>
       <use x="290.576172" xlink:href="#DejaVuSans-49"/>
       <use x="354.199219" xlink:href="#DejaVuSans-48"/>
      </g>
     </g>
    </g>
    <g id="xtick_3">
     <g id="line2d_5">
      <path clip-path="url(#p843d4e759e)" d="M 152.991009 403.2 
L 152.991009 60.48 
" style="fill:none;stroke:#eeeeee;stroke-linecap:square;stroke-width:0.8;"/>
     </g>
     <g id="line2d_6">
      <g>
       <use style="stroke:#000000;stroke-width:0.8;" x="152.991009" xlink:href="#mf1d265122e" y="403.2"/>
      </g>
     </g>
     <g id="text_3">
      <!-- 2018-11 -->
      <g transform="translate(133.447992 451.279327)rotate(-65)scale(0.1 -0.1)">
       <use xlink:href="#DejaVuSans-50"/>
       <use x="63.623047" xlink:href="#DejaVuSans-48"/>
       <use x="127.246094" xlink:href="#DejaVuSans-49"/>
       <use x="190.869141" xlink:href="#DejaVuSans-56"/>
       <use x="254.492188" xlink:href="#DejaVuSans-45"/>
       <use x="290.576172" xlink:href="#DejaVuSans-49"/>
       <use x="354.199219" xlink:href="#DejaVuSans-49"/>
      </g>
     </g>
    </g>
    <g id="xtick_4">
     <g id="line2d_7">
      <path clip-path="url(#p843d4e759e)" d="M 173.895105 403.2 
L 173.895105 60.48 
" style="fill:none;stroke:#eeeeee;stroke-linecap:square;stroke-width:0.8;"/>
     </g>
     <g id="line2d_8">
      <g>
       <use style="stroke:#000000;stroke-width:0.8;" x="173.895105" xlink:href="#mf1d265122e" y="403.2"/>
      </g>
     </g>
     <g id="text_4">
      <!-- 2018-12 -->
      <g transform="translate(154.352088 451.279327)rotate(-65)scale(0.1 -0.1)">
       <use xlink:href="#DejaVuSans-50"/>
       <use x="63.623047" xlink:href="#DejaVuSans-48"/>
       <use x="127.246094" xlink:href="#DejaVuSans-49"/>
       <use x="190.869141" xlink:href="#DejaVuSans-56"/>
       <use x="254.492188" xlink:href="#DejaVuSans-45"/>
       <use x="290.576172" xlink:href="#DejaVuSans-49"/>
       <use x="354.199219" xlink:href="#DejaVuSans-50"/>
      </g>
     </g>
    </g>
    <g id="xtick_5">
     <g id="line2d_9">
      <path clip-path="url(#p843d4e759e)" d="M 195.496004 403.2 
L 195.496004 60.48 
" style="fill:none;stroke:#eeeeee;stroke-linecap:square;stroke-width:0.8;"/>
     </g>
     <g id="line2d_10">
      <g>
       <use style="stroke:#000000;stroke-width:0.8;" x="195.496004" xlink:href="#mf1d265122e" y="403.2"/>
      </g>
     </g>
     <g id="text_5">
      <!-- 2019-01 -->
      <g transform="translate(175.952987 451.279327)rotate(-65)scale(0.1 -0.1)">
       <use xlink:href="#DejaVuSans-50"/>
       <use x="63.623047" xlink:href="#DejaVuSans-48"/>
       <use x="127.246094" xlink:href="#DejaVuSans-49"/>
       <use x="190.869141" xlink:href="#DejaVuSans-57"/>
       <use x="254.492188" xlink:href="#DejaVuSans-45"/>
       <use x="290.576172" xlink:href="#DejaVuSans-48"/>
       <use x="354.199219" xlink:href="#DejaVuSans-49"/>
      </g>
     </g>
    </g>
    <g id="xtick_6">
     <g id="line2d_11">
      <path clip-path="url(#p843d4e759e)" d="M 217.096903 403.2 
L 217.096903 60.48 
" style="fill:none;stroke:#eeeeee;stroke-linecap:square;stroke-width:0.8;"/>
     </g>
     <g id="line2d_12">
      <g>
       <use style="stroke:#000000;stroke-width:0.8;" x="217.096903" xlink:href="#mf1d265122e" y="403.2"/>
      </g>
     </g>
     <g id="text_6">
      <!-- 2019-02 -->
      <g transform="translate(197.553887 451.279327)rotate(-65)scale(0.1 -0.1)">
       <use xlink:href="#DejaVuSans-50"/>
       <use x="63.623047" xlink:href="#DejaVuSans-48"/>
       <use x="127.246094" xlink:href="#DejaVuSans-49"/>
       <use x="190.869141" xlink:href="#DejaVuSans-57"/>
       <use x="254.492188" xlink:href="#DejaVuSans-45"/>
       <use x="290.576172" xlink:href="#DejaVuSans-48"/>
       <use x="354.199219" xlink:href="#DejaVuSans-50"/>
      </g>
     </g>
    </g>
    <g id="xtick_7">
     <g id="line2d_13">
      <path clip-path="url(#p843d4e759e)" d="M 236.607393 403.2 
L 236.607393 60.48 
" style="fill:none;stroke:#eeeeee;stroke-linecap:square;stroke-width:0.8;"/>
     </g>
     <g id="line2d_14">
      <g>
       <use style="stroke:#000000;stroke-width:0.8;" x="236.607393" xlink:href="#mf1d265122e" y="403.2"/>
      </g>
     </g>
     <g id="text_7">
      <!-- 2019-03 -->
      <g transform="translate(217.064376 451.279327)rotate(-65)scale(0.1 -0.1)">
       <defs>
        <path d="M 40.578125 39.3125 
Q 47.65625 37.796875 51.625 33 
Q 55.609375 28.21875 55.609375 21.1875 
Q 55.609375 10.40625 48.1875 4.484375 
Q 40.765625 -1.421875 27.09375 -1.421875 
Q 22.515625 -1.421875 17.65625 -0.515625 
Q 12.796875 0.390625 7.625 2.203125 
L 7.625 11.71875 
Q 11.71875 9.328125 16.59375 8.109375 
Q 21.484375 6.890625 26.8125 6.890625 
Q 36.078125 6.890625 40.9375 10.546875 
Q 45.796875 14.203125 45.796875 21.1875 
Q 45.796875 27.640625 41.28125 31.265625 
Q 36.765625 34.90625 28.71875 34.90625 
L 20.21875 34.90625 
L 20.21875 43.015625 
L 29.109375 43.015625 
Q 36.375 43.015625 40.234375 45.921875 
Q 44.09375 48.828125 44.09375 54.296875 
Q 44.09375 59.90625 40.109375 62.90625 
Q 36.140625 65.921875 28.71875 65.921875 
Q 24.65625 65.921875 20.015625 65.03125 
Q 15.375 64.15625 9.8125 62.3125 
L 9.8125 71.09375 
Q 15.4375 72.65625 20.34375 73.4375 
Q 25.25 74.21875 29.59375 74.21875 
Q 40.828125 74.21875 47.359375 69.109375 
Q 53.90625 64.015625 53.90625 55.328125 
Q 53.90625 49.265625 50.4375 45.09375 
Q 46.96875 40.921875 40.578125 39.3125 
z
" id="DejaVuSans-51"/>
       </defs>
       <use xlink:href="#DejaVuSans-50"/>
       <use x="63.623047" xlink:href="#DejaVuSans-48"/>
       <use x="127.246094" xlink:href="#DejaVuSans-49"/>
       <use x="190.869141" xlink:href="#DejaVuSans-57"/>
       <use x="254.492188" xlink:href="#DejaVuSans-45"/>
       <use x="290.576172" xlink:href="#DejaVuSans-48"/>
       <use x="354.199219" xlink:href="#DejaVuSans-51"/>
      </g>
     </g>
    </g>
    <g id="xtick_8">
     <g id="line2d_15">
      <path clip-path="url(#p843d4e759e)" d="M 258.208292 403.2 
L 258.208292 60.48 
" style="fill:none;stroke:#eeeeee;stroke-linecap:square;stroke-width:0.8;"/>
     </g>
     <g id="line2d_16">
      <g>
       <use style="stroke:#000000;stroke-width:0.8;" x="258.208292" xlink:href="#mf1d265122e" y="403.2"/>
      </g>
     </g>
     <g id="text_8">
      <!-- 2019-04 -->
      <g transform="translate(238.665275 451.279327)rotate(-65)scale(0.1 -0.1)">
       <defs>
        <path d="M 37.796875 64.3125 
L 12.890625 25.390625 
L 37.796875 25.390625 
z
M 35.203125 72.90625 
L 47.609375 72.90625 
L 47.609375 25.390625 
L 58.015625 25.390625 
L 58.015625 17.1875 
L 47.609375 17.1875 
L 47.609375 0 
L 37.796875 0 
L 37.796875 17.1875 
L 4.890625 17.1875 
L 4.890625 26.703125 
z
" id="DejaVuSans-52"/>
       </defs>
       <use xlink:href="#DejaVuSans-50"/>
       <use x="63.623047" xlink:href="#DejaVuSans-48"/>
       <use x="127.246094" xlink:href="#DejaVuSans-49"/>
       <use x="190.869141" xlink:href="#DejaVuSans-57"/>
       <use x="254.492188" xlink:href="#DejaVuSans-45"/>
       <use x="290.576172" xlink:href="#DejaVuSans-48"/>
       <use x="354.199219" xlink:href="#DejaVuSans-52"/>
      </g>
     </g>
    </g>
    <g id="xtick_9">
     <g id="line2d_17">
      <path clip-path="url(#p843d4e759e)" d="M 279.112388 403.2 
L 279.112388 60.48 
" style="fill:none;stroke:#eeeeee;stroke-linecap:square;stroke-width:0.8;"/>
     </g>
     <g id="line2d_18">
      <g>
       <use style="stroke:#000000;stroke-width:0.8;" x="279.112388" xlink:href="#mf1d265122e" y="403.2"/>
      </g>
     </g>
     <g id="text_9">
      <!-- 2019-05 -->
      <g transform="translate(259.569371 451.279327)rotate(-65)scale(0.1 -0.1)">
       <defs>
        <path d="M 10.796875 72.90625 
L 49.515625 72.90625 
L 49.515625 64.59375 
L 19.828125 64.59375 
L 19.828125 46.734375 
Q 21.96875 47.46875 24.109375 47.828125 
Q 26.265625 48.1875 28.421875 48.1875 
Q 40.625 48.1875 47.75 41.5 
Q 54.890625 34.8125 54.890625 23.390625 
Q 54.890625 11.625 47.5625 5.09375 
Q 40.234375 -1.421875 26.90625 -1.421875 
Q 22.3125 -1.421875 17.546875 -0.640625 
Q 12.796875 0.140625 7.71875 1.703125 
L 7.71875 11.625 
Q 12.109375 9.234375 16.796875 8.0625 
Q 21.484375 6.890625 26.703125 6.890625 
Q 35.15625 6.890625 40.078125 11.328125 
Q 45.015625 15.765625 45.015625 23.390625 
Q 45.015625 31 40.078125 35.4375 
Q 35.15625 39.890625 26.703125 39.890625 
Q 22.75 39.890625 18.8125 39.015625 
Q 14.890625 38.140625 10.796875 36.28125 
z
" id="DejaVuSans-53"/>
       </defs>
       <use xlink:href="#DejaVuSans-50"/>
       <use x="63.623047" xlink:href="#DejaVuSans-48"/>
       <use x="127.246094" xlink:href="#DejaVuSans-49"/>
       <use x="190.869141" xlink:href="#DejaVuSans-57"/>
       <use x="254.492188" xlink:href="#DejaVuSans-45"/>
       <use x="290.576172" xlink:href="#DejaVuSans-48"/>
       <use x="354.199219" xlink:href="#DejaVuSans-53"/>
      </g>
     </g>
    </g>
    <g id="xtick_10">
     <g id="line2d_19">
      <path clip-path="url(#p843d4e759e)" d="M 300.713287 403.2 
L 300.713287 60.48 
" style="fill:none;stroke:#eeeeee;stroke-linecap:square;stroke-width:0.8;"/>
     </g>
     <g id="line2d_20">
      <g>
       <use style="stroke:#000000;stroke-width:0.8;" x="300.713287" xlink:href="#mf1d265122e" y="403.2"/>
      </g>
     </g>
     <g id="text_10">
      <!-- 2019-06 -->
      <g transform="translate(281.17027 451.279327)rotate(-65)scale(0.1 -0.1)">
       <defs>
        <path d="M 33.015625 40.375 
Q 26.375 40.375 22.484375 35.828125 
Q 18.609375 31.296875 18.609375 23.390625 
Q 18.609375 15.53125 22.484375 10.953125 
Q 26.375 6.390625 33.015625 6.390625 
Q 39.65625 6.390625 43.53125 10.953125 
Q 47.40625 15.53125 47.40625 23.390625 
Q 47.40625 31.296875 43.53125 35.828125 
Q 39.65625 40.375 33.015625 40.375 
z
M 52.59375 71.296875 
L 52.59375 62.3125 
Q 48.875 64.0625 45.09375 64.984375 
Q 41.3125 65.921875 37.59375 65.921875 
Q 27.828125 65.921875 22.671875 59.328125 
Q 17.53125 52.734375 16.796875 39.40625 
Q 19.671875 43.65625 24.015625 45.921875 
Q 28.375 48.1875 33.59375 48.1875 
Q 44.578125 48.1875 50.953125 41.515625 
Q 57.328125 34.859375 57.328125 23.390625 
Q 57.328125 12.15625 50.6875 5.359375 
Q 44.046875 -1.421875 33.015625 -1.421875 
Q 20.359375 -1.421875 13.671875 8.265625 
Q 6.984375 17.96875 6.984375 36.375 
Q 6.984375 53.65625 15.1875 63.9375 
Q 23.390625 74.21875 37.203125 74.21875 
Q 40.921875 74.21875 44.703125 73.484375 
Q 48.484375 72.75 52.59375 71.296875 
z
" id="DejaVuSans-54"/>
       </defs>
       <use xlink:href="#DejaVuSans-50"/>
       <use x="63.623047" xlink:href="#DejaVuSans-48"/>
       <use x="127.246094" xlink:href="#DejaVuSans-49"/>
       <use x="190.869141" xlink:href="#DejaVuSans-57"/>
       <use x="254.492188" xlink:href="#DejaVuSans-45"/>
       <use x="290.576172" xlink:href="#DejaVuSans-48"/>
       <use x="354.199219" xlink:href="#DejaVuSans-54"/>
      </g>
     </g>
    </g>
    <g id="xtick_11">
     <g id="line2d_21">
      <path clip-path="url(#p843d4e759e)" d="M 321.617383 403.2 
L 321.617383 60.48 
" style="fill:none;stroke:#eeeeee;stroke-linecap:square;stroke-width:0.8;"/>
     </g>
     <g id="line2d_22">
      <g>
       <use style="stroke:#000000;stroke-width:0.8;" x="321.617383" xlink:href="#mf1d265122e" y="403.2"/>
      </g>
     </g>
     <g id="text_11">
      <!-- 2019-07 -->
      <g transform="translate(302.074366 451.279327)rotate(-65)scale(0.1 -0.1)">
       <defs>
        <path d="M 8.203125 72.90625 
L 55.078125 72.90625 
L 55.078125 68.703125 
L 28.609375 0 
L 18.3125 0 
L 43.21875 64.59375 
L 8.203125 64.59375 
z
" id="DejaVuSans-55"/>
       </defs>
       <use xlink:href="#DejaVuSans-50"/>
       <use x="63.623047" xlink:href="#DejaVuSans-48"/>
       <use x="127.246094" xlink:href="#DejaVuSans-49"/>
       <use x="190.869141" xlink:href="#DejaVuSans-57"/>
       <use x="254.492188" xlink:href="#DejaVuSans-45"/>
       <use x="290.576172" xlink:href="#DejaVuSans-48"/>
       <use x="354.199219" xlink:href="#DejaVuSans-55"/>
      </g>
     </g>
    </g>
    <g id="xtick_12">
     <g id="line2d_23">
      <path clip-path="url(#p843d4e759e)" d="M 343.218282 403.2 
L 343.218282 60.48 
" style="fill:none;stroke:#eeeeee;stroke-linecap:square;stroke-width:0.8;"/>
     </g>
     <g id="line2d_24">
      <g>
       <use style="stroke:#000000;stroke-width:0.8;" x="343.218282" xlink:href="#mf1d265122e" y="403.2"/>
      </g>
     </g>
     <g id="text_12">
      <!-- 2019-08 -->
      <g transform="translate(323.675265 451.279327)rotate(-65)scale(0.1 -0.1)">
       <use xlink:href="#DejaVuSans-50"/>
       <use x="63.623047" xlink:href="#DejaVuSans-48"/>
       <use x="127.246094" xlink:href="#DejaVuSans-49"/>
       <use x="190.869141" xlink:href="#DejaVuSans-57"/>
       <use x="254.492188" xlink:href="#DejaVuSans-45"/>
       <use x="290.576172" xlink:href="#DejaVuSans-48"/>
       <use x="354.199219" xlink:href="#DejaVuSans-56"/>
      </g>
     </g>
    </g>
    <g id="xtick_13">
     <g id="line2d_25">
      <path clip-path="url(#p843d4e759e)" d="M 364.819181 403.2 
L 364.819181 60.48 
" style="fill:none;stroke:#eeeeee;stroke-linecap:square;stroke-width:0.8;"/>
     </g>
     <g id="line2d_26">
      <g>
       <use style="stroke:#000000;stroke-width:0.8;" x="364.819181" xlink:href="#mf1d265122e" y="403.2"/>
      </g>
     </g>
     <g id="text_13">
      <!-- 2019-09 -->
      <g transform="translate(345.276164 451.279327)rotate(-65)scale(0.1 -0.1)">
       <use xlink:href="#DejaVuSans-50"/>
       <use x="63.623047" xlink:href="#DejaVuSans-48"/>
       <use x="127.246094" xlink:href="#DejaVuSans-49"/>
       <use x="190.869141" xlink:href="#DejaVuSans-57"/>
       <use x="254.492188" xlink:href="#DejaVuSans-45"/>
       <use x="290.576172" xlink:href="#DejaVuSans-48"/>
       <use x="354.199219" xlink:href="#DejaVuSans-57"/>
      </g>
     </g>
    </g>
    <g id="xtick_14">
     <g id="line2d_27">
      <path clip-path="url(#p843d4e759e)" d="M 385.723277 403.2 
L 385.723277 60.48 
" style="fill:none;stroke:#eeeeee;stroke-linecap:square;stroke-width:0.8;"/>
     </g>
     <g id="line2d_28">
      <g>
       <use style="stroke:#000000;stroke-width:0.8;" x="385.723277" xlink:href="#mf1d265122e" y="403.2"/>
      </g>
     </g>
     <g id="text_14">
      <!-- 2019-10 -->
      <g transform="translate(366.18026 451.279327)rotate(-65)scale(0.1 -0.1)">
       <use xlink:href="#DejaVuSans-50"/>
       <use x="63.623047" xlink:href="#DejaVuSans-48"/>
       <use x="127.246094" xlink:href="#DejaVuSans-49"/>
       <use x="190.869141" xlink:href="#DejaVuSans-57"/>
       <use x="254.492188" xlink:href="#DejaVuSans-45"/>
       <use x="290.576172" xlink:href="#DejaVuSans-49"/>
       <use x="354.199219" xlink:href="#DejaVuSans-48"/>
      </g>
     </g>
    </g>
    <g id="xtick_15">
     <g id="line2d_29">
      <path clip-path="url(#p843d4e759e)" d="M 407.324176 403.2 
L 407.324176 60.48 
" style="fill:none;stroke:#eeeeee;stroke-linecap:square;stroke-width:0.8;"/>
     </g>
     <g id="line2d_30">
      <g>
       <use style="stroke:#000000;stroke-width:0.8;" x="407.324176" xlink:href="#mf1d265122e" y="403.2"/>
      </g>
     </g>
     <g id="text_15">
      <!-- 2019-11 -->
      <g transform="translate(387.781159 451.279327)rotate(-65)scale(0.1 -0.1)">
       <use xlink:href="#DejaVuSans-50"/>
       <use x="63.623047" xlink:href="#DejaVuSans-48"/>
       <use x="127.246094" xlink:href="#DejaVuSans-49"/>
       <use x="190.869141" xlink:href="#DejaVuSans-57"/>
       <use x="254.492188" xlink:href="#DejaVuSans-45"/>
       <use x="290.576172" xlink:href="#DejaVuSans-49"/>
       <use x="354.199219" xlink:href="#DejaVuSans-49"/>
      </g>
     </g>
    </g>
    <g id="xtick_16">
     <g id="line2d_31">
      <path clip-path="url(#p843d4e759e)" d="M 428.228272 403.2 
L 428.228272 60.48 
" style="fill:none;stroke:#eeeeee;stroke-linecap:square;stroke-width:0.8;"/>
     </g>
     <g id="line2d_32">
      <g>
       <use style="stroke:#000000;stroke-width:0.8;" x="428.228272" xlink:href="#mf1d265122e" y="403.2"/>
      </g>
     </g>
     <g id="text_16">
      <!-- 2019-12 -->
      <g transform="translate(408.685255 451.279327)rotate(-65)scale(0.1 -0.1)">
       <use xlink:href="#DejaVuSans-50"/>
       <use x="63.623047" xlink:href="#DejaVuSans-48"/>
       <use x="127.246094" xlink:href="#DejaVuSans-49"/>
       <use x="190.869141" xlink:href="#DejaVuSans-57"/>
       <use x="254.492188" xlink:href="#DejaVuSans-45"/>
       <use x="290.576172" xlink:href="#DejaVuSans-49"/>
       <use x="354.199219" xlink:href="#DejaVuSans-50"/>
      </g>
     </g>
    </g>
    <g id="xtick_17">
     <g id="line2d_33">
      <path clip-path="url(#p843d4e759e)" d="M 449.829171 403.2 
L 449.829171 60.48 
" style="fill:none;stroke:#eeeeee;stroke-linecap:square;stroke-width:0.8;"/>
     </g>
     <g id="line2d_34">
      <g>
       <use style="stroke:#000000;stroke-width:0.8;" x="449.829171" xlink:href="#mf1d265122e" y="403.2"/>
      </g>
     </g>
     <g id="text_17">
      <!-- 2020-01 -->
      <g transform="translate(430.286154 451.279327)rotate(-65)scale(0.1 -0.1)">
       <use xlink:href="#DejaVuSans-50"/>
       <use x="63.623047" xlink:href="#DejaVuSans-48"/>
       <use x="127.246094" xlink:href="#DejaVuSans-50"/>
       <use x="190.869141" xlink:href="#DejaVuSans-48"/>
       <use x="254.492188" xlink:href="#DejaVuSans-45"/>
       <use x="290.576172" xlink:href="#DejaVuSans-48"/>
       <use x="354.199219" xlink:href="#DejaVuSans-49"/>
      </g>
     </g>
    </g>
    <g id="xtick_18">
     <g id="line2d_35">
      <path clip-path="url(#p843d4e759e)" d="M 471.43007 403.2 
L 471.43007 60.48 
" style="fill:none;stroke:#eeeeee;stroke-linecap:square;stroke-width:0.8;"/>
     </g>
     <g id="line2d_36">
      <g>
       <use style="stroke:#000000;stroke-width:0.8;" x="471.43007" xlink:href="#mf1d265122e" y="403.2"/>
      </g>
     </g>
     <g id="text_18">
      <!-- 2020-02 -->
      <g transform="translate(451.887053 451.279327)rotate(-65)scale(0.1 -0.1)">
       <use xlink:href="#DejaVuSans-50"/>
       <use x="63.623047" xlink:href="#DejaVuSans-48"/>
       <use x="127.246094" xlink:href="#DejaVuSans-50"/>
       <use x="190.869141" xlink:href="#DejaVuSans-48"/>
       <use x="254.492188" xlink:href="#DejaVuSans-45"/>
       <use x="290.576172" xlink:href="#DejaVuSans-48"/>
       <use x="354.199219" xlink:href="#DejaVuSans-50"/>
      </g>
     </g>
    </g>
    <g id="xtick_19">
     <g id="line2d_37">
      <path clip-path="url(#p843d4e759e)" d="M 491.637363 403.2 
L 491.637363 60.48 
" style="fill:none;stroke:#eeeeee;stroke-linecap:square;stroke-width:0.8;"/>
     </g>
     <g id="line2d_38">
      <g>
       <use style="stroke:#000000;stroke-width:0.8;" x="491.637363" xlink:href="#mf1d265122e" y="403.2"/>
      </g>
     </g>
     <g id="text_19">
      <!-- 2020-03 -->
      <g transform="translate(472.094346 451.279327)rotate(-65)scale(0.1 -0.1)">
       <use xlink:href="#DejaVuSans-50"/>
       <use x="63.623047" xlink:href="#DejaVuSans-48"/>
       <use x="127.246094" xlink:href="#DejaVuSans-50"/>
       <use x="190.869141" xlink:href="#DejaVuSans-48"/>
       <use x="254.492188" xlink:href="#DejaVuSans-45"/>
       <use x="290.576172" xlink:href="#DejaVuSans-48"/>
       <use x="354.199219" xlink:href="#DejaVuSans-51"/>
      </g>
     </g>
    </g>
    <g id="xtick_20">
     <g id="line2d_39">
      <path clip-path="url(#p843d4e759e)" d="M 513.238262 403.2 
L 513.238262 60.48 
" style="fill:none;stroke:#eeeeee;stroke-linecap:square;stroke-width:0.8;"/>
     </g>
     <g id="line2d_40">
      <g>
       <use style="stroke:#000000;stroke-width:0.8;" x="513.238262" xlink:href="#mf1d265122e" y="403.2"/>
      </g>
     </g>
     <g id="text_20">
      <!-- 2020-04 -->
      <g transform="translate(493.695245 451.279327)rotate(-65)scale(0.1 -0.1)">
       <use xlink:href="#DejaVuSans-50"/>
       <use x="63.623047" xlink:href="#DejaVuSans-48"/>
       <use x="127.246094" xlink:href="#DejaVuSans-50"/>
       <use x="190.869141" xlink:href="#DejaVuSans-48"/>
       <use x="254.492188" xlink:href="#DejaVuSans-45"/>
       <use x="290.576172" xlink:href="#DejaVuSans-48"/>
       <use x="354.199219" xlink:href="#DejaVuSans-52"/>
      </g>
     </g>
    </g>
    <g id="xtick_21">
     <g id="line2d_41">
      <path clip-path="url(#p843d4e759e)" d="M 534.142358 403.2 
L 534.142358 60.48 
" style="fill:none;stroke:#eeeeee;stroke-linecap:square;stroke-width:0.8;"/>
     </g>
     <g id="line2d_42">
      <g>
       <use style="stroke:#000000;stroke-width:0.8;" x="534.142358" xlink:href="#mf1d265122e" y="403.2"/>
      </g>
     </g>
     <g id="text_21">
      <!-- 2020-05 -->
      <g transform="translate(514.599341 451.279327)rotate(-65)scale(0.1 -0.1)">
       <use xlink:href="#DejaVuSans-50"/>
       <use x="63.623047" xlink:href="#DejaVuSans-48"/>
       <use x="127.246094" xlink:href="#DejaVuSans-50"/>
       <use x="190.869141" xlink:href="#DejaVuSans-48"/>
       <use x="254.492188" xlink:href="#DejaVuSans-45"/>
       <use x="290.576172" xlink:href="#DejaVuSans-48"/>
       <use x="354.199219" xlink:href="#DejaVuSans-53"/>
      </g>
     </g>
    </g>
    <g id="xtick_22">
     <g id="line2d_43">
      <path clip-path="url(#p843d4e759e)" d="M 555.743257 403.2 
L 555.743257 60.48 
" style="fill:none;stroke:#eeeeee;stroke-linecap:square;stroke-width:0.8;"/>
     </g>
     <g id="line2d_44">
      <g>
       <use style="stroke:#000000;stroke-width:0.8;" x="555.743257" xlink:href="#mf1d265122e" y="403.2"/>
      </g>
     </g>
     <g id="text_22">
      <!-- 2020-06 -->
      <g transform="translate(536.20024 451.279327)rotate(-65)scale(0.1 -0.1)">
       <use xlink:href="#DejaVuSans-50"/>
       <use x="63.623047" xlink:href="#DejaVuSans-48"/>
       <use x="127.246094" xlink:href="#DejaVuSans-50"/>
       <use x="190.869141" xlink:href="#DejaVuSans-48"/>
       <use x="254.492188" xlink:href="#DejaVuSans-45"/>
       <use x="290.576172" xlink:href="#DejaVuSans-48"/>
       <use x="354.199219" xlink:href="#DejaVuSans-54"/>
      </g>
     </g>
    </g>
    <g id="xtick_23">
     <g id="line2d_45">
      <path clip-path="url(#p843d4e759e)" d="M 576.647353 403.2 
L 576.647353 60.48 
" style="fill:none;stroke:#eeeeee;stroke-linecap:square;stroke-width:0.8;"/>
     </g>
     <g id="line2d_46">
      <g>
       <use style="stroke:#000000;stroke-width:0.8;" x="576.647353" xlink:href="#mf1d265122e" y="403.2"/>
      </g>
     </g>
     <g id="text_23">
      <!-- 2020-07 -->
      <g transform="translate(557.104336 451.279327)rotate(-65)scale(0.1 -0.1)">
       <use xlink:href="#DejaVuSans-50"/>
       <use x="63.623047" xlink:href="#DejaVuSans-48"/>
       <use x="127.246094" xlink:href="#DejaVuSans-50"/>
       <use x="190.869141" xlink:href="#DejaVuSans-48"/>
       <use x="254.492188" xlink:href="#DejaVuSans-45"/>
       <use x="290.576172" xlink:href="#DejaVuSans-48"/>
       <use x="354.199219" xlink:href="#DejaVuSans-55"/>
      </g>
     </g>
    </g>
    <g id="xtick_24">
     <g id="line2d_47">
      <path clip-path="url(#p843d4e759e)" d="M 598.248252 403.2 
L 598.248252 60.48 
" style="fill:none;stroke:#eeeeee;stroke-linecap:square;stroke-width:0.8;"/>
     </g>
     <g id="line2d_48">
      <g>
       <use style="stroke:#000000;stroke-width:0.8;" x="598.248252" xlink:href="#mf1d265122e" y="403.2"/>
      </g>
     </g>
     <g id="text_24">
      <!-- 2020-08 -->
      <g transform="translate(578.705235 451.279327)rotate(-65)scale(0.1 -0.1)">
       <use xlink:href="#DejaVuSans-50"/>
       <use x="63.623047" xlink:href="#DejaVuSans-48"/>
       <use x="127.246094" xlink:href="#DejaVuSans-50"/>
       <use x="190.869141" xlink:href="#DejaVuSans-48"/>
       <use x="254.492188" xlink:href="#DejaVuSans-45"/>
       <use x="290.576172" xlink:href="#DejaVuSans-48"/>
       <use x="354.199219" xlink:href="#DejaVuSans-56"/>
      </g>
     </g>
    </g>
    <g id="xtick_25">
     <g id="line2d_49">
      <path clip-path="url(#p843d4e759e)" d="M 619.849151 403.2 
L 619.849151 60.48 
" style="fill:none;stroke:#eeeeee;stroke-linecap:square;stroke-width:0.8;"/>
     </g>
     <g id="line2d_50">
      <g>
       <use style="stroke:#000000;stroke-width:0.8;" x="619.849151" xlink:href="#mf1d265122e" y="403.2"/>
      </g>
     </g>
     <g id="text_25">
      <!-- 2020-09 -->
      <g transform="translate(600.306134 451.279327)rotate(-65)scale(0.1 -0.1)">
       <use xlink:href="#DejaVuSans-50"/>
       <use x="63.623047" xlink:href="#DejaVuSans-48"/>
       <use x="127.246094" xlink:href="#DejaVuSans-50"/>
       <use x="190.869141" xlink:href="#DejaVuSans-48"/>
       <use x="254.492188" xlink:href="#DejaVuSans-45"/>
       <use x="290.576172" xlink:href="#DejaVuSans-48"/>
       <use x="354.199219" xlink:href="#DejaVuSans-57"/>
      </g>
     </g>
    </g>
    <g id="xtick_26">
     <g id="line2d_51">
      <path clip-path="url(#p843d4e759e)" d="M 640.753247 403.2 
L 640.753247 60.48 
" style="fill:none;stroke:#eeeeee;stroke-linecap:square;stroke-width:0.8;"/>
     </g>
     <g id="line2d_52">
      <g>
       <use style="stroke:#000000;stroke-width:0.8;" x="640.753247" xlink:href="#mf1d265122e" y="403.2"/>
      </g>
     </g>
     <g id="text_26">
      <!-- 2020-10 -->
      <g transform="translate(621.21023 451.279327)rotate(-65)scale(0.1 -0.1)">
       <use xlink:href="#DejaVuSans-50"/>
       <use x="63.623047" xlink:href="#DejaVuSans-48"/>
       <use x="127.246094" xlink:href="#DejaVuSans-50"/>
       <use x="190.869141" xlink:href="#DejaVuSans-48"/>
       <use x="254.492188" xlink:href="#DejaVuSans-45"/>
       <use x="290.576172" xlink:href="#DejaVuSans-49"/>
       <use x="354.199219" xlink:href="#DejaVuSans-48"/>
      </g>
     </g>
    </g>
   </g>
   <g id="matplotlib.axis_2">
    <g id="ytick_1">
     <g id="line2d_53">
      <path clip-path="url(#p843d4e759e)" d="M 90 375.339187 
L 648 375.339187 
" style="fill:none;stroke:#eeeeee;stroke-linecap:square;stroke-width:0.8;"/>
     </g>
     <g id="line2d_54">
      <defs>
       <path d="M 0 0 
L -3.5 0 
" id="m2e0c57ab8c" style="stroke:#000000;stroke-width:0.8;"/>
      </defs>
      <g>
       <use style="stroke:#000000;stroke-width:0.8;" x="90" xlink:href="#m2e0c57ab8c" y="375.339187"/>
      </g>
     </g>
     <g id="text_27">
      <!-- 5.0 -->
      <g transform="translate(67.096875 379.138406)scale(0.1 -0.1)">
       <defs>
        <path d="M 10.6875 12.40625 
L 21 12.40625 
L 21 0 
L 10.6875 0 
z
" id="DejaVuSans-46"/>
       </defs>
       <use xlink:href="#DejaVuSans-53"/>
       <use x="63.623047" xlink:href="#DejaVuSans-46"/>
       <use x="95.410156" xlink:href="#DejaVuSans-48"/>
      </g>
     </g>
    </g>
    <g id="ytick_2">
     <g id="line2d_55">
      <path clip-path="url(#p843d4e759e)" d="M 90 332.090487 
L 648 332.090487 
" style="fill:none;stroke:#eeeeee;stroke-linecap:square;stroke-width:0.8;"/>
     </g>
     <g id="line2d_56">
      <g>
       <use style="stroke:#000000;stroke-width:0.8;" x="90" xlink:href="#m2e0c57ab8c" y="332.090487"/>
      </g>
     </g>
     <g id="text_28">
      <!-- 7.5 -->
      <g transform="translate(67.096875 335.889706)scale(0.1 -0.1)">
       <use xlink:href="#DejaVuSans-55"/>
       <use x="63.623047" xlink:href="#DejaVuSans-46"/>
       <use x="95.410156" xlink:href="#DejaVuSans-53"/>
      </g>
     </g>
    </g>
    <g id="ytick_3">
     <g id="line2d_57">
      <path clip-path="url(#p843d4e759e)" d="M 90 288.841787 
L 648 288.841787 
" style="fill:none;stroke:#eeeeee;stroke-linecap:square;stroke-width:0.8;"/>
     </g>
     <g id="line2d_58">
      <g>
       <use style="stroke:#000000;stroke-width:0.8;" x="90" xlink:href="#m2e0c57ab8c" y="288.841787"/>
      </g>
     </g>
     <g id="text_29">
      <!-- 10.0 -->
      <g transform="translate(60.734375 292.641006)scale(0.1 -0.1)">
       <use xlink:href="#DejaVuSans-49"/>
       <use x="63.623047" xlink:href="#DejaVuSans-48"/>
       <use x="127.246094" xlink:href="#DejaVuSans-46"/>
       <use x="159.033203" xlink:href="#DejaVuSans-48"/>
      </g>
     </g>
    </g>
    <g id="ytick_4">
     <g id="line2d_59">
      <path clip-path="url(#p843d4e759e)" d="M 90 245.593087 
L 648 245.593087 
" style="fill:none;stroke:#eeeeee;stroke-linecap:square;stroke-width:0.8;"/>
     </g>
     <g id="line2d_60">
      <g>
       <use style="stroke:#000000;stroke-width:0.8;" x="90" xlink:href="#m2e0c57ab8c" y="245.593087"/>
      </g>
     </g>
     <g id="text_30">
      <!-- 12.5 -->
      <g transform="translate(60.734375 249.392305)scale(0.1 -0.1)">
       <use xlink:href="#DejaVuSans-49"/>
       <use x="63.623047" xlink:href="#DejaVuSans-50"/>
       <use x="127.246094" xlink:href="#DejaVuSans-46"/>
       <use x="159.033203" xlink:href="#DejaVuSans-53"/>
      </g>
     </g>
    </g>
    <g id="ytick_5">
     <g id="line2d_61">
      <path clip-path="url(#p843d4e759e)" d="M 90 202.344386 
L 648 202.344386 
" style="fill:none;stroke:#eeeeee;stroke-linecap:square;stroke-width:0.8;"/>
     </g>
     <g id="line2d_62">
      <g>
       <use style="stroke:#000000;stroke-width:0.8;" x="90" xlink:href="#m2e0c57ab8c" y="202.344386"/>
      </g>
     </g>
     <g id="text_31">
      <!-- 15.0 -->
      <g transform="translate(60.734375 206.143605)scale(0.1 -0.1)">
       <use xlink:href="#DejaVuSans-49"/>
       <use x="63.623047" xlink:href="#DejaVuSans-53"/>
       <use x="127.246094" xlink:href="#DejaVuSans-46"/>
       <use x="159.033203" xlink:href="#DejaVuSans-48"/>
      </g>
     </g>
    </g>
    <g id="ytick_6">
     <g id="line2d_63">
      <path clip-path="url(#p843d4e759e)" d="M 90 159.095686 
L 648 159.095686 
" style="fill:none;stroke:#eeeeee;stroke-linecap:square;stroke-width:0.8;"/>
     </g>
     <g id="line2d_64">
      <g>
       <use style="stroke:#000000;stroke-width:0.8;" x="90" xlink:href="#m2e0c57ab8c" y="159.095686"/>
      </g>
     </g>
     <g id="text_32">
      <!-- 17.5 -->
      <g transform="translate(60.734375 162.894905)scale(0.1 -0.1)">
       <use xlink:href="#DejaVuSans-49"/>
       <use x="63.623047" xlink:href="#DejaVuSans-55"/>
       <use x="127.246094" xlink:href="#DejaVuSans-46"/>
       <use x="159.033203" xlink:href="#DejaVuSans-53"/>
      </g>
     </g>
    </g>
    <g id="ytick_7">
     <g id="line2d_65">
      <path clip-path="url(#p843d4e759e)" d="M 90 115.846986 
L 648 115.846986 
" style="fill:none;stroke:#eeeeee;stroke-linecap:square;stroke-width:0.8;"/>
     </g>
     <g id="line2d_66">
      <g>
       <use style="stroke:#000000;stroke-width:0.8;" x="90" xlink:href="#m2e0c57ab8c" y="115.846986"/>
      </g>
     </g>
     <g id="text_33">
      <!-- 20.0 -->
      <g transform="translate(60.734375 119.646205)scale(0.1 -0.1)">
       <use xlink:href="#DejaVuSans-50"/>
       <use x="63.623047" xlink:href="#DejaVuSans-48"/>
       <use x="127.246094" xlink:href="#DejaVuSans-46"/>
       <use x="159.033203" xlink:href="#DejaVuSans-48"/>
      </g>
     </g>
    </g>
    <g id="ytick_8">
     <g id="line2d_67">
      <path clip-path="url(#p843d4e759e)" d="M 90 72.598286 
L 648 72.598286 
" style="fill:none;stroke:#eeeeee;stroke-linecap:square;stroke-width:0.8;"/>
     </g>
     <g id="line2d_68">
      <g>
       <use style="stroke:#000000;stroke-width:0.8;" x="90" xlink:href="#m2e0c57ab8c" y="72.598286"/>
      </g>
     </g>
     <g id="text_34">
      <!-- 22.5 -->
      <g transform="translate(60.734375 76.397505)scale(0.1 -0.1)">
       <use xlink:href="#DejaVuSans-50"/>
       <use x="63.623047" xlink:href="#DejaVuSans-50"/>
       <use x="127.246094" xlink:href="#DejaVuSans-46"/>
       <use x="159.033203" xlink:href="#DejaVuSans-53"/>
      </g>
     </g>
    </g>
    <g id="text_35">
     <!-- kWh -->
     <g transform="translate(54.654688 242.847813)rotate(-90)scale(0.1 -0.1)">
      <defs>
       <path d="M 9.078125 75.984375 
L 18.109375 75.984375 
L 18.109375 31.109375 
L 44.921875 54.6875 
L 56.390625 54.6875 
L 27.390625 29.109375 
L 57.625 0 
L 45.90625 0 
L 18.109375 26.703125 
L 18.109375 0 
L 9.078125 0 
z
" id="DejaVuSans-107"/>
       <path d="M 3.328125 72.90625 
L 13.28125 72.90625 
L 28.609375 11.28125 
L 43.890625 72.90625 
L 54.984375 72.90625 
L 70.3125 11.28125 
L 85.59375 72.90625 
L 95.609375 72.90625 
L 77.296875 0 
L 64.890625 0 
L 49.515625 63.28125 
L 33.984375 0 
L 21.578125 0 
z
" id="DejaVuSans-87"/>
       <path d="M 54.890625 33.015625 
L 54.890625 0 
L 45.90625 0 
L 45.90625 32.71875 
Q 45.90625 40.484375 42.875 44.328125 
Q 39.84375 48.1875 33.796875 48.1875 
Q 26.515625 48.1875 22.3125 43.546875 
Q 18.109375 38.921875 18.109375 30.90625 
L 18.109375 0 
L 9.078125 0 
L 9.078125 75.984375 
L 18.109375 75.984375 
L 18.109375 46.1875 
Q 21.34375 51.125 25.703125 53.5625 
Q 30.078125 56 35.796875 56 
Q 45.21875 56 50.046875 50.171875 
Q 54.890625 44.34375 54.890625 33.015625 
z
" id="DejaVuSans-104"/>
      </defs>
      <use xlink:href="#DejaVuSans-107"/>
      <use x="57.910156" xlink:href="#DejaVuSans-87"/>
      <use x="156.787109" xlink:href="#DejaVuSans-104"/>
     </g>
    </g>
   </g>
   <g id="PathCollection_1">
    <defs>
     <path d="M 0 3 
C 0.795609 3 1.55874 2.683901 2.12132 2.12132 
C 2.683901 1.55874 3 0.795609 3 0 
C 3 -0.795609 2.683901 -1.55874 2.12132 -2.12132 
C 1.55874 -2.683901 0.795609 -3 0 -3 
C -0.795609 -3 -1.55874 -2.683901 -2.12132 -2.12132 
C -2.683901 -1.55874 -3 -0.795609 -3 0 
C -3 0.795609 -2.683901 1.55874 -2.12132 2.12132 
C -1.55874 2.683901 -0.795609 3 0 3 
z
" id="mb73bee69fb" style="stroke:#1f77b4;"/>
    </defs>
    <g clip-path="url(#p843d4e759e)">
     <use style="fill:#1f77b4;stroke:#1f77b4;" x="115.363636" xlink:href="#mb73bee69fb" y="182.622979"/>
     <use style="fill:#1f77b4;stroke:#1f77b4;" x="120.241259" xlink:href="#mb73bee69fb" y="173.454255"/>
     <use style="fill:#1f77b4;stroke:#1f77b4;" x="125.118881" xlink:href="#mb73bee69fb" y="182.622979"/>
     <use style="fill:#1f77b4;stroke:#1f77b4;" x="129.996503" xlink:href="#mb73bee69fb" y="219.643867"/>
     <use style="fill:#1f77b4;stroke:#1f77b4;" x="134.874126" xlink:href="#mb73bee69fb" y="273.964234"/>
     <use style="fill:#1f77b4;stroke:#1f77b4;" x="139.751748" xlink:href="#mb73bee69fb" y="266.179468"/>
     <use style="fill:#1f77b4;stroke:#1f77b4;" x="144.629371" xlink:href="#mb73bee69fb" y="250.609936"/>
     <use style="fill:#1f77b4;stroke:#1f77b4;" x="149.506993" xlink:href="#mb73bee69fb" y="275.175198"/>
     <use style="fill:#1f77b4;stroke:#1f77b4;" x="154.384615" xlink:href="#mb73bee69fb" y="289.360771"/>
     <use style="fill:#1f77b4;stroke:#1f77b4;" x="159.262238" xlink:href="#mb73bee69fb" y="296.972543"/>
     <use style="fill:#1f77b4;stroke:#1f77b4;" x="164.13986" xlink:href="#mb73bee69fb" y="331.052518"/>
     <use style="fill:#1f77b4;stroke:#1f77b4;" x="169.017483" xlink:href="#mb73bee69fb" y="364.440515"/>
     <use style="fill:#1f77b4;stroke:#1f77b4;" x="173.895105" xlink:href="#mb73bee69fb" y="360.461634"/>
     <use style="fill:#1f77b4;stroke:#1f77b4;" x="178.772727" xlink:href="#mb73bee69fb" y="343.162154"/>
     <use style="fill:#1f77b4;stroke:#1f77b4;" x="183.65035" xlink:href="#mb73bee69fb" y="357.866712"/>
     <use style="fill:#1f77b4;stroke:#1f77b4;" x="188.527972" xlink:href="#mb73bee69fb" y="380.356037"/>
     <use style="fill:#1f77b4;stroke:#1f77b4;" x="193.405594" xlink:href="#mb73bee69fb" y="330.879523"/>
     <use style="fill:#1f77b4;stroke:#1f77b4;" x="198.283217" xlink:href="#mb73bee69fb" y="313.580043"/>
     <use style="fill:#1f77b4;stroke:#1f77b4;" x="203.160839" xlink:href="#mb73bee69fb" y="387.621818"/>
     <use style="fill:#1f77b4;stroke:#1f77b4;" x="208.038462" xlink:href="#mb73bee69fb" y="380.356037"/>
     <use style="fill:#1f77b4;stroke:#1f77b4;" x="212.916084" xlink:href="#mb73bee69fb" y="308.563194"/>
     <use style="fill:#1f77b4;stroke:#1f77b4;" x="217.793706" xlink:href="#mb73bee69fb" y="335.377388"/>
     <use style="fill:#1f77b4;stroke:#1f77b4;" x="222.671329" xlink:href="#mb73bee69fb" y="323.440747"/>
     <use style="fill:#1f77b4;stroke:#1f77b4;" x="227.548951" xlink:href="#mb73bee69fb" y="335.723378"/>
     <use style="fill:#1f77b4;stroke:#1f77b4;" x="232.426573" xlink:href="#mb73bee69fb" y="244.382123"/>
     <use style="fill:#1f77b4;stroke:#1f77b4;" x="237.304196" xlink:href="#mb73bee69fb" y="321.01882"/>
     <use style="fill:#1f77b4;stroke:#1f77b4;" x="242.181818" xlink:href="#mb73bee69fb" y="301.989392"/>
     <use style="fill:#1f77b4;stroke:#1f77b4;" x="247.059441" xlink:href="#mb73bee69fb" y="217.221939"/>
     <use style="fill:#1f77b4;stroke:#1f77b4;" x="251.937063" xlink:href="#mb73bee69fb" y="229.50457"/>
     <use style="fill:#1f77b4;stroke:#1f77b4;" x="256.814685" xlink:href="#mb73bee69fb" y="218.086913"/>
     <use style="fill:#1f77b4;stroke:#1f77b4;" x="261.692308" xlink:href="#mb73bee69fb" y="266.525458"/>
     <use style="fill:#1f77b4;stroke:#1f77b4;" x="266.56993" xlink:href="#mb73bee69fb" y="177.087146"/>
     <use style="fill:#1f77b4;stroke:#1f77b4;" x="271.447552" xlink:href="#mb73bee69fb" y="140.066258"/>
     <use style="fill:#1f77b4;stroke:#1f77b4;" x="276.325175" xlink:href="#mb73bee69fb" y="105.467298"/>
     <use style="fill:#1f77b4;stroke:#1f77b4;" x="281.202797" xlink:href="#mb73bee69fb" y="120.863835"/>
     <use style="fill:#1f77b4;stroke:#1f77b4;" x="286.08042" xlink:href="#mb73bee69fb" y="145.429097"/>
     <use style="fill:#1f77b4;stroke:#1f77b4;" x="290.958042" xlink:href="#mb73bee69fb" y="202.517381"/>
     <use style="fill:#1f77b4;stroke:#1f77b4;" x="295.835664" xlink:href="#mb73bee69fb" y="207.361236"/>
     <use style="fill:#1f77b4;stroke:#1f77b4;" x="300.713287" xlink:href="#mb73bee69fb" y="123.285762"/>
     <use style="fill:#1f77b4;stroke:#1f77b4;" x="305.590909" xlink:href="#mb73bee69fb" y="103.564355"/>
     <use style="fill:#1f77b4;stroke:#1f77b4;" x="310.468531" xlink:href="#mb73bee69fb" y="115.846986"/>
     <use style="fill:#1f77b4;stroke:#1f77b4;" x="315.346154" xlink:href="#mb73bee69fb" y="107.370241"/>
     <use style="fill:#1f77b4;stroke:#1f77b4;" x="320.223776" xlink:href="#mb73bee69fb" y="125.70769"/>
     <use style="fill:#1f77b4;stroke:#1f77b4;" x="325.101399" xlink:href="#mb73bee69fb" y="110.830137"/>
     <use style="fill:#1f77b4;stroke:#1f77b4;" x="329.979021" xlink:href="#mb73bee69fb" y="123.285762"/>
     <use style="fill:#1f77b4;stroke:#1f77b4;" x="334.856643" xlink:href="#mb73bee69fb" y="122.593783"/>
     <use style="fill:#1f77b4;stroke:#1f77b4;" x="339.734266" xlink:href="#mb73bee69fb" y="138.163315"/>
     <use style="fill:#1f77b4;stroke:#1f77b4;" x="344.611888" xlink:href="#mb73bee69fb" y="133.146466"/>
     <use style="fill:#1f77b4;stroke:#1f77b4;" x="349.48951" xlink:href="#mb73bee69fb" y="147.505035"/>
     <use style="fill:#1f77b4;stroke:#1f77b4;" x="354.367133" xlink:href="#mb73bee69fb" y="165.323499"/>
     <use style="fill:#1f77b4;stroke:#1f77b4;" x="359.244755" xlink:href="#mb73bee69fb" y="145.083107"/>
     <use style="fill:#1f77b4;stroke:#1f77b4;" x="364.122378" xlink:href="#mb73bee69fb" y="164.458525"/>
     <use style="fill:#1f77b4;stroke:#1f77b4;" x="369" xlink:href="#mb73bee69fb" y="170.167353"/>
     <use style="fill:#1f77b4;stroke:#1f77b4;" x="373.877622" xlink:href="#mb73bee69fb" y="197.327537"/>
     <use style="fill:#1f77b4;stroke:#1f77b4;" x="378.755245" xlink:href="#mb73bee69fb" y="212.20509"/>
     <use style="fill:#1f77b4;stroke:#1f77b4;" x="383.632867" xlink:href="#mb73bee69fb" y="206.842251"/>
     <use style="fill:#1f77b4;stroke:#1f77b4;" x="388.51049" xlink:href="#mb73bee69fb" y="212.20509"/>
     <use style="fill:#1f77b4;stroke:#1f77b4;" x="393.388112" xlink:href="#mb73bee69fb" y="236.251367"/>
     <use style="fill:#1f77b4;stroke:#1f77b4;" x="398.265734" xlink:href="#mb73bee69fb" y="266.525458"/>
     <use style="fill:#1f77b4;stroke:#1f77b4;" x="403.143357" xlink:href="#mb73bee69fb" y="273.791239"/>
     <use style="fill:#1f77b4;stroke:#1f77b4;" x="408.020979" xlink:href="#mb73bee69fb" y="276.559156"/>
     <use style="fill:#1f77b4;stroke:#1f77b4;" x="412.898601" xlink:href="#mb73bee69fb" y="303.200355"/>
     <use style="fill:#1f77b4;stroke:#1f77b4;" x="417.776224" xlink:href="#mb73bee69fb" y="332.263482"/>
     <use style="fill:#1f77b4;stroke:#1f77b4;" x="422.653846" xlink:href="#mb73bee69fb" y="321.01882"/>
     <use style="fill:#1f77b4;stroke:#1f77b4;" x="427.531469" xlink:href="#mb73bee69fb" y="355.098796"/>
     <use style="fill:#1f77b4;stroke:#1f77b4;" x="432.409091" xlink:href="#mb73bee69fb" y="387.621818"/>
     <use style="fill:#1f77b4;stroke:#1f77b4;" x="437.286713" xlink:href="#mb73bee69fb" y="380.356037"/>
     <use style="fill:#1f77b4;stroke:#1f77b4;" x="442.164336" xlink:href="#mb73bee69fb" y="353.022858"/>
     <use style="fill:#1f77b4;stroke:#1f77b4;" x="447.041958" xlink:href="#mb73bee69fb" y="372.571271"/>
     <use style="fill:#1f77b4;stroke:#1f77b4;" x="451.91958" xlink:href="#mb73bee69fb" y="306.141267"/>
     <use style="fill:#1f77b4;stroke:#1f77b4;" x="456.797203" xlink:href="#mb73bee69fb" y="335.723378"/>
     <use style="fill:#1f77b4;stroke:#1f77b4;" x="461.674825" xlink:href="#mb73bee69fb" y="311.504106"/>
     <use style="fill:#1f77b4;stroke:#1f77b4;" x="466.552448" xlink:href="#mb73bee69fb" y="357.520723"/>
     <use style="fill:#1f77b4;stroke:#1f77b4;" x="471.43007" xlink:href="#mb73bee69fb" y="323.440747"/>
     <use style="fill:#1f77b4;stroke:#1f77b4;" x="476.307692" xlink:href="#mb73bee69fb" y="278.981083"/>
     <use style="fill:#1f77b4;stroke:#1f77b4;" x="481.185315" xlink:href="#mb73bee69fb" y="272.580276"/>
     <use style="fill:#1f77b4;stroke:#1f77b4;" x="486.062937" xlink:href="#mb73bee69fb" y="268.77439"/>
     <use style="fill:#1f77b4;stroke:#1f77b4;" x="490.940559" xlink:href="#mb73bee69fb" y="241.960196"/>
     <use style="fill:#1f77b4;stroke:#1f77b4;" x="496.514985" xlink:href="#mb73bee69fb" y="234.694414"/>
     <use style="fill:#1f77b4;stroke:#1f77b4;" x="500.695804" xlink:href="#mb73bee69fb" y="284.170927"/>
     <use style="fill:#1f77b4;stroke:#1f77b4;" x="505.573427" xlink:href="#mb73bee69fb" y="293.858636"/>
     <use style="fill:#1f77b4;stroke:#1f77b4;" x="510.451049" xlink:href="#mb73bee69fb" y="264.10353"/>
     <use style="fill:#1f77b4;stroke:#1f77b4;" x="515.328671" xlink:href="#mb73bee69fb" y="222.065794"/>
     <use style="fill:#1f77b4;stroke:#1f77b4;" x="520.206294" xlink:href="#mb73bee69fb" y="291.609704"/>
     <use style="fill:#1f77b4;stroke:#1f77b4;" x="525.083916" xlink:href="#mb73bee69fb" y="170.167353"/>
     <use style="fill:#1f77b4;stroke:#1f77b4;" x="529.961538" xlink:href="#mb73bee69fb" y="182.622979"/>
     <use style="fill:#1f77b4;stroke:#1f77b4;" x="534.839161" xlink:href="#mb73bee69fb" y="150.445946"/>
     <use style="fill:#1f77b4;stroke:#1f77b4;" x="539.716783" xlink:href="#mb73bee69fb" y="138.163315"/>
     <use style="fill:#1f77b4;stroke:#1f77b4;" x="544.594406" xlink:href="#mb73bee69fb" y="187.466834"/>
     <use style="fill:#1f77b4;stroke:#1f77b4;" x="549.472028" xlink:href="#mb73bee69fb" y="147.678029"/>
     <use style="fill:#1f77b4;stroke:#1f77b4;" x="554.34965" xlink:href="#mb73bee69fb" y="128.129617"/>
     <use style="fill:#1f77b4;stroke:#1f77b4;" x="559.227273" xlink:href="#mb73bee69fb" y="160.30665"/>
     <use style="fill:#1f77b4;stroke:#1f77b4;" x="564.104895" xlink:href="#mb73bee69fb" y="129.68657"/>
     <use style="fill:#1f77b4;stroke:#1f77b4;" x="568.982517" xlink:href="#mb73bee69fb" y="120.863835"/>
     <use style="fill:#1f77b4;stroke:#1f77b4;" x="573.86014" xlink:href="#mb73bee69fb" y="127.264643"/>
     <use style="fill:#1f77b4;stroke:#1f77b4;" x="578.737762" xlink:href="#mb73bee69fb" y="120.863835"/>
     <use style="fill:#1f77b4;stroke:#1f77b4;" x="583.615385" xlink:href="#mb73bee69fb" y="123.285762"/>
     <use style="fill:#1f77b4;stroke:#1f77b4;" x="588.493007" xlink:href="#mb73bee69fb" y="137.644331"/>
     <use style="fill:#1f77b4;stroke:#1f77b4;" x="593.370629" xlink:href="#mb73bee69fb" y="139.893263"/>
     <use style="fill:#1f77b4;stroke:#1f77b4;" x="598.248252" xlink:href="#mb73bee69fb" y="143.00717"/>
     <use style="fill:#1f77b4;stroke:#1f77b4;" x="603.125874" xlink:href="#mb73bee69fb" y="167.745426"/>
     <use style="fill:#1f77b4;stroke:#1f77b4;" x="608.003497" xlink:href="#mb73bee69fb" y="157.538733"/>
     <use style="fill:#1f77b4;stroke:#1f77b4;" x="612.881119" xlink:href="#mb73bee69fb" y="192.137693"/>
     <use style="fill:#1f77b4;stroke:#1f77b4;" x="617.758741" xlink:href="#mb73bee69fb" y="214.627017"/>
     <use style="fill:#1f77b4;stroke:#1f77b4;" x="622.636364" xlink:href="#mb73bee69fb" y="217.221939"/>
    </g>
   </g>
   <g id="PathCollection_2">
    <defs>
     <path d="M 0 3 
C 0.795609 3 1.55874 2.683901 2.12132 2.12132 
C 2.683901 1.55874 3 0.795609 3 0 
C 3 -0.795609 2.683901 -1.55874 2.12132 -2.12132 
C 1.55874 -2.683901 0.795609 -3 0 -3 
C -0.795609 -3 -1.55874 -2.683901 -2.12132 -2.12132 
C -2.683901 -1.55874 -3 -0.795609 -3 0 
C -3 0.795609 -2.683901 1.55874 -2.12132 2.12132 
C -1.55874 2.683901 -0.795609 3 0 3 
z
" id="m0c24aa6a95" style="stroke:#ff7f0e;"/>
    </defs>
    <g clip-path="url(#p843d4e759e)">
     <use style="fill:#ff7f0e;stroke:#ff7f0e;" x="115.363636" xlink:href="#m0c24aa6a95" y="340.740227"/>
     <use style="fill:#ff7f0e;stroke:#ff7f0e;" x="120.241259" xlink:href="#m0c24aa6a95" y="353.887832"/>
     <use style="fill:#ff7f0e;stroke:#ff7f0e;" x="125.118881" xlink:href="#m0c24aa6a95" y="343.162154"/>
     <use style="fill:#ff7f0e;stroke:#ff7f0e;" x="129.996503" xlink:href="#m0c24aa6a95" y="345.757076"/>
     <use style="fill:#ff7f0e;stroke:#ff7f0e;" x="134.874126" xlink:href="#m0c24aa6a95" y="338.3183"/>
     <use style="fill:#ff7f0e;stroke:#ff7f0e;" x="139.751748" xlink:href="#m0c24aa6a95" y="357.520723"/>
     <use style="fill:#ff7f0e;stroke:#ff7f0e;" x="144.629371" xlink:href="#m0c24aa6a95" y="354.406816"/>
     <use style="fill:#ff7f0e;stroke:#ff7f0e;" x="149.506993" xlink:href="#m0c24aa6a95" y="354.406816"/>
     <use style="fill:#ff7f0e;stroke:#ff7f0e;" x="154.384615" xlink:href="#m0c24aa6a95" y="363.402546"/>
     <use style="fill:#ff7f0e;stroke:#ff7f0e;" x="159.262238" xlink:href="#m0c24aa6a95" y="353.887832"/>
     <use style="fill:#ff7f0e;stroke:#ff7f0e;" x="164.13986" xlink:href="#m0c24aa6a95" y="261.854598"/>
     <use style="fill:#ff7f0e;stroke:#ff7f0e;" x="169.017483" xlink:href="#m0c24aa6a95" y="250.782931"/>
     <use style="fill:#ff7f0e;stroke:#ff7f0e;" x="173.895105" xlink:href="#m0c24aa6a95" y="328.457596"/>
     <use style="fill:#ff7f0e;stroke:#ff7f0e;" x="178.772727" xlink:href="#m0c24aa6a95" y="160.30665"/>
     <use style="fill:#ff7f0e;stroke:#ff7f0e;" x="183.65035" xlink:href="#m0c24aa6a95" y="118.095918"/>
     <use style="fill:#ff7f0e;stroke:#ff7f0e;" x="188.527972" xlink:href="#m0c24aa6a95" y="202.344386"/>
     <use style="fill:#ff7f0e;stroke:#ff7f0e;" x="193.405594" xlink:href="#m0c24aa6a95" y="135.568393"/>
     <use style="fill:#ff7f0e;stroke:#ff7f0e;" x="198.283217" xlink:href="#m0c24aa6a95" y="182.622979"/>
     <use style="fill:#ff7f0e;stroke:#ff7f0e;" x="203.160839" xlink:href="#m0c24aa6a95" y="162.728577"/>
     <use style="fill:#ff7f0e;stroke:#ff7f0e;" x="208.038462" xlink:href="#m0c24aa6a95" y="271.542307"/>
     <use style="fill:#ff7f0e;stroke:#ff7f0e;" x="212.916084" xlink:href="#m0c24aa6a95" y="278.981083"/>
     <use style="fill:#ff7f0e;stroke:#ff7f0e;" x="217.793706" xlink:href="#m0c24aa6a95" y="313.061059"/>
     <use style="fill:#ff7f0e;stroke:#ff7f0e;" x="222.671329" xlink:href="#m0c24aa6a95" y="150.445946"/>
     <use style="fill:#ff7f0e;stroke:#ff7f0e;" x="227.548951" xlink:href="#m0c24aa6a95" y="217.221939"/>
     <use style="fill:#ff7f0e;stroke:#ff7f0e;" x="232.426573" xlink:href="#m0c24aa6a95" y="276.559156"/>
     <use style="fill:#ff7f0e;stroke:#ff7f0e;" x="237.304196" xlink:href="#m0c24aa6a95" y="86.264875"/>
     <use style="fill:#ff7f0e;stroke:#ff7f0e;" x="242.181818" xlink:href="#m0c24aa6a95" y="190.753735"/>
     <use style="fill:#ff7f0e;stroke:#ff7f0e;" x="247.059441" xlink:href="#m0c24aa6a95" y="91.108729"/>
     <use style="fill:#ff7f0e;stroke:#ff7f0e;" x="251.937063" xlink:href="#m0c24aa6a95" y="246.80405"/>
     <use style="fill:#ff7f0e;stroke:#ff7f0e;" x="256.814685" xlink:href="#m0c24aa6a95" y="198.365506"/>
     <use style="fill:#ff7f0e;stroke:#ff7f0e;" x="261.692308" xlink:href="#m0c24aa6a95" y="323.440747"/>
     <use style="fill:#ff7f0e;stroke:#ff7f0e;" x="266.56993" xlink:href="#m0c24aa6a95" y="332.782466"/>
     <use style="fill:#ff7f0e;stroke:#ff7f0e;" x="271.447552" xlink:href="#m0c24aa6a95" y="330.360539"/>
     <use style="fill:#ff7f0e;stroke:#ff7f0e;" x="276.325175" xlink:href="#m0c24aa6a95" y="347.660019"/>
     <use style="fill:#ff7f0e;stroke:#ff7f0e;" x="281.202797" xlink:href="#m0c24aa6a95" y="353.022858"/>
     <use style="fill:#ff7f0e;stroke:#ff7f0e;" x="286.08042" xlink:href="#m0c24aa6a95" y="343.162154"/>
     <use style="fill:#ff7f0e;stroke:#ff7f0e;" x="290.958042" xlink:href="#m0c24aa6a95" y="348.351998"/>
     <use style="fill:#ff7f0e;stroke:#ff7f0e;" x="295.835664" xlink:href="#m0c24aa6a95" y="338.3183"/>
     <use style="fill:#ff7f0e;stroke:#ff7f0e;" x="300.713287" xlink:href="#m0c24aa6a95" y="340.740227"/>
     <use style="fill:#ff7f0e;stroke:#ff7f0e;" x="305.590909" xlink:href="#m0c24aa6a95" y="343.162154"/>
     <use style="fill:#ff7f0e;stroke:#ff7f0e;" x="310.468531" xlink:href="#m0c24aa6a95" y="333.301451"/>
     <use style="fill:#ff7f0e;stroke:#ff7f0e;" x="315.346154" xlink:href="#m0c24aa6a95" y="347.141035"/>
     <use style="fill:#ff7f0e;stroke:#ff7f0e;" x="320.223776" xlink:href="#m0c24aa6a95" y="333.301451"/>
     <use style="fill:#ff7f0e;stroke:#ff7f0e;" x="325.101399" xlink:href="#m0c24aa6a95" y="328.457596"/>
     <use style="fill:#ff7f0e;stroke:#ff7f0e;" x="329.979021" xlink:href="#m0c24aa6a95" y="323.440747"/>
     <use style="fill:#ff7f0e;stroke:#ff7f0e;" x="334.856643" xlink:href="#m0c24aa6a95" y="327.592622"/>
     <use style="fill:#ff7f0e;stroke:#ff7f0e;" x="339.734266" xlink:href="#m0c24aa6a95" y="343.162154"/>
     <use style="fill:#ff7f0e;stroke:#ff7f0e;" x="344.611888" xlink:href="#m0c24aa6a95" y="313.580043"/>
     <use style="fill:#ff7f0e;stroke:#ff7f0e;" x="349.48951" xlink:href="#m0c24aa6a95" y="342.64317"/>
     <use style="fill:#ff7f0e;stroke:#ff7f0e;" x="354.367133" xlink:href="#m0c24aa6a95" y="350.600931"/>
     <use style="fill:#ff7f0e;stroke:#ff7f0e;" x="359.244755" xlink:href="#m0c24aa6a95" y="355.098796"/>
     <use style="fill:#ff7f0e;stroke:#ff7f0e;" x="364.122378" xlink:href="#m0c24aa6a95" y="342.470175"/>
     <use style="fill:#ff7f0e;stroke:#ff7f0e;" x="369" xlink:href="#m0c24aa6a95" y="350.600931"/>
     <use style="fill:#ff7f0e;stroke:#ff7f0e;" x="373.877622" xlink:href="#m0c24aa6a95" y="355.61778"/>
     <use style="fill:#ff7f0e;stroke:#ff7f0e;" x="378.755245" xlink:href="#m0c24aa6a95" y="363.056556"/>
     <use style="fill:#ff7f0e;stroke:#ff7f0e;" x="383.632867" xlink:href="#m0c24aa6a95" y="337.97231"/>
     <use style="fill:#ff7f0e;stroke:#ff7f0e;" x="388.51049" xlink:href="#m0c24aa6a95" y="350.600931"/>
     <use style="fill:#ff7f0e;stroke:#ff7f0e;" x="393.388112" xlink:href="#m0c24aa6a95" y="349.908952"/>
     <use style="fill:#ff7f0e;stroke:#ff7f0e;" x="398.265734" xlink:href="#m0c24aa6a95" y="353.022858"/>
     <use style="fill:#ff7f0e;stroke:#ff7f0e;" x="403.143357" xlink:href="#m0c24aa6a95" y="357.866712"/>
     <use style="fill:#ff7f0e;stroke:#ff7f0e;" x="408.020979" xlink:href="#m0c24aa6a95" y="333.301451"/>
     <use style="fill:#ff7f0e;stroke:#ff7f0e;" x="412.898601" xlink:href="#m0c24aa6a95" y="327.938612"/>
     <use style="fill:#ff7f0e;stroke:#ff7f0e;" x="417.776224" xlink:href="#m0c24aa6a95" y="334.858404"/>
     <use style="fill:#ff7f0e;stroke:#ff7f0e;" x="422.653846" xlink:href="#m0c24aa6a95" y="353.022858"/>
     <use style="fill:#ff7f0e;stroke:#ff7f0e;" x="427.531469" xlink:href="#m0c24aa6a95" y="159.787665"/>
     <use style="fill:#ff7f0e;stroke:#ff7f0e;" x="432.409091" xlink:href="#m0c24aa6a95" y="227.082643"/>
     <use style="fill:#ff7f0e;stroke:#ff7f0e;" x="437.286713" xlink:href="#m0c24aa6a95" y="254.242827"/>
     <use style="fill:#ff7f0e;stroke:#ff7f0e;" x="442.164336" xlink:href="#m0c24aa6a95" y="251.8209"/>
     <use style="fill:#ff7f0e;stroke:#ff7f0e;" x="447.041958" xlink:href="#m0c24aa6a95" y="76.058182"/>
     <use style="fill:#ff7f0e;stroke:#ff7f0e;" x="451.91958" xlink:href="#m0c24aa6a95" y="148.024019"/>
     <use style="fill:#ff7f0e;stroke:#ff7f0e;" x="456.797203" xlink:href="#m0c24aa6a95" y="212.20509"/>
     <use style="fill:#ff7f0e;stroke:#ff7f0e;" x="461.674825" xlink:href="#m0c24aa6a95" y="239.884258"/>
     <use style="fill:#ff7f0e;stroke:#ff7f0e;" x="466.552448" xlink:href="#m0c24aa6a95" y="367.381426"/>
     <use style="fill:#ff7f0e;stroke:#ff7f0e;" x="471.43007" xlink:href="#m0c24aa6a95" y="298.702491"/>
     <use style="fill:#ff7f0e;stroke:#ff7f0e;" x="476.307692" xlink:href="#m0c24aa6a95" y="325.862674"/>
     <use style="fill:#ff7f0e;stroke:#ff7f0e;" x="481.185315" xlink:href="#m0c24aa6a95" y="349.216972"/>
     <use style="fill:#ff7f0e;stroke:#ff7f0e;" x="486.062937" xlink:href="#m0c24aa6a95" y="283.651943"/>
     <use style="fill:#ff7f0e;stroke:#ff7f0e;" x="490.940559" xlink:href="#m0c24aa6a95" y="348.179004"/>
     <use style="fill:#ff7f0e;stroke:#ff7f0e;" x="496.514985" xlink:href="#m0c24aa6a95" y="297.491527"/>
     <use style="fill:#ff7f0e;stroke:#ff7f0e;" x="500.695804" xlink:href="#m0c24aa6a95" y="350.600931"/>
     <use style="fill:#ff7f0e;stroke:#ff7f0e;" x="505.573427" xlink:href="#m0c24aa6a95" y="135.568393"/>
     <use style="fill:#ff7f0e;stroke:#ff7f0e;" x="510.451049" xlink:href="#m0c24aa6a95" y="113.425059"/>
     <use style="fill:#ff7f0e;stroke:#ff7f0e;" x="515.328671" xlink:href="#m0c24aa6a95" y="222.065794"/>
     <use style="fill:#ff7f0e;stroke:#ff7f0e;" x="520.206294" xlink:href="#m0c24aa6a95" y="163.074567"/>
     <use style="fill:#ff7f0e;stroke:#ff7f0e;" x="525.083916" xlink:href="#m0c24aa6a95" y="293.858636"/>
     <use style="fill:#ff7f0e;stroke:#ff7f0e;" x="529.961538" xlink:href="#m0c24aa6a95" y="318.423898"/>
     <use style="fill:#ff7f0e;stroke:#ff7f0e;" x="534.839161" xlink:href="#m0c24aa6a95" y="330.879523"/>
     <use style="fill:#ff7f0e;stroke:#ff7f0e;" x="539.716783" xlink:href="#m0c24aa6a95" y="318.423898"/>
     <use style="fill:#ff7f0e;stroke:#ff7f0e;" x="544.594406" xlink:href="#m0c24aa6a95" y="311.158116"/>
     <use style="fill:#ff7f0e;stroke:#ff7f0e;" x="549.472028" xlink:href="#m0c24aa6a95" y="313.234054"/>
     <use style="fill:#ff7f0e;stroke:#ff7f0e;" x="554.34965" xlink:href="#m0c24aa6a95" y="311.158116"/>
     <use style="fill:#ff7f0e;stroke:#ff7f0e;" x="559.227273" xlink:href="#m0c24aa6a95" y="325.862674"/>
     <use style="fill:#ff7f0e;stroke:#ff7f0e;" x="564.104895" xlink:href="#m0c24aa6a95" y="314.964002"/>
     <use style="fill:#ff7f0e;stroke:#ff7f0e;" x="568.982517" xlink:href="#m0c24aa6a95" y="321.01882"/>
     <use style="fill:#ff7f0e;stroke:#ff7f0e;" x="573.86014" xlink:href="#m0c24aa6a95" y="329.841555"/>
     <use style="fill:#ff7f0e;stroke:#ff7f0e;" x="578.737762" xlink:href="#m0c24aa6a95" y="330.879523"/>
     <use style="fill:#ff7f0e;stroke:#ff7f0e;" x="583.615385" xlink:href="#m0c24aa6a95" y="325.862674"/>
     <use style="fill:#ff7f0e;stroke:#ff7f0e;" x="588.493007" xlink:href="#m0c24aa6a95" y="310.639132"/>
     <use style="fill:#ff7f0e;stroke:#ff7f0e;" x="593.370629" xlink:href="#m0c24aa6a95" y="330.187544"/>
     <use style="fill:#ff7f0e;stroke:#ff7f0e;" x="598.248252" xlink:href="#m0c24aa6a95" y="308.563194"/>
     <use style="fill:#ff7f0e;stroke:#ff7f0e;" x="603.125874" xlink:href="#m0c24aa6a95" y="316.001971"/>
     <use style="fill:#ff7f0e;stroke:#ff7f0e;" x="608.003497" xlink:href="#m0c24aa6a95" y="323.267752"/>
     <use style="fill:#ff7f0e;stroke:#ff7f0e;" x="612.881119" xlink:href="#m0c24aa6a95" y="320.67283"/>
     <use style="fill:#ff7f0e;stroke:#ff7f0e;" x="617.758741" xlink:href="#m0c24aa6a95" y="318.423898"/>
     <use style="fill:#ff7f0e;stroke:#ff7f0e;" x="622.636364" xlink:href="#m0c24aa6a95" y="325.862674"/>
    </g>
   </g>
   <g id="line2d_69">
    <path clip-path="url(#p843d4e759e)" d="M 115.363636 182.622979 
L 120.241259 173.454255 
L 125.118881 182.622979 
L 129.996503 219.643867 
L 134.874126 273.964234 
L 139.751748 266.179468 
L 144.629371 250.609936 
L 149.506993 275.175198 
L 154.384615 289.360771 
L 159.262238 296.972543 
L 164.13986 331.052518 
L 169.017483 364.440515 
L 173.895105 360.461634 
L 178.772727 343.162154 
L 183.65035 357.866712 
L 188.527972 380.356037 
L 193.405594 330.879523 
L 198.283217 313.580043 
L 203.160839 387.621818 
L 208.038462 380.356037 
L 212.916084 308.563194 
L 217.793706 335.377388 
L 222.671329 323.440747 
L 227.548951 335.723378 
L 232.426573 244.382123 
L 237.304196 321.01882 
L 242.181818 301.989392 
L 247.059441 217.221939 
L 251.937063 229.50457 
L 256.814685 218.086913 
L 261.692308 266.525458 
L 266.56993 177.087146 
L 271.447552 140.066258 
L 276.325175 105.467298 
L 281.202797 120.863835 
L 286.08042 145.429097 
L 290.958042 202.517381 
L 295.835664 207.361236 
L 300.713287 123.285762 
L 305.590909 103.564355 
L 310.468531 115.846986 
L 315.346154 107.370241 
L 320.223776 125.70769 
L 325.101399 110.830137 
L 329.979021 123.285762 
L 334.856643 122.593783 
L 339.734266 138.163315 
L 344.611888 133.146466 
L 349.48951 147.505035 
L 354.367133 165.323499 
L 359.244755 145.083107 
L 364.122378 164.458525 
L 369 170.167353 
L 373.877622 197.327537 
L 378.755245 212.20509 
L 383.632867 206.842251 
L 388.51049 212.20509 
L 393.388112 236.251367 
L 398.265734 266.525458 
L 403.143357 273.791239 
L 408.020979 276.559156 
L 412.898601 303.200355 
L 417.776224 332.263482 
L 422.653846 321.01882 
L 427.531469 355.098796 
L 432.409091 387.621818 
L 437.286713 380.356037 
L 442.164336 353.022858 
L 447.041958 372.571271 
L 451.91958 306.141267 
L 456.797203 335.723378 
L 461.674825 311.504106 
L 466.552448 357.520723 
L 471.43007 323.440747 
L 476.307692 278.981083 
L 481.185315 272.580276 
L 486.062937 268.77439 
L 490.940559 241.960196 
L 496.514985 234.694414 
L 500.695804 284.170927 
L 505.573427 293.858636 
L 510.451049 264.10353 
L 515.328671 222.065794 
L 520.206294 291.609704 
L 525.083916 170.167353 
L 529.961538 182.622979 
L 534.839161 150.445946 
L 539.716783 138.163315 
L 544.594406 187.466834 
L 549.472028 147.678029 
L 554.34965 128.129617 
L 559.227273 160.30665 
L 564.104895 129.68657 
L 568.982517 120.863835 
L 573.86014 127.264643 
L 578.737762 120.863835 
L 583.615385 123.285762 
L 588.493007 137.644331 
L 593.370629 139.893263 
L 598.248252 143.00717 
L 603.125874 167.745426 
L 608.003497 157.538733 
L 612.881119 192.137693 
L 617.758741 214.627017 
L 622.636364 217.221939 
" style="fill:none;stroke:#1f77b4;stroke-linecap:square;stroke-width:1.5;"/>
   </g>
   <g id="line2d_70">
    <path clip-path="url(#p843d4e759e)" d="M 115.363636 340.740227 
L 120.241259 353.887832 
L 125.118881 343.162154 
L 129.996503 345.757076 
L 134.874126 338.3183 
L 139.751748 357.520723 
L 144.629371 354.406816 
L 149.506993 354.406816 
L 154.384615 363.402546 
L 159.262238 353.887832 
L 164.13986 261.854598 
L 169.017483 250.782931 
L 173.895105 328.457596 
L 178.772727 160.30665 
L 183.65035 118.095918 
L 188.527972 202.344386 
L 193.405594 135.568393 
L 198.283217 182.622979 
L 203.160839 162.728577 
L 208.038462 271.542307 
L 212.916084 278.981083 
L 217.793706 313.061059 
L 222.671329 150.445946 
L 227.548951 217.221939 
L 232.426573 276.559156 
L 237.304196 86.264875 
L 242.181818 190.753735 
L 247.059441 91.108729 
L 251.937063 246.80405 
L 256.814685 198.365506 
L 261.692308 323.440747 
L 266.56993 332.782466 
L 271.447552 330.360539 
L 276.325175 347.660019 
L 281.202797 353.022858 
L 286.08042 343.162154 
L 290.958042 348.351998 
L 295.835664 338.3183 
L 300.713287 340.740227 
L 305.590909 343.162154 
L 310.468531 333.301451 
L 315.346154 347.141035 
L 320.223776 333.301451 
L 325.101399 328.457596 
L 329.979021 323.440747 
L 334.856643 327.592622 
L 339.734266 343.162154 
L 344.611888 313.580043 
L 349.48951 342.64317 
L 354.367133 350.600931 
L 359.244755 355.098796 
L 364.122378 342.470175 
L 369 350.600931 
L 373.877622 355.61778 
L 378.755245 363.056556 
L 383.632867 337.97231 
L 388.51049 350.600931 
L 393.388112 349.908952 
L 398.265734 353.022858 
L 403.143357 357.866712 
L 408.020979 333.301451 
L 412.898601 327.938612 
L 417.776224 334.858404 
L 422.653846 353.022858 
L 427.531469 159.787665 
L 432.409091 227.082643 
L 437.286713 254.242827 
L 442.164336 251.8209 
L 447.041958 76.058182 
L 451.91958 148.024019 
L 456.797203 212.20509 
L 461.674825 239.884258 
L 466.552448 367.381426 
L 471.43007 298.702491 
L 476.307692 325.862674 
L 481.185315 349.216972 
L 486.062937 283.651943 
L 490.940559 348.179004 
L 496.514985 297.491527 
L 500.695804 350.600931 
L 505.573427 135.568393 
L 510.451049 113.425059 
L 515.328671 222.065794 
L 520.206294 163.074567 
L 525.083916 293.858636 
L 529.961538 318.423898 
L 534.839161 330.879523 
L 539.716783 318.423898 
L 544.594406 311.158116 
L 549.472028 313.234054 
L 554.34965 311.158116 
L 559.227273 325.862674 
L 564.104895 314.964002 
L 568.982517 321.01882 
L 573.86014 329.841555 
L 578.737762 330.879523 
L 583.615385 325.862674 
L 588.493007 310.639132 
L 593.370629 330.187544 
L 598.248252 308.563194 
L 603.125874 316.001971 
L 608.003497 323.267752 
L 612.881119 320.67283 
L 617.758741 318.423898 
L 622.636364 325.862674 
" style="fill:none;stroke:#ff7f0e;stroke-linecap:square;stroke-width:1.5;"/>
   </g>
   <g id="patch_3">
    <path d="M 90 403.2 
L 90 60.48 
" style="fill:none;stroke:#000000;stroke-linecap:square;stroke-linejoin:miter;stroke-width:0.8;"/>
   </g>
   <g id="patch_4">
    <path d="M 648 403.2 
L 648 60.48 
" style="fill:none;stroke:#000000;stroke-linecap:square;stroke-linejoin:miter;stroke-width:0.8;"/>
   </g>
   <g id="patch_5">
    <path d="M 90 403.2 
L 648 403.2 
" style="fill:none;stroke:#000000;stroke-linecap:square;stroke-linejoin:miter;stroke-width:0.8;"/>
   </g>
   <g id="patch_6">
    <path d="M 90 60.48 
L 648 60.48 
" style="fill:none;stroke:#000000;stroke-linecap:square;stroke-linejoin:miter;stroke-width:0.8;"/>
   </g>
   <g id="legend_1">
    <g id="patch_7">
     <path d="M 553.214062 97.83625 
L 641 97.83625 
Q 643 97.83625 643 95.83625 
L 643 67.48 
Q 643 65.48 641 65.48 
L 553.214062 65.48 
Q 551.214062 65.48 551.214062 67.48 
L 551.214062 95.83625 
Q 551.214062 97.83625 553.214062 97.83625 
z
" style="fill:#ffffff;opacity:0.8;stroke:#cccccc;stroke-linejoin:miter;"/>
    </g>
    <g id="PathCollection_3">
     <g>
      <use style="fill:#1f77b4;stroke:#1f77b4;" x="565.214062" xlink:href="#mb73bee69fb" y="74.453438"/>
     </g>
    </g>
    <g id="text_36">
     <!-- Generation -->
     <g transform="translate(583.214062 77.078438)scale(0.1 -0.1)">
      <defs>
       <path d="M 59.515625 10.40625 
L 59.515625 29.984375 
L 43.40625 29.984375 
L 43.40625 38.09375 
L 69.28125 38.09375 
L 69.28125 6.78125 
Q 63.578125 2.734375 56.6875 0.65625 
Q 49.8125 -1.421875 42 -1.421875 
Q 24.90625 -1.421875 15.25 8.5625 
Q 5.609375 18.5625 5.609375 36.375 
Q 5.609375 54.25 15.25 64.234375 
Q 24.90625 74.21875 42 74.21875 
Q 49.125 74.21875 55.546875 72.453125 
Q 61.96875 70.703125 67.390625 67.28125 
L 67.390625 56.78125 
Q 61.921875 61.421875 55.765625 63.765625 
Q 49.609375 66.109375 42.828125 66.109375 
Q 29.4375 66.109375 22.71875 58.640625 
Q 16.015625 51.171875 16.015625 36.375 
Q 16.015625 21.625 22.71875 14.15625 
Q 29.4375 6.6875 42.828125 6.6875 
Q 48.046875 6.6875 52.140625 7.59375 
Q 56.25 8.5 59.515625 10.40625 
z
" id="DejaVuSans-71"/>
       <path d="M 56.203125 29.59375 
L 56.203125 25.203125 
L 14.890625 25.203125 
Q 15.484375 15.921875 20.484375 11.0625 
Q 25.484375 6.203125 34.421875 6.203125 
Q 39.59375 6.203125 44.453125 7.46875 
Q 49.3125 8.734375 54.109375 11.28125 
L 54.109375 2.78125 
Q 49.265625 0.734375 44.1875 -0.34375 
Q 39.109375 -1.421875 33.890625 -1.421875 
Q 20.796875 -1.421875 13.15625 6.1875 
Q 5.515625 13.8125 5.515625 26.8125 
Q 5.515625 40.234375 12.765625 48.109375 
Q 20.015625 56 32.328125 56 
Q 43.359375 56 49.78125 48.890625 
Q 56.203125 41.796875 56.203125 29.59375 
z
M 47.21875 32.234375 
Q 47.125 39.59375 43.09375 43.984375 
Q 39.0625 48.390625 32.421875 48.390625 
Q 24.90625 48.390625 20.390625 44.140625 
Q 15.875 39.890625 15.1875 32.171875 
z
" id="DejaVuSans-101"/>
       <path d="M 54.890625 33.015625 
L 54.890625 0 
L 45.90625 0 
L 45.90625 32.71875 
Q 45.90625 40.484375 42.875 44.328125 
Q 39.84375 48.1875 33.796875 48.1875 
Q 26.515625 48.1875 22.3125 43.546875 
Q 18.109375 38.921875 18.109375 30.90625 
L 18.109375 0 
L 9.078125 0 
L 9.078125 54.6875 
L 18.109375 54.6875 
L 18.109375 46.1875 
Q 21.34375 51.125 25.703125 53.5625 
Q 30.078125 56 35.796875 56 
Q 45.21875 56 50.046875 50.171875 
Q 54.890625 44.34375 54.890625 33.015625 
z
" id="DejaVuSans-110"/>
       <path d="M 41.109375 46.296875 
Q 39.59375 47.171875 37.8125 47.578125 
Q 36.03125 48 33.890625 48 
Q 26.265625 48 22.1875 43.046875 
Q 18.109375 38.09375 18.109375 28.8125 
L 18.109375 0 
L 9.078125 0 
L 9.078125 54.6875 
L 18.109375 54.6875 
L 18.109375 46.1875 
Q 20.953125 51.171875 25.484375 53.578125 
Q 30.03125 56 36.53125 56 
Q 37.453125 56 38.578125 55.875 
Q 39.703125 55.765625 41.0625 55.515625 
z
" id="DejaVuSans-114"/>
       <path d="M 34.28125 27.484375 
Q 23.390625 27.484375 19.1875 25 
Q 14.984375 22.515625 14.984375 16.5 
Q 14.984375 11.71875 18.140625 8.90625 
Q 21.296875 6.109375 26.703125 6.109375 
Q 34.1875 6.109375 38.703125 11.40625 
Q 43.21875 16.703125 43.21875 25.484375 
L 43.21875 27.484375 
z
M 52.203125 31.203125 
L 52.203125 0 
L 43.21875 0 
L 43.21875 8.296875 
Q 40.140625 3.328125 35.546875 0.953125 
Q 30.953125 -1.421875 24.3125 -1.421875 
Q 15.921875 -1.421875 10.953125 3.296875 
Q 6 8.015625 6 15.921875 
Q 6 25.140625 12.171875 29.828125 
Q 18.359375 34.515625 30.609375 34.515625 
L 43.21875 34.515625 
L 43.21875 35.40625 
Q 43.21875 41.609375 39.140625 45 
Q 35.0625 48.390625 27.6875 48.390625 
Q 23 48.390625 18.546875 47.265625 
Q 14.109375 46.140625 10.015625 43.890625 
L 10.015625 52.203125 
Q 14.9375 54.109375 19.578125 55.046875 
Q 24.21875 56 28.609375 56 
Q 40.484375 56 46.34375 49.84375 
Q 52.203125 43.703125 52.203125 31.203125 
z
" id="DejaVuSans-97"/>
       <path d="M 18.3125 70.21875 
L 18.3125 54.6875 
L 36.8125 54.6875 
L 36.8125 47.703125 
L 18.3125 47.703125 
L 18.3125 18.015625 
Q 18.3125 11.328125 20.140625 9.421875 
Q 21.96875 7.515625 27.59375 7.515625 
L 36.8125 7.515625 
L 36.8125 0 
L 27.59375 0 
Q 17.1875 0 13.234375 3.875 
Q 9.28125 7.765625 9.28125 18.015625 
L 9.28125 47.703125 
L 2.6875 47.703125 
L 2.6875 54.6875 
L 9.28125 54.6875 
L 9.28125 70.21875 
z
" id="DejaVuSans-116"/>
       <path d="M 9.421875 54.6875 
L 18.40625 54.6875 
L 18.40625 0 
L 9.421875 0 
z
M 9.421875 75.984375 
L 18.40625 75.984375 
L 18.40625 64.59375 
L 9.421875 64.59375 
z
" id="DejaVuSans-105"/>
       <path d="M 30.609375 48.390625 
Q 23.390625 48.390625 19.1875 42.75 
Q 14.984375 37.109375 14.984375 27.296875 
Q 14.984375 17.484375 19.15625 11.84375 
Q 23.34375 6.203125 30.609375 6.203125 
Q 37.796875 6.203125 41.984375 11.859375 
Q 46.1875 17.53125 46.1875 27.296875 
Q 46.1875 37.015625 41.984375 42.703125 
Q 37.796875 48.390625 30.609375 48.390625 
z
M 30.609375 56 
Q 42.328125 56 49.015625 48.375 
Q 55.71875 40.765625 55.71875 27.296875 
Q 55.71875 13.875 49.015625 6.21875 
Q 42.328125 -1.421875 30.609375 -1.421875 
Q 18.84375 -1.421875 12.171875 6.21875 
Q 5.515625 13.875 5.515625 27.296875 
Q 5.515625 40.765625 12.171875 48.375 
Q 18.84375 56 30.609375 56 
z
" id="DejaVuSans-111"/>
      </defs>
      <use xlink:href="#DejaVuSans-71"/>
      <use x="77.490234" xlink:href="#DejaVuSans-101"/>
      <use x="139.013672" xlink:href="#DejaVuSans-110"/>
      <use x="202.392578" xlink:href="#DejaVuSans-101"/>
      <use x="263.916016" xlink:href="#DejaVuSans-114"/>
      <use x="305.029297" xlink:href="#DejaVuSans-97"/>
      <use x="366.308594" xlink:href="#DejaVuSans-116"/>
      <use x="405.517578" xlink:href="#DejaVuSans-105"/>
      <use x="433.300781" xlink:href="#DejaVuSans-111"/>
      <use x="494.482422" xlink:href="#DejaVuSans-110"/>
     </g>
    </g>
    <g id="PathCollection_4">
     <g>
      <use style="fill:#ff7f0e;stroke:#ff7f0e;" x="565.214062" xlink:href="#m0c24aa6a95" y="89.131563"/>
     </g>
    </g>
    <g id="text_37">
     <!-- Use -->
     <g transform="translate(583.214062 91.756563)scale(0.1 -0.1)">
      <defs>
       <path d="M 8.6875 72.90625 
L 18.609375 72.90625 
L 18.609375 28.609375 
Q 18.609375 16.890625 22.84375 11.734375 
Q 27.09375 6.59375 36.625 6.59375 
Q 46.09375 6.59375 50.34375 11.734375 
Q 54.59375 16.890625 54.59375 28.609375 
L 54.59375 72.90625 
L 64.5 72.90625 
L 64.5 27.390625 
Q 64.5 13.140625 57.4375 5.859375 
Q 50.390625 -1.421875 36.625 -1.421875 
Q 22.796875 -1.421875 15.734375 5.859375 
Q 8.6875 13.140625 8.6875 27.390625 
z
" id="DejaVuSans-85"/>
       <path d="M 44.28125 53.078125 
L 44.28125 44.578125 
Q 40.484375 46.53125 36.375 47.5 
Q 32.28125 48.484375 27.875 48.484375 
Q 21.1875 48.484375 17.84375 46.4375 
Q 14.5 44.390625 14.5 40.28125 
Q 14.5 37.15625 16.890625 35.375 
Q 19.28125 33.59375 26.515625 31.984375 
L 29.59375 31.296875 
Q 39.15625 29.25 43.1875 25.515625 
Q 47.21875 21.78125 47.21875 15.09375 
Q 47.21875 7.46875 41.1875 3.015625 
Q 35.15625 -1.421875 24.609375 -1.421875 
Q 20.21875 -1.421875 15.453125 -0.5625 
Q 10.6875 0.296875 5.421875 2 
L 5.421875 11.28125 
Q 10.40625 8.6875 15.234375 7.390625 
Q 20.0625 6.109375 24.8125 6.109375 
Q 31.15625 6.109375 34.5625 8.28125 
Q 37.984375 10.453125 37.984375 14.40625 
Q 37.984375 18.0625 35.515625 20.015625 
Q 33.0625 21.96875 24.703125 23.78125 
L 21.578125 24.515625 
Q 13.234375 26.265625 9.515625 29.90625 
Q 5.8125 33.546875 5.8125 39.890625 
Q 5.8125 47.609375 11.28125 51.796875 
Q 16.75 56 26.8125 56 
Q 31.78125 56 36.171875 55.265625 
Q 40.578125 54.546875 44.28125 53.078125 
z
" id="DejaVuSans-115"/>
      </defs>
      <use xlink:href="#DejaVuSans-85"/>
      <use x="73.193359" xlink:href="#DejaVuSans-115"/>
      <use x="125.292969" xlink:href="#DejaVuSans-101"/>
     </g>
    </g>
   </g>
  </g>
 </g>
 <defs>
  <clipPath id="p843d4e759e">
   <rect height="342.72" width="558" x="90" y="60.48"/>
  </clipPath>
 </defs>
</svg>
