<?xml version="1.0" encoding="utf-8" standalone="no"?>
<!DOCTYPE svg PUBLIC "-//W3C//DTD SVG 1.1//EN"
  "http://www.w3.org/Graphics/SVG/1.1/DTD/svg11.dtd">
<svg xmlns:xlink="http://www.w3.org/1999/xlink" width="607.725089pt" height="388.91625pt" viewBox="0 0 607.725089 388.91625" xmlns="http://www.w3.org/2000/svg" version="1.1">
 <metadata>
  <rdf:RDF xmlns:dc="http://purl.org/dc/elements/1.1/" xmlns:cc="http://creativecommons.org/ns#" xmlns:rdf="http://www.w3.org/1999/02/22-rdf-syntax-ns#">
   <cc:Work>
    <dc:type rdf:resource="http://purl.org/dc/dcmitype/StillImage"/>
    <dc:date>2023-08-26T08:32:56.633523</dc:date>
    <dc:format>image/svg+xml</dc:format>
    <dc:creator>
     <cc:Agent>
      <dc:title>Matplotlib v3.7.2, https://matplotlib.org/</dc:title>
     </cc:Agent>
    </dc:creator>
   </cc:Work>
  </rdf:RDF>
 </metadata>
 <defs>
  <style type="text/css">*{stroke-linejoin: round; stroke-linecap: butt}</style>
 </defs>
 <g id="figure_1">
  <g id="patch_1">
   <path d="M 0 388.91625 
L 607.725089 388.91625 
L 607.725089 0 
L 0 0 
z
" style="fill: #ffffff"/>
  </g>
  <g id="axes_1">
   <g id="patch_2">
    <path d="M 40.603125 365.038125 
L 598.603125 365.038125 
L 598.603125 22.318125 
L 40.603125 22.318125 
z
" style="fill: #ffffff"/>
   </g>
   <g id="matplotlib.axis_1">
    <g id="xtick_1">
     <g id="line2d_1">
      <defs>
       <path id="mde62786f90" d="M 0 0 
L 0 3.5 
" style="stroke: #000000; stroke-width: 0.8"/>
      </defs>
      <g>
       <use xlink:href="#mde62786f90" x="59.572567" y="365.038125" style="stroke: #000000; stroke-width: 0.8"/>
      </g>
     </g>
     <g id="text_1">
      <!-- 2022-05 -->
      <g transform="translate(38.681161 379.636562) scale(0.1 -0.1)">
       <defs>
        <path id="DejaVuSans-32" d="M 1228 531 
L 3431 531 
L 3431 0 
L 469 0 
L 469 531 
Q 828 903 1448 1529 
Q 2069 2156 2228 2338 
Q 2531 2678 2651 2914 
Q 2772 3150 2772 3378 
Q 2772 3750 2511 3984 
Q 2250 4219 1831 4219 
Q 1534 4219 1204 4116 
Q 875 4013 500 3803 
L 500 4441 
Q 881 4594 1212 4672 
Q 1544 4750 1819 4750 
Q 2544 4750 2975 4387 
Q 3406 4025 3406 3419 
Q 3406 3131 3298 2873 
Q 3191 2616 2906 2266 
Q 2828 2175 2409 1742 
Q 1991 1309 1228 531 
z
" transform="scale(0.015625)"/>
        <path id="DejaVuSans-30" d="M 2034 4250 
Q 1547 4250 1301 3770 
Q 1056 3291 1056 2328 
Q 1056 1369 1301 889 
Q 1547 409 2034 409 
Q 2525 409 2770 889 
Q 3016 1369 3016 2328 
Q 3016 3291 2770 3770 
Q 2525 4250 2034 4250 
z
M 2034 4750 
Q 2819 4750 3233 4129 
Q 3647 3509 3647 2328 
Q 3647 1150 3233 529 
Q 2819 -91 2034 -91 
Q 1250 -91 836 529 
Q 422 1150 422 2328 
Q 422 3509 836 4129 
Q 1250 4750 2034 4750 
z
" transform="scale(0.015625)"/>
        <path id="DejaVuSans-2d" d="M 313 2009 
L 1997 2009 
L 1997 1497 
L 313 1497 
L 313 2009 
z
" transform="scale(0.015625)"/>
        <path id="DejaVuSans-35" d="M 691 4666 
L 3169 4666 
L 3169 4134 
L 1269 4134 
L 1269 2991 
Q 1406 3038 1543 3061 
Q 1681 3084 1819 3084 
Q 2600 3084 3056 2656 
Q 3513 2228 3513 1497 
Q 3513 744 3044 326 
Q 2575 -91 1722 -91 
Q 1428 -91 1123 -41 
Q 819 9 494 109 
L 494 744 
Q 775 591 1075 516 
Q 1375 441 1709 441 
Q 2250 441 2565 725 
Q 2881 1009 2881 1497 
Q 2881 1984 2565 2268 
Q 2250 2553 1709 2553 
Q 1456 2553 1204 2497 
Q 953 2441 691 2322 
L 691 4666 
z
" transform="scale(0.015625)"/>
       </defs>
       <use xlink:href="#DejaVuSans-32"/>
       <use xlink:href="#DejaVuSans-30" x="63.623047"/>
       <use xlink:href="#DejaVuSans-32" x="127.246094"/>
       <use xlink:href="#DejaVuSans-32" x="190.869141"/>
       <use xlink:href="#DejaVuSans-2d" x="254.492188"/>
       <use xlink:href="#DejaVuSans-30" x="290.576172"/>
       <use xlink:href="#DejaVuSans-35" x="354.199219"/>
      </g>
     </g>
    </g>
    <g id="xtick_2">
     <g id="line2d_2">
      <g>
       <use xlink:href="#mde62786f90" x="124.580207" y="365.038125" style="stroke: #000000; stroke-width: 0.8"/>
      </g>
     </g>
     <g id="text_2">
      <!-- 2022-07 -->
      <g transform="translate(103.6888 379.636562) scale(0.1 -0.1)">
       <defs>
        <path id="DejaVuSans-37" d="M 525 4666 
L 3525 4666 
L 3525 4397 
L 1831 0 
L 1172 0 
L 2766 4134 
L 525 4134 
L 525 4666 
z
" transform="scale(0.015625)"/>
       </defs>
       <use xlink:href="#DejaVuSans-32"/>
       <use xlink:href="#DejaVuSans-30" x="63.623047"/>
       <use xlink:href="#DejaVuSans-32" x="127.246094"/>
       <use xlink:href="#DejaVuSans-32" x="190.869141"/>
       <use xlink:href="#DejaVuSans-2d" x="254.492188"/>
       <use xlink:href="#DejaVuSans-30" x="290.576172"/>
       <use xlink:href="#DejaVuSans-37" x="354.199219"/>
      </g>
     </g>
    </g>
    <g id="xtick_3">
     <g id="line2d_3">
      <g>
       <use xlink:href="#mde62786f90" x="190.653545" y="365.038125" style="stroke: #000000; stroke-width: 0.8"/>
      </g>
     </g>
     <g id="text_3">
      <!-- 2022-09 -->
      <g transform="translate(169.762139 379.636562) scale(0.1 -0.1)">
       <defs>
        <path id="DejaVuSans-39" d="M 703 97 
L 703 672 
Q 941 559 1184 500 
Q 1428 441 1663 441 
Q 2288 441 2617 861 
Q 2947 1281 2994 2138 
Q 2813 1869 2534 1725 
Q 2256 1581 1919 1581 
Q 1219 1581 811 2004 
Q 403 2428 403 3163 
Q 403 3881 828 4315 
Q 1253 4750 1959 4750 
Q 2769 4750 3195 4129 
Q 3622 3509 3622 2328 
Q 3622 1225 3098 567 
Q 2575 -91 1691 -91 
Q 1453 -91 1209 -44 
Q 966 3 703 97 
z
M 1959 2075 
Q 2384 2075 2632 2365 
Q 2881 2656 2881 3163 
Q 2881 3666 2632 3958 
Q 2384 4250 1959 4250 
Q 1534 4250 1286 3958 
Q 1038 3666 1038 3163 
Q 1038 2656 1286 2365 
Q 1534 2075 1959 2075 
z
" transform="scale(0.015625)"/>
       </defs>
       <use xlink:href="#DejaVuSans-32"/>
       <use xlink:href="#DejaVuSans-30" x="63.623047"/>
       <use xlink:href="#DejaVuSans-32" x="127.246094"/>
       <use xlink:href="#DejaVuSans-32" x="190.869141"/>
       <use xlink:href="#DejaVuSans-2d" x="254.492188"/>
       <use xlink:href="#DejaVuSans-30" x="290.576172"/>
       <use xlink:href="#DejaVuSans-39" x="354.199219"/>
      </g>
     </g>
    </g>
    <g id="xtick_4">
     <g id="line2d_4">
      <g>
       <use xlink:href="#mde62786f90" x="255.661185" y="365.038125" style="stroke: #000000; stroke-width: 0.8"/>
      </g>
     </g>
     <g id="text_4">
      <!-- 2022-11 -->
      <g transform="translate(234.769778 379.636562) scale(0.1 -0.1)">
       <defs>
        <path id="DejaVuSans-31" d="M 794 531 
L 1825 531 
L 1825 4091 
L 703 3866 
L 703 4441 
L 1819 4666 
L 2450 4666 
L 2450 531 
L 3481 531 
L 3481 0 
L 794 0 
L 794 531 
z
" transform="scale(0.015625)"/>
       </defs>
       <use xlink:href="#DejaVuSans-32"/>
       <use xlink:href="#DejaVuSans-30" x="63.623047"/>
       <use xlink:href="#DejaVuSans-32" x="127.246094"/>
       <use xlink:href="#DejaVuSans-32" x="190.869141"/>
       <use xlink:href="#DejaVuSans-2d" x="254.492188"/>
       <use xlink:href="#DejaVuSans-31" x="290.576172"/>
       <use xlink:href="#DejaVuSans-31" x="354.199219"/>
      </g>
     </g>
    </g>
    <g id="xtick_5">
     <g id="line2d_5">
      <g>
       <use xlink:href="#mde62786f90" x="320.668824" y="365.038125" style="stroke: #000000; stroke-width: 0.8"/>
      </g>
     </g>
     <g id="text_5">
      <!-- 2023-01 -->
      <g transform="translate(299.777418 379.636562) scale(0.1 -0.1)">
       <defs>
        <path id="DejaVuSans-33" d="M 2597 2516 
Q 3050 2419 3304 2112 
Q 3559 1806 3559 1356 
Q 3559 666 3084 287 
Q 2609 -91 1734 -91 
Q 1441 -91 1130 -33 
Q 819 25 488 141 
L 488 750 
Q 750 597 1062 519 
Q 1375 441 1716 441 
Q 2309 441 2620 675 
Q 2931 909 2931 1356 
Q 2931 1769 2642 2001 
Q 2353 2234 1838 2234 
L 1294 2234 
L 1294 2753 
L 1863 2753 
Q 2328 2753 2575 2939 
Q 2822 3125 2822 3475 
Q 2822 3834 2567 4026 
Q 2313 4219 1838 4219 
Q 1578 4219 1281 4162 
Q 984 4106 628 3988 
L 628 4550 
Q 988 4650 1302 4700 
Q 1616 4750 1894 4750 
Q 2613 4750 3031 4423 
Q 3450 4097 3450 3541 
Q 3450 3153 3228 2886 
Q 3006 2619 2597 2516 
z
" transform="scale(0.015625)"/>
       </defs>
       <use xlink:href="#DejaVuSans-32"/>
       <use xlink:href="#DejaVuSans-30" x="63.623047"/>
       <use xlink:href="#DejaVuSans-32" x="127.246094"/>
       <use xlink:href="#DejaVuSans-33" x="190.869141"/>
       <use xlink:href="#DejaVuSans-2d" x="254.492188"/>
       <use xlink:href="#DejaVuSans-30" x="290.576172"/>
       <use xlink:href="#DejaVuSans-31" x="354.199219"/>
      </g>
     </g>
    </g>
    <g id="xtick_6">
     <g id="line2d_6">
      <g>
       <use xlink:href="#mde62786f90" x="383.545065" y="365.038125" style="stroke: #000000; stroke-width: 0.8"/>
      </g>
     </g>
     <g id="text_6">
      <!-- 2023-03 -->
      <g transform="translate(362.653659 379.636562) scale(0.1 -0.1)">
       <use xlink:href="#DejaVuSans-32"/>
       <use xlink:href="#DejaVuSans-30" x="63.623047"/>
       <use xlink:href="#DejaVuSans-32" x="127.246094"/>
       <use xlink:href="#DejaVuSans-33" x="190.869141"/>
       <use xlink:href="#DejaVuSans-2d" x="254.492188"/>
       <use xlink:href="#DejaVuSans-30" x="290.576172"/>
       <use xlink:href="#DejaVuSans-33" x="354.199219"/>
      </g>
     </g>
    </g>
    <g id="xtick_7">
     <g id="line2d_7">
      <g>
       <use xlink:href="#mde62786f90" x="448.552705" y="365.038125" style="stroke: #000000; stroke-width: 0.8"/>
      </g>
     </g>
     <g id="text_7">
      <!-- 2023-05 -->
      <g transform="translate(427.661299 379.636562) scale(0.1 -0.1)">
       <use xlink:href="#DejaVuSans-32"/>
       <use xlink:href="#DejaVuSans-30" x="63.623047"/>
       <use xlink:href="#DejaVuSans-32" x="127.246094"/>
       <use xlink:href="#DejaVuSans-33" x="190.869141"/>
       <use xlink:href="#DejaVuSans-2d" x="254.492188"/>
       <use xlink:href="#DejaVuSans-30" x="290.576172"/>
       <use xlink:href="#DejaVuSans-35" x="354.199219"/>
      </g>
     </g>
    </g>
    <g id="xtick_8">
     <g id="line2d_8">
      <g>
       <use xlink:href="#mde62786f90" x="513.560344" y="365.038125" style="stroke: #000000; stroke-width: 0.8"/>
      </g>
     </g>
     <g id="text_8">
      <!-- 2023-07 -->
      <g transform="translate(492.668938 379.636562) scale(0.1 -0.1)">
       <use xlink:href="#DejaVuSans-32"/>
       <use xlink:href="#DejaVuSans-30" x="63.623047"/>
       <use xlink:href="#DejaVuSans-32" x="127.246094"/>
       <use xlink:href="#DejaVuSans-33" x="190.869141"/>
       <use xlink:href="#DejaVuSans-2d" x="254.492188"/>
       <use xlink:href="#DejaVuSans-30" x="290.576172"/>
       <use xlink:href="#DejaVuSans-37" x="354.199219"/>
      </g>
     </g>
    </g>
    <g id="xtick_9">
     <g id="line2d_9">
      <g>
       <use xlink:href="#mde62786f90" x="579.633683" y="365.038125" style="stroke: #000000; stroke-width: 0.8"/>
      </g>
     </g>
     <g id="text_9">
      <!-- 2023-09 -->
      <g transform="translate(558.742276 379.636562) scale(0.1 -0.1)">
       <use xlink:href="#DejaVuSans-32"/>
       <use xlink:href="#DejaVuSans-30" x="63.623047"/>
       <use xlink:href="#DejaVuSans-32" x="127.246094"/>
       <use xlink:href="#DejaVuSans-33" x="190.869141"/>
       <use xlink:href="#DejaVuSans-2d" x="254.492188"/>
       <use xlink:href="#DejaVuSans-30" x="290.576172"/>
       <use xlink:href="#DejaVuSans-39" x="354.199219"/>
      </g>
     </g>
    </g>
    <g id="xtick_10">
     <g id="line2d_10">
      <defs>
       <path id="m8e61c6403c" d="M 0 0 
L 0 2 
" style="stroke: #000000; stroke-width: 0.6"/>
      </defs>
      <g>
       <use xlink:href="#m8e61c6403c" x="92.609237" y="365.038125" style="stroke: #000000; stroke-width: 0.6"/>
      </g>
     </g>
    </g>
    <g id="xtick_11">
     <g id="line2d_11">
      <g>
       <use xlink:href="#m8e61c6403c" x="157.616876" y="365.038125" style="stroke: #000000; stroke-width: 0.6"/>
      </g>
     </g>
    </g>
    <g id="xtick_12">
     <g id="line2d_12">
      <g>
       <use xlink:href="#m8e61c6403c" x="222.624515" y="365.038125" style="stroke: #000000; stroke-width: 0.6"/>
      </g>
     </g>
    </g>
    <g id="xtick_13">
     <g id="line2d_13">
      <g>
       <use xlink:href="#m8e61c6403c" x="287.632155" y="365.038125" style="stroke: #000000; stroke-width: 0.6"/>
      </g>
     </g>
    </g>
    <g id="xtick_14">
     <g id="line2d_14">
      <g>
       <use xlink:href="#m8e61c6403c" x="353.705493" y="365.038125" style="stroke: #000000; stroke-width: 0.6"/>
      </g>
     </g>
    </g>
    <g id="xtick_15">
     <g id="line2d_15">
      <g>
       <use xlink:href="#m8e61c6403c" x="416.581735" y="365.038125" style="stroke: #000000; stroke-width: 0.6"/>
      </g>
     </g>
    </g>
    <g id="xtick_16">
     <g id="line2d_16">
      <g>
       <use xlink:href="#m8e61c6403c" x="481.589374" y="365.038125" style="stroke: #000000; stroke-width: 0.6"/>
      </g>
     </g>
    </g>
    <g id="xtick_17">
     <g id="line2d_17">
      <g>
       <use xlink:href="#m8e61c6403c" x="546.597013" y="365.038125" style="stroke: #000000; stroke-width: 0.6"/>
      </g>
     </g>
    </g>
   </g>
   <g id="matplotlib.axis_2">
    <g id="ytick_1">
     <g id="line2d_18">
      <defs>
       <path id="m76d6701bf2" d="M 0 0 
L -3.5 0 
" style="stroke: #000000; stroke-width: 0.8"/>
      </defs>
      <g>
       <use xlink:href="#m76d6701bf2" x="40.603125" y="365.038125" style="stroke: #000000; stroke-width: 0.8"/>
      </g>
     </g>
     <g id="text_10">
      <!-- 0 -->
      <g transform="translate(27.240625 368.837344) scale(0.1 -0.1)">
       <use xlink:href="#DejaVuSans-30"/>
      </g>
     </g>
    </g>
    <g id="ytick_2">
     <g id="line2d_19">
      <g>
       <use xlink:href="#m76d6701bf2" x="40.603125" y="294.913947" style="stroke: #000000; stroke-width: 0.8"/>
      </g>
     </g>
     <g id="text_11">
      <!-- 5 -->
      <g transform="translate(27.240625 298.713166) scale(0.1 -0.1)">
       <use xlink:href="#DejaVuSans-35"/>
      </g>
     </g>
    </g>
    <g id="ytick_3">
     <g id="line2d_20">
      <g>
       <use xlink:href="#m76d6701bf2" x="40.603125" y="224.789769" style="stroke: #000000; stroke-width: 0.8"/>
      </g>
     </g>
     <g id="text_12">
      <!-- 10 -->
      <g transform="translate(20.878125 228.588987) scale(0.1 -0.1)">
       <use xlink:href="#DejaVuSans-31"/>
       <use xlink:href="#DejaVuSans-30" x="63.623047"/>
      </g>
     </g>
    </g>
    <g id="ytick_4">
     <g id="line2d_21">
      <g>
       <use xlink:href="#m76d6701bf2" x="40.603125" y="154.66559" style="stroke: #000000; stroke-width: 0.8"/>
      </g>
     </g>
     <g id="text_13">
      <!-- 15 -->
      <g transform="translate(20.878125 158.464809) scale(0.1 -0.1)">
       <use xlink:href="#DejaVuSans-31"/>
       <use xlink:href="#DejaVuSans-35" x="63.623047"/>
      </g>
     </g>
    </g>
    <g id="ytick_5">
     <g id="line2d_22">
      <g>
       <use xlink:href="#m76d6701bf2" x="40.603125" y="84.541412" style="stroke: #000000; stroke-width: 0.8"/>
      </g>
     </g>
     <g id="text_14">
      <!-- 20 -->
      <g transform="translate(20.878125 88.340631) scale(0.1 -0.1)">
       <use xlink:href="#DejaVuSans-32"/>
       <use xlink:href="#DejaVuSans-30" x="63.623047"/>
      </g>
     </g>
    </g>
    <g id="text_15">
     <!-- Daily Solar Generation and Energy Use (kWh) -->
     <g transform="translate(14.798437 307.6625) rotate(-90) scale(0.1 -0.1)">
      <defs>
       <path id="DejaVuSans-44" d="M 1259 4147 
L 1259 519 
L 2022 519 
Q 2988 519 3436 956 
Q 3884 1394 3884 2338 
Q 3884 3275 3436 3711 
Q 2988 4147 2022 4147 
L 1259 4147 
z
M 628 4666 
L 1925 4666 
Q 3281 4666 3915 4102 
Q 4550 3538 4550 2338 
Q 4550 1131 3912 565 
Q 3275 0 1925 0 
L 628 0 
L 628 4666 
z
" transform="scale(0.015625)"/>
       <path id="DejaVuSans-61" d="M 2194 1759 
Q 1497 1759 1228 1600 
Q 959 1441 959 1056 
Q 959 750 1161 570 
Q 1363 391 1709 391 
Q 2188 391 2477 730 
Q 2766 1069 2766 1631 
L 2766 1759 
L 2194 1759 
z
M 3341 1997 
L 3341 0 
L 2766 0 
L 2766 531 
Q 2569 213 2275 61 
Q 1981 -91 1556 -91 
Q 1019 -91 701 211 
Q 384 513 384 1019 
Q 384 1609 779 1909 
Q 1175 2209 1959 2209 
L 2766 2209 
L 2766 2266 
Q 2766 2663 2505 2880 
Q 2244 3097 1772 3097 
Q 1472 3097 1187 3025 
Q 903 2953 641 2809 
L 641 3341 
Q 956 3463 1253 3523 
Q 1550 3584 1831 3584 
Q 2591 3584 2966 3190 
Q 3341 2797 3341 1997 
z
" transform="scale(0.015625)"/>
       <path id="DejaVuSans-69" d="M 603 3500 
L 1178 3500 
L 1178 0 
L 603 0 
L 603 3500 
z
M 603 4863 
L 1178 4863 
L 1178 4134 
L 603 4134 
L 603 4863 
z
" transform="scale(0.015625)"/>
       <path id="DejaVuSans-6c" d="M 603 4863 
L 1178 4863 
L 1178 0 
L 603 0 
L 603 4863 
z
" transform="scale(0.015625)"/>
       <path id="DejaVuSans-79" d="M 2059 -325 
Q 1816 -950 1584 -1140 
Q 1353 -1331 966 -1331 
L 506 -1331 
L 506 -850 
L 844 -850 
Q 1081 -850 1212 -737 
Q 1344 -625 1503 -206 
L 1606 56 
L 191 3500 
L 800 3500 
L 1894 763 
L 2988 3500 
L 3597 3500 
L 2059 -325 
z
" transform="scale(0.015625)"/>
       <path id="DejaVuSans-20" transform="scale(0.015625)"/>
       <path id="DejaVuSans-53" d="M 3425 4513 
L 3425 3897 
Q 3066 4069 2747 4153 
Q 2428 4238 2131 4238 
Q 1616 4238 1336 4038 
Q 1056 3838 1056 3469 
Q 1056 3159 1242 3001 
Q 1428 2844 1947 2747 
L 2328 2669 
Q 3034 2534 3370 2195 
Q 3706 1856 3706 1288 
Q 3706 609 3251 259 
Q 2797 -91 1919 -91 
Q 1588 -91 1214 -16 
Q 841 59 441 206 
L 441 856 
Q 825 641 1194 531 
Q 1563 422 1919 422 
Q 2459 422 2753 634 
Q 3047 847 3047 1241 
Q 3047 1584 2836 1778 
Q 2625 1972 2144 2069 
L 1759 2144 
Q 1053 2284 737 2584 
Q 422 2884 422 3419 
Q 422 4038 858 4394 
Q 1294 4750 2059 4750 
Q 2388 4750 2728 4690 
Q 3069 4631 3425 4513 
z
" transform="scale(0.015625)"/>
       <path id="DejaVuSans-6f" d="M 1959 3097 
Q 1497 3097 1228 2736 
Q 959 2375 959 1747 
Q 959 1119 1226 758 
Q 1494 397 1959 397 
Q 2419 397 2687 759 
Q 2956 1122 2956 1747 
Q 2956 2369 2687 2733 
Q 2419 3097 1959 3097 
z
M 1959 3584 
Q 2709 3584 3137 3096 
Q 3566 2609 3566 1747 
Q 3566 888 3137 398 
Q 2709 -91 1959 -91 
Q 1206 -91 779 398 
Q 353 888 353 1747 
Q 353 2609 779 3096 
Q 1206 3584 1959 3584 
z
" transform="scale(0.015625)"/>
       <path id="DejaVuSans-72" d="M 2631 2963 
Q 2534 3019 2420 3045 
Q 2306 3072 2169 3072 
Q 1681 3072 1420 2755 
Q 1159 2438 1159 1844 
L 1159 0 
L 581 0 
L 581 3500 
L 1159 3500 
L 1159 2956 
Q 1341 3275 1631 3429 
Q 1922 3584 2338 3584 
Q 2397 3584 2469 3576 
Q 2541 3569 2628 3553 
L 2631 2963 
z
" transform="scale(0.015625)"/>
       <path id="DejaVuSans-47" d="M 3809 666 
L 3809 1919 
L 2778 1919 
L 2778 2438 
L 4434 2438 
L 4434 434 
Q 4069 175 3628 42 
Q 3188 -91 2688 -91 
Q 1594 -91 976 548 
Q 359 1188 359 2328 
Q 359 3472 976 4111 
Q 1594 4750 2688 4750 
Q 3144 4750 3555 4637 
Q 3966 4525 4313 4306 
L 4313 3634 
Q 3963 3931 3569 4081 
Q 3175 4231 2741 4231 
Q 1884 4231 1454 3753 
Q 1025 3275 1025 2328 
Q 1025 1384 1454 906 
Q 1884 428 2741 428 
Q 3075 428 3337 486 
Q 3600 544 3809 666 
z
" transform="scale(0.015625)"/>
       <path id="DejaVuSans-65" d="M 3597 1894 
L 3597 1613 
L 953 1613 
Q 991 1019 1311 708 
Q 1631 397 2203 397 
Q 2534 397 2845 478 
Q 3156 559 3463 722 
L 3463 178 
Q 3153 47 2828 -22 
Q 2503 -91 2169 -91 
Q 1331 -91 842 396 
Q 353 884 353 1716 
Q 353 2575 817 3079 
Q 1281 3584 2069 3584 
Q 2775 3584 3186 3129 
Q 3597 2675 3597 1894 
z
M 3022 2063 
Q 3016 2534 2758 2815 
Q 2500 3097 2075 3097 
Q 1594 3097 1305 2825 
Q 1016 2553 972 2059 
L 3022 2063 
z
" transform="scale(0.015625)"/>
       <path id="DejaVuSans-6e" d="M 3513 2113 
L 3513 0 
L 2938 0 
L 2938 2094 
Q 2938 2591 2744 2837 
Q 2550 3084 2163 3084 
Q 1697 3084 1428 2787 
Q 1159 2491 1159 1978 
L 1159 0 
L 581 0 
L 581 3500 
L 1159 3500 
L 1159 2956 
Q 1366 3272 1645 3428 
Q 1925 3584 2291 3584 
Q 2894 3584 3203 3211 
Q 3513 2838 3513 2113 
z
" transform="scale(0.015625)"/>
       <path id="DejaVuSans-74" d="M 1172 4494 
L 1172 3500 
L 2356 3500 
L 2356 3053 
L 1172 3053 
L 1172 1153 
Q 1172 725 1289 603 
Q 1406 481 1766 481 
L 2356 481 
L 2356 0 
L 1766 0 
Q 1100 0 847 248 
Q 594 497 594 1153 
L 594 3053 
L 172 3053 
L 172 3500 
L 594 3500 
L 594 4494 
L 1172 4494 
z
" transform="scale(0.015625)"/>
       <path id="DejaVuSans-64" d="M 2906 2969 
L 2906 4863 
L 3481 4863 
L 3481 0 
L 2906 0 
L 2906 525 
Q 2725 213 2448 61 
Q 2172 -91 1784 -91 
Q 1150 -91 751 415 
Q 353 922 353 1747 
Q 353 2572 751 3078 
Q 1150 3584 1784 3584 
Q 2172 3584 2448 3432 
Q 2725 3281 2906 2969 
z
M 947 1747 
Q 947 1113 1208 752 
Q 1469 391 1925 391 
Q 2381 391 2643 752 
Q 2906 1113 2906 1747 
Q 2906 2381 2643 2742 
Q 2381 3103 1925 3103 
Q 1469 3103 1208 2742 
Q 947 2381 947 1747 
z
" transform="scale(0.015625)"/>
       <path id="DejaVuSans-45" d="M 628 4666 
L 3578 4666 
L 3578 4134 
L 1259 4134 
L 1259 2753 
L 3481 2753 
L 3481 2222 
L 1259 2222 
L 1259 531 
L 3634 531 
L 3634 0 
L 628 0 
L 628 4666 
z
" transform="scale(0.015625)"/>
       <path id="DejaVuSans-67" d="M 2906 1791 
Q 2906 2416 2648 2759 
Q 2391 3103 1925 3103 
Q 1463 3103 1205 2759 
Q 947 2416 947 1791 
Q 947 1169 1205 825 
Q 1463 481 1925 481 
Q 2391 481 2648 825 
Q 2906 1169 2906 1791 
z
M 3481 434 
Q 3481 -459 3084 -895 
Q 2688 -1331 1869 -1331 
Q 1566 -1331 1297 -1286 
Q 1028 -1241 775 -1147 
L 775 -588 
Q 1028 -725 1275 -790 
Q 1522 -856 1778 -856 
Q 2344 -856 2625 -561 
Q 2906 -266 2906 331 
L 2906 616 
Q 2728 306 2450 153 
Q 2172 0 1784 0 
Q 1141 0 747 490 
Q 353 981 353 1791 
Q 353 2603 747 3093 
Q 1141 3584 1784 3584 
Q 2172 3584 2450 3431 
Q 2728 3278 2906 2969 
L 2906 3500 
L 3481 3500 
L 3481 434 
z
" transform="scale(0.015625)"/>
       <path id="DejaVuSans-55" d="M 556 4666 
L 1191 4666 
L 1191 1831 
Q 1191 1081 1462 751 
Q 1734 422 2344 422 
Q 2950 422 3222 751 
Q 3494 1081 3494 1831 
L 3494 4666 
L 4128 4666 
L 4128 1753 
Q 4128 841 3676 375 
Q 3225 -91 2344 -91 
Q 1459 -91 1007 375 
Q 556 841 556 1753 
L 556 4666 
z
" transform="scale(0.015625)"/>
       <path id="DejaVuSans-73" d="M 2834 3397 
L 2834 2853 
Q 2591 2978 2328 3040 
Q 2066 3103 1784 3103 
Q 1356 3103 1142 2972 
Q 928 2841 928 2578 
Q 928 2378 1081 2264 
Q 1234 2150 1697 2047 
L 1894 2003 
Q 2506 1872 2764 1633 
Q 3022 1394 3022 966 
Q 3022 478 2636 193 
Q 2250 -91 1575 -91 
Q 1294 -91 989 -36 
Q 684 19 347 128 
L 347 722 
Q 666 556 975 473 
Q 1284 391 1588 391 
Q 1994 391 2212 530 
Q 2431 669 2431 922 
Q 2431 1156 2273 1281 
Q 2116 1406 1581 1522 
L 1381 1569 
Q 847 1681 609 1914 
Q 372 2147 372 2553 
Q 372 3047 722 3315 
Q 1072 3584 1716 3584 
Q 2034 3584 2315 3537 
Q 2597 3491 2834 3397 
z
" transform="scale(0.015625)"/>
       <path id="DejaVuSans-28" d="M 1984 4856 
Q 1566 4138 1362 3434 
Q 1159 2731 1159 2009 
Q 1159 1288 1364 580 
Q 1569 -128 1984 -844 
L 1484 -844 
Q 1016 -109 783 600 
Q 550 1309 550 2009 
Q 550 2706 781 3412 
Q 1013 4119 1484 4856 
L 1984 4856 
z
" transform="scale(0.015625)"/>
       <path id="DejaVuSans-6b" d="M 581 4863 
L 1159 4863 
L 1159 1991 
L 2875 3500 
L 3609 3500 
L 1753 1863 
L 3688 0 
L 2938 0 
L 1159 1709 
L 1159 0 
L 581 0 
L 581 4863 
z
" transform="scale(0.015625)"/>
       <path id="DejaVuSans-57" d="M 213 4666 
L 850 4666 
L 1831 722 
L 2809 4666 
L 3519 4666 
L 4500 722 
L 5478 4666 
L 6119 4666 
L 4947 0 
L 4153 0 
L 3169 4050 
L 2175 0 
L 1381 0 
L 213 4666 
z
" transform="scale(0.015625)"/>
       <path id="DejaVuSans-68" d="M 3513 2113 
L 3513 0 
L 2938 0 
L 2938 2094 
Q 2938 2591 2744 2837 
Q 2550 3084 2163 3084 
Q 1697 3084 1428 2787 
Q 1159 2491 1159 1978 
L 1159 0 
L 581 0 
L 581 4863 
L 1159 4863 
L 1159 2956 
Q 1366 3272 1645 3428 
Q 1925 3584 2291 3584 
Q 2894 3584 3203 3211 
Q 3513 2838 3513 2113 
z
" transform="scale(0.015625)"/>
       <path id="DejaVuSans-29" d="M 513 4856 
L 1013 4856 
Q 1481 4119 1714 3412 
Q 1947 2706 1947 2009 
Q 1947 1309 1714 600 
Q 1481 -109 1013 -844 
L 513 -844 
Q 928 -128 1133 580 
Q 1338 1288 1338 2009 
Q 1338 2731 1133 3434 
Q 928 4138 513 4856 
z
" transform="scale(0.015625)"/>
      </defs>
      <use xlink:href="#DejaVuSans-44"/>
      <use xlink:href="#DejaVuSans-61" x="77.001953"/>
      <use xlink:href="#DejaVuSans-69" x="138.28125"/>
      <use xlink:href="#DejaVuSans-6c" x="166.064453"/>
      <use xlink:href="#DejaVuSans-79" x="193.847656"/>
      <use xlink:href="#DejaVuSans-20" x="253.027344"/>
      <use xlink:href="#DejaVuSans-53" x="284.814453"/>
      <use xlink:href="#DejaVuSans-6f" x="348.291016"/>
      <use xlink:href="#DejaVuSans-6c" x="409.472656"/>
      <use xlink:href="#DejaVuSans-61" x="437.255859"/>
      <use xlink:href="#DejaVuSans-72" x="498.535156"/>
      <use xlink:href="#DejaVuSans-20" x="539.648438"/>
      <use xlink:href="#DejaVuSans-47" x="571.435547"/>
      <use xlink:href="#DejaVuSans-65" x="648.925781"/>
      <use xlink:href="#DejaVuSans-6e" x="710.449219"/>
      <use xlink:href="#DejaVuSans-65" x="773.828125"/>
      <use xlink:href="#DejaVuSans-72" x="835.351562"/>
      <use xlink:href="#DejaVuSans-61" x="876.464844"/>
      <use xlink:href="#DejaVuSans-74" x="937.744141"/>
      <use xlink:href="#DejaVuSans-69" x="976.953125"/>
      <use xlink:href="#DejaVuSans-6f" x="1004.736328"/>
      <use xlink:href="#DejaVuSans-6e" x="1065.917969"/>
      <use xlink:href="#DejaVuSans-20" x="1129.296875"/>
      <use xlink:href="#DejaVuSans-61" x="1161.083984"/>
      <use xlink:href="#DejaVuSans-6e" x="1222.363281"/>
      <use xlink:href="#DejaVuSans-64" x="1285.742188"/>
      <use xlink:href="#DejaVuSans-20" x="1349.21875"/>
      <use xlink:href="#DejaVuSans-45" x="1381.005859"/>
      <use xlink:href="#DejaVuSans-6e" x="1444.189453"/>
      <use xlink:href="#DejaVuSans-65" x="1507.568359"/>
      <use xlink:href="#DejaVuSans-72" x="1569.091797"/>
      <use xlink:href="#DejaVuSans-67" x="1608.455078"/>
      <use xlink:href="#DejaVuSans-79" x="1671.931641"/>
      <use xlink:href="#DejaVuSans-20" x="1731.111328"/>
      <use xlink:href="#DejaVuSans-55" x="1762.898438"/>
      <use xlink:href="#DejaVuSans-73" x="1836.091797"/>
      <use xlink:href="#DejaVuSans-65" x="1888.191406"/>
      <use xlink:href="#DejaVuSans-20" x="1949.714844"/>
      <use xlink:href="#DejaVuSans-28" x="1981.501953"/>
      <use xlink:href="#DejaVuSans-6b" x="2020.515625"/>
      <use xlink:href="#DejaVuSans-57" x="2078.425781"/>
      <use xlink:href="#DejaVuSans-68" x="2177.302734"/>
      <use xlink:href="#DejaVuSans-29" x="2240.681641"/>
     </g>
    </g>
   </g>
   <g id="PolyCollection_1">
    <path d="M 65.966761 257.13104 
L 65.966761 365.038125 
L 73.426654 365.038125 
L 80.886547 365.038125 
L 88.346441 365.038125 
L 95.806334 365.038125 
L 103.266227 365.038125 
L 110.72612 365.038125 
L 118.186013 365.038125 
L 125.645906 365.038125 
L 133.105799 365.038125 
L 140.565692 365.038125 
L 148.025585 365.038125 
L 155.485478 365.038125 
L 162.945371 365.038125 
L 170.405264 365.038125 
L 177.865157 365.038125 
L 185.32505 365.038125 
L 192.784943 365.038125 
L 200.244836 365.038125 
L 207.704729 365.038125 
L 215.164622 365.038125 
L 222.624515 365.038125 
L 230.084408 365.038125 
L 237.544301 365.038125 
L 245.004195 365.038125 
L 252.464088 365.038125 
L 259.923981 365.038125 
L 266.318175 365.038125 
L 274.843767 365.038125 
L 282.30366 365.038125 
L 289.763553 365.038125 
L 297.223446 365.038125 
L 304.683339 365.038125 
L 312.143232 365.038125 
L 319.603125 365.038125 
L 327.063018 365.038125 
L 334.522911 365.038125 
L 341.982804 365.038125 
L 349.442697 365.038125 
L 356.90259 365.038125 
L 364.362483 365.038125 
L 371.822376 365.038125 
L 379.282269 365.038125 
L 386.742162 365.038125 
L 394.202055 365.038125 
L 401.661949 365.038125 
L 409.121842 365.038125 
L 416.581735 365.038125 
L 424.041628 365.038125 
L 431.501521 365.038125 
L 438.961414 365.038125 
L 446.421307 365.038125 
L 453.8812 365.038125 
L 461.341093 365.038125 
L 468.800986 365.038125 
L 476.260879 365.038125 
L 483.720772 365.038125 
L 491.180665 365.038125 
L 498.640558 365.038125 
L 506.100451 365.038125 
L 513.560344 365.038125 
L 519.954538 365.038125 
L 528.48013 365.038125 
L 535.940023 365.038125 
L 543.399916 365.038125 
L 549.79411 365.038125 
L 558.319703 365.038125 
L 565.779596 365.038125 
L 573.239489 365.038125 
L 573.239489 326.365642 
L 573.239489 326.365642 
L 565.779596 319.421345 
L 558.319703 316.938949 
L 549.79411 319.048685 
L 543.399916 329.094475 
L 535.940023 326.193337 
L 528.48013 317.173364 
L 519.954538 322.711171 
L 513.560344 321.855656 
L 506.100451 322.352536 
L 498.640558 322.200266 
L 491.180665 288.704952 
L 483.720772 323.584718 
L 476.260879 319.273083 
L 468.800986 323.955374 
L 461.341093 320.425123 
L 453.8812 326.105181 
L 446.421307 320.901967 
L 438.961414 319.459413 
L 431.501521 319.30514 
L 424.041628 316.271768 
L 416.581735 316.087441 
L 409.121842 294.47517 
L 401.661949 247.614187 
L 394.202055 293.645701 
L 386.742162 269.208427 
L 379.282269 246.275817 
L 371.822376 260.99388 
L 364.362483 277.629339 
L 356.90259 254.139742 
L 349.442697 267.625624 
L 341.982804 270.965538 
L 334.522911 271.75694 
L 327.063018 271.893181 
L 319.603125 272.137614 
L 312.143232 275.980419 
L 304.683339 270.538782 
L 297.223446 257.362449 
L 289.763553 253.098899 
L 282.30366 262.558651 
L 274.843767 283.27734 
L 266.318175 257.104993 
L 259.923981 247.055197 
L 252.464088 267.5555 
L 245.004195 259.925989 
L 237.544301 241.383153 
L 230.084408 256.489904 
L 222.624515 256.766394 
L 215.164622 259.773719 
L 207.704729 260.048205 
L 200.244836 251.086335 
L 192.784943 255.618361 
L 185.32505 243.943687 
L 177.865157 252.3085 
L 170.405264 252.90756 
L 162.945371 256.301571 
L 155.485478 254.540452 
L 148.025585 256.491908 
L 140.565692 244.973511 
L 133.105799 233.218695 
L 125.645906 252.989706 
L 118.186013 256.305578 
L 110.72612 247.257555 
L 103.266227 256.07517 
L 95.806334 256.103219 
L 88.346441 257.036873 
L 80.886547 258.25503 
L 73.426654 263.079573 
L 65.966761 257.13104 
z
" clip-path="url(#pc783629ca8)" style="fill: #1f77b4"/>
   </g>
   <g id="PolyCollection_2">
    <path d="M 65.966761 257.13104 
L 65.966761 257.13104 
L 73.426654 263.079573 
L 80.886547 258.25503 
L 88.346441 257.036873 
L 95.806334 256.103219 
L 103.266227 256.07517 
L 110.72612 247.257555 
L 118.186013 256.305578 
L 125.645906 252.989706 
L 133.105799 233.218695 
L 140.565692 244.973511 
L 148.025585 256.491908 
L 155.485478 254.540452 
L 162.945371 256.301571 
L 170.405264 252.90756 
L 177.865157 252.3085 
L 185.32505 243.943687 
L 192.784943 255.618361 
L 200.244836 251.086335 
L 207.704729 260.048205 
L 215.164622 259.773719 
L 222.624515 256.766394 
L 230.084408 256.489904 
L 237.544301 241.383153 
L 245.004195 259.925989 
L 252.464088 267.5555 
L 259.923981 247.055197 
L 266.318175 257.104993 
L 274.843767 283.27734 
L 282.30366 262.558651 
L 289.763553 253.098899 
L 297.223446 257.362449 
L 304.683339 270.538782 
L 312.143232 275.980419 
L 319.603125 272.137614 
L 327.063018 271.893181 
L 334.522911 271.75694 
L 341.982804 270.965538 
L 349.442697 267.625624 
L 356.90259 254.139742 
L 364.362483 277.629339 
L 371.822376 260.99388 
L 379.282269 246.275817 
L 386.742162 269.208427 
L 394.202055 293.645701 
L 401.661949 247.614187 
L 409.121842 294.47517 
L 416.581735 316.087441 
L 424.041628 316.271768 
L 431.501521 319.30514 
L 438.961414 319.459413 
L 446.421307 320.901967 
L 453.8812 326.105181 
L 461.341093 320.425123 
L 468.800986 323.955374 
L 476.260879 319.273083 
L 483.720772 323.584718 
L 491.180665 288.704952 
L 498.640558 322.200266 
L 506.100451 322.352536 
L 513.560344 321.855656 
L 519.954538 322.711171 
L 528.48013 317.173364 
L 535.940023 326.193337 
L 543.399916 329.094475 
L 549.79411 319.048685 
L 558.319703 316.938949 
L 565.779596 319.421345 
L 573.239489 326.365642 
L 573.239489 291.752348 
L 573.239489 291.752348 
L 565.779596 284.597678 
L 558.319703 283.86438 
L 549.79411 287.160216 
L 543.399916 298.135652 
L 535.940023 293.88212 
L 528.48013 286.567166 
L 519.954538 291.39772 
L 513.560344 292.321356 
L 506.100451 292.675984 
L 498.640558 296.7512 
L 491.180665 259.022389 
L 483.720772 296.023912 
L 476.260879 289.710733 
L 468.800986 292.966498 
L 461.341093 292.561781 
L 453.8812 298.071538 
L 446.421307 290.486106 
L 438.961414 293.242988 
L 431.501521 293.749885 
L 424.041628 289.620573 
L 416.581735 295.196447 
L 409.121842 294.47517 
L 401.661949 247.614187 
L 394.202055 293.645701 
L 386.742162 269.208427 
L 379.282269 246.275817 
L 371.822376 260.99388 
L 364.362483 277.629339 
L 356.90259 254.139742 
L 349.442697 267.625624 
L 341.982804 270.965538 
L 334.522911 271.75694 
L 327.063018 271.893181 
L 319.603125 272.137614 
L 312.143232 275.980419 
L 304.683339 270.538782 
L 297.223446 257.362449 
L 289.763553 253.098899 
L 282.30366 262.558651 
L 274.843767 283.27734 
L 266.318175 257.104993 
L 259.923981 247.055197 
L 252.464088 267.5555 
L 245.004195 259.925989 
L 237.544301 241.383153 
L 230.084408 256.489904 
L 222.624515 256.766394 
L 215.164622 259.773719 
L 207.704729 260.048205 
L 200.244836 251.086335 
L 192.784943 255.618361 
L 185.32505 243.943687 
L 177.865157 252.3085 
L 170.405264 252.90756 
L 162.945371 256.301571 
L 155.485478 254.540452 
L 148.025585 256.491908 
L 140.565692 244.973511 
L 133.105799 233.218695 
L 125.645906 252.989706 
L 118.186013 256.305578 
L 110.72612 247.257555 
L 103.266227 256.07517 
L 95.806334 256.103219 
L 88.346441 257.036873 
L 80.886547 258.25503 
L 73.426654 263.079573 
L 65.966761 257.13104 
z
" clip-path="url(#pc783629ca8)" style="fill: #ff7f0e"/>
   </g>
   <g id="PolyCollection_3">
    <path d="M 65.966761 257.13104 
L 65.966761 257.13104 
L 73.426654 263.079573 
L 80.886547 258.25503 
L 88.346441 257.036873 
L 95.806334 256.103219 
L 103.266227 256.07517 
L 110.72612 247.257555 
L 118.186013 256.305578 
L 125.645906 252.989706 
L 133.105799 233.218695 
L 140.565692 244.973511 
L 148.025585 256.491908 
L 155.485478 254.540452 
L 162.945371 256.301571 
L 170.405264 252.90756 
L 177.865157 252.3085 
L 185.32505 243.943687 
L 192.784943 255.618361 
L 200.244836 251.086335 
L 207.704729 260.048205 
L 215.164622 259.773719 
L 222.624515 256.766394 
L 230.084408 256.489904 
L 237.544301 241.383153 
L 245.004195 259.925989 
L 252.464088 267.5555 
L 259.923981 247.055197 
L 266.318175 257.104993 
L 274.843767 283.27734 
L 282.30366 262.558651 
L 289.763553 253.098899 
L 297.223446 257.362449 
L 304.683339 270.538782 
L 312.143232 275.980419 
L 319.603125 272.137614 
L 327.063018 271.893181 
L 334.522911 271.75694 
L 341.982804 270.965538 
L 349.442697 267.625624 
L 356.90259 254.139742 
L 364.362483 277.629339 
L 371.822376 260.99388 
L 379.282269 246.275817 
L 386.742162 269.208427 
L 394.202055 293.645701 
L 401.661949 247.614187 
L 409.121842 294.47517 
L 416.581735 295.196447 
L 424.041628 289.620573 
L 431.501521 293.749885 
L 438.961414 293.242988 
L 446.421307 290.486106 
L 453.8812 298.071538 
L 461.341093 292.561781 
L 468.800986 292.966498 
L 476.260879 289.710733 
L 483.720772 296.023912 
L 491.180665 259.022389 
L 498.640558 296.7512 
L 506.100451 292.675984 
L 513.560344 292.321356 
L 519.954538 291.39772 
L 528.48013 286.567166 
L 535.940023 293.88212 
L 543.399916 298.135652 
L 549.79411 287.160216 
L 558.319703 283.86438 
L 565.779596 284.597678 
L 573.239489 291.752348 
L 573.239489 278.228399 
L 573.239489 278.228399 
L 565.779596 270.021867 
L 558.319703 271.29412 
L 549.79411 274.000913 
L 543.399916 293.084707 
L 535.940023 282.846577 
L 528.48013 274.263378 
L 519.954538 280.568543 
L 513.560344 278.040066 
L 506.100451 279.136007 
L 498.640558 284.67782 
L 491.180665 244.124006 
L 483.720772 283.956543 
L 476.260879 276.425206 
L 468.800986 278.228399 
L 461.341093 279.434535 
L 453.8812 284.323192 
L 446.421307 278.370651 
L 438.961414 278.82145 
L 431.501521 278.709251 
L 424.041628 277.350845 
L 416.581735 282.584113 
L 409.121842 277.843718 
L 401.661949 246.388015 
L 394.202055 293.645701 
L 386.742162 269.208427 
L 379.282269 246.275817 
L 371.822376 260.99388 
L 364.362483 277.629339 
L 356.90259 254.139742 
L 349.442697 267.625624 
L 341.982804 270.965538 
L 334.522911 271.75694 
L 327.063018 271.893181 
L 319.603125 272.137614 
L 312.143232 275.980419 
L 304.683339 270.538782 
L 297.223446 257.362449 
L 289.763553 253.098899 
L 282.30366 262.558651 
L 274.843767 283.27734 
L 266.318175 257.104993 
L 259.923981 247.055197 
L 252.464088 267.5555 
L 245.004195 259.925989 
L 237.544301 241.383153 
L 230.084408 256.489904 
L 222.624515 256.766394 
L 215.164622 259.773719 
L 207.704729 260.048205 
L 200.244836 251.086335 
L 192.784943 255.618361 
L 185.32505 243.943687 
L 177.865157 252.3085 
L 170.405264 252.90756 
L 162.945371 256.301571 
L 155.485478 254.540452 
L 148.025585 256.491908 
L 140.565692 244.973511 
L 133.105799 233.218695 
L 125.645906 252.989706 
L 118.186013 256.305578 
L 110.72612 247.257555 
L 103.266227 256.07517 
L 95.806334 256.103219 
L 88.346441 257.036873 
L 80.886547 258.25503 
L 73.426654 263.079573 
L 65.966761 257.13104 
z
" clip-path="url(#pc783629ca8)" style="fill: #2ca02c"/>
   </g>
   <g id="PolyCollection_4">
    <path d="M 65.966761 257.13104 
L 65.966761 257.13104 
L 73.426654 263.079573 
L 80.886547 258.25503 
L 88.346441 257.036873 
L 95.806334 256.103219 
L 103.266227 256.07517 
L 110.72612 247.257555 
L 118.186013 256.305578 
L 125.645906 252.989706 
L 133.105799 233.218695 
L 140.565692 244.973511 
L 148.025585 256.491908 
L 155.485478 254.540452 
L 162.945371 256.301571 
L 170.405264 252.90756 
L 177.865157 252.3085 
L 185.32505 243.943687 
L 192.784943 255.618361 
L 200.244836 251.086335 
L 207.704729 260.048205 
L 215.164622 259.773719 
L 222.624515 256.766394 
L 230.084408 256.489904 
L 237.544301 241.383153 
L 245.004195 259.925989 
L 252.464088 267.5555 
L 259.923981 247.055197 
L 266.318175 257.104993 
L 274.843767 283.27734 
L 282.30366 262.558651 
L 289.763553 253.098899 
L 297.223446 257.362449 
L 304.683339 270.538782 
L 312.143232 275.980419 
L 319.603125 272.137614 
L 327.063018 271.893181 
L 334.522911 271.75694 
L 341.982804 270.965538 
L 349.442697 267.625624 
L 356.90259 254.139742 
L 364.362483 277.629339 
L 371.822376 260.99388 
L 379.282269 246.275817 
L 386.742162 269.208427 
L 394.202055 293.645701 
L 401.661949 246.388015 
L 409.121842 277.843718 
L 416.581735 282.584113 
L 424.041628 277.350845 
L 431.501521 278.709251 
L 438.961414 278.82145 
L 446.421307 278.370651 
L 453.8812 284.323192 
L 461.341093 279.434535 
L 468.800986 278.228399 
L 476.260879 276.425206 
L 483.720772 283.956543 
L 491.180665 244.124006 
L 498.640558 284.67782 
L 506.100451 279.136007 
L 513.560344 278.040066 
L 519.954538 280.568543 
L 528.48013 274.263378 
L 535.940023 282.846577 
L 543.399916 293.084707 
L 549.79411 274.000913 
L 558.319703 271.29412 
L 565.779596 270.021867 
L 573.239489 278.228399 
L 573.239489 274.656073 
L 573.239489 274.656073 
L 565.779596 266.607821 
L 558.319703 268.883852 
L 549.79411 270.372488 
L 543.399916 291.944689 
L 535.940023 278.993755 
L 528.48013 271.945273 
L 519.954538 277.999995 
L 513.560344 274.217296 
L 506.100451 275.038751 
L 498.640558 282.347694 
L 491.180665 241.323046 
L 483.720772 280.798951 
L 476.260879 272.484227 
L 468.800986 273.958839 
L 461.341093 275.287191 
L 453.8812 280.356167 
L 446.421307 274.255364 
L 438.961414 274.938574 
L 431.501521 274.708166 
L 424.041628 272.478217 
L 416.581735 276.607529 
L 409.121842 272.053465 
L 401.661949 245.580586 
L 394.202055 293.645701 
L 386.742162 269.208427 
L 379.282269 246.275817 
L 371.822376 260.99388 
L 364.362483 277.629339 
L 356.90259 254.139742 
L 349.442697 267.625624 
L 341.982804 270.965538 
L 334.522911 271.75694 
L 327.063018 271.893181 
L 319.603125 272.137614 
L 312.143232 275.980419 
L 304.683339 270.538782 
L 297.223446 257.362449 
L 289.763553 253.098899 
L 282.30366 262.558651 
L 274.843767 283.27734 
L 266.318175 257.104993 
L 259.923981 247.055197 
L 252.464088 267.5555 
L 245.004195 259.925989 
L 237.544301 241.383153 
L 230.084408 256.489904 
L 222.624515 256.766394 
L 215.164622 259.773719 
L 207.704729 260.048205 
L 200.244836 251.086335 
L 192.784943 255.618361 
L 185.32505 243.943687 
L 177.865157 252.3085 
L 170.405264 252.90756 
L 162.945371 256.301571 
L 155.485478 254.540452 
L 148.025585 256.491908 
L 140.565692 244.973511 
L 133.105799 233.218695 
L 125.645906 252.989706 
L 118.186013 256.305578 
L 110.72612 247.257555 
L 103.266227 256.07517 
L 95.806334 256.103219 
L 88.346441 257.036873 
L 80.886547 258.25503 
L 73.426654 263.079573 
L 65.966761 257.13104 
z
" clip-path="url(#pc783629ca8)" style="fill: #d62728"/>
   </g>
   <g id="PolyCollection_5">
    <path d="M 65.966761 255.361907 
L 65.966761 257.13104 
L 73.426654 263.079573 
L 80.886547 258.25503 
L 88.346441 257.036873 
L 95.806334 256.103219 
L 103.266227 256.07517 
L 110.72612 247.257555 
L 118.186013 256.305578 
L 125.645906 252.989706 
L 133.105799 233.218695 
L 140.565692 244.973511 
L 148.025585 256.491908 
L 155.485478 254.540452 
L 162.945371 256.301571 
L 170.405264 252.90756 
L 177.865157 252.3085 
L 185.32505 243.943687 
L 192.784943 255.618361 
L 200.244836 251.086335 
L 207.704729 260.048205 
L 215.164622 259.773719 
L 222.624515 256.766394 
L 230.084408 256.489904 
L 237.544301 241.383153 
L 245.004195 259.925989 
L 252.464088 267.5555 
L 259.923981 247.055197 
L 266.318175 257.104993 
L 274.843767 283.27734 
L 282.30366 262.558651 
L 289.763553 253.098899 
L 297.223446 257.362449 
L 304.683339 270.538782 
L 312.143232 275.980419 
L 319.603125 272.137614 
L 327.063018 271.893181 
L 334.522911 271.75694 
L 341.982804 270.965538 
L 349.442697 267.625624 
L 356.90259 254.139742 
L 364.362483 277.629339 
L 371.822376 260.99388 
L 379.282269 246.275817 
L 386.742162 269.208427 
L 394.202055 293.645701 
L 401.661949 245.580586 
L 409.121842 272.053465 
L 416.581735 276.607529 
L 424.041628 272.478217 
L 431.501521 274.708166 
L 438.961414 274.938574 
L 446.421307 274.255364 
L 453.8812 280.356167 
L 461.341093 275.287191 
L 468.800986 273.958839 
L 476.260879 272.484227 
L 483.720772 280.798951 
L 491.180665 241.323046 
L 498.640558 282.347694 
L 506.100451 275.038751 
L 513.560344 274.217296 
L 519.954538 277.999995 
L 528.48013 271.945273 
L 535.940023 278.993755 
L 543.399916 291.944689 
L 549.79411 270.372488 
L 558.319703 268.883852 
L 565.779596 266.607821 
L 573.239489 274.656073 
L 573.239489 274.656073 
L 573.239489 274.656073 
L 565.779596 266.607821 
L 558.319703 268.883852 
L 549.79411 270.372488 
L 543.399916 291.944689 
L 535.940023 278.993755 
L 528.48013 271.945273 
L 519.954538 277.999995 
L 513.560344 274.217296 
L 506.100451 273.301675 
L 498.640558 281.259767 
L 491.180665 239.55191 
L 483.720772 275.912298 
L 476.260879 269.000058 
L 468.800986 272.263837 
L 461.341093 267.27901 
L 453.8812 274.325488 
L 446.421307 274.255364 
L 438.961414 270.015856 
L 431.501521 274.708166 
L 424.041628 253.604795 
L 416.581735 261.470724 
L 409.121842 265.766331 
L 401.661949 243.989769 
L 394.202055 293.645701 
L 386.742162 259.625457 
L 379.282269 237.949071 
L 371.822376 243.789414 
L 364.362483 262.107853 
L 356.90259 242.933899 
L 349.442697 263.13968 
L 341.982804 258.044657 
L 334.522911 263.778812 
L 327.063018 264.7325 
L 319.603125 261.003898 
L 312.143232 270.492701 
L 304.683339 260.665298 
L 297.223446 247.450647 
L 289.763553 251.540389 
L 282.30366 262.558651 
L 274.843767 280.350157 
L 266.318175 254.48836 
L 259.923981 246.081473 
L 252.464088 267.5555 
L 245.004195 259.925989 
L 237.544301 241.383153 
L 230.084408 256.489904 
L 222.624515 256.766394 
L 215.164622 259.773719 
L 207.704729 260.048205 
L 200.244836 251.086335 
L 192.784943 255.618361 
L 185.32505 243.943687 
L 177.865157 252.3085 
L 170.405264 252.90756 
L 162.945371 256.301571 
L 155.485478 254.540452 
L 148.025585 256.491908 
L 140.565692 244.973511 
L 133.105799 233.218695 
L 125.645906 252.989706 
L 118.186013 256.305578 
L 110.72612 247.257555 
L 103.266227 256.07517 
L 95.806334 256.103219 
L 88.346441 257.036873 
L 80.886547 257.281306 
L 73.426654 262.167959 
L 65.966761 255.361907 
z
" clip-path="url(#pc783629ca8)" style="fill: #9467bd"/>
   </g>
   <g id="PolyCollection_6">
    <path d="M 65.966761 255.361907 
L 65.966761 255.361907 
L 73.426654 262.167959 
L 80.886547 257.281306 
L 88.346441 257.036873 
L 95.806334 256.103219 
L 103.266227 256.07517 
L 110.72612 247.257555 
L 118.186013 256.305578 
L 125.645906 252.989706 
L 133.105799 233.218695 
L 140.565692 244.973511 
L 148.025585 256.491908 
L 155.485478 254.540452 
L 162.945371 256.301571 
L 170.405264 252.90756 
L 177.865157 252.3085 
L 185.32505 243.943687 
L 192.784943 255.618361 
L 200.244836 251.086335 
L 207.704729 260.048205 
L 215.164622 259.773719 
L 222.624515 256.766394 
L 230.084408 256.489904 
L 237.544301 241.383153 
L 245.004195 259.925989 
L 252.464088 267.5555 
L 259.923981 246.081473 
L 266.318175 254.48836 
L 274.843767 280.350157 
L 282.30366 262.558651 
L 289.763553 251.540389 
L 297.223446 247.450647 
L 304.683339 260.665298 
L 312.143232 270.492701 
L 319.603125 261.003898 
L 327.063018 264.7325 
L 334.522911 263.778812 
L 341.982804 258.044657 
L 349.442697 263.13968 
L 356.90259 242.933899 
L 364.362483 262.107853 
L 371.822376 243.789414 
L 379.282269 237.949071 
L 386.742162 259.625457 
L 394.202055 293.645701 
L 401.661949 243.989769 
L 409.121842 265.766331 
L 416.581735 261.470724 
L 424.041628 253.604795 
L 431.501521 274.708166 
L 438.961414 270.015856 
L 446.421307 274.255364 
L 453.8812 274.325488 
L 461.341093 267.27901 
L 468.800986 272.263837 
L 476.260879 269.000058 
L 483.720772 275.912298 
L 491.180665 239.55191 
L 498.640558 281.259767 
L 506.100451 273.301675 
L 513.560344 274.217296 
L 519.954538 277.999995 
L 528.48013 271.945273 
L 535.940023 278.993755 
L 543.399916 291.944689 
L 549.79411 270.372488 
L 558.319703 268.883852 
L 565.779596 266.607821 
L 573.239489 274.656073 
L 573.239489 274.656073 
L 573.239489 274.656073 
L 565.779596 266.607821 
L 558.319703 268.883852 
L 549.79411 270.372488 
L 543.399916 291.938678 
L 535.940023 278.993755 
L 528.48013 271.945273 
L 519.954538 277.999995 
L 513.560344 274.217296 
L 506.100451 273.301675 
L 498.640558 281.259767 
L 491.180665 239.55191 
L 483.720772 275.912298 
L 476.260879 269.000058 
L 468.800986 272.263837 
L 461.341093 267.27901 
L 453.8812 274.325488 
L 446.421307 274.255364 
L 438.961414 270.015856 
L 431.501521 274.708166 
L 424.041628 253.604795 
L 416.581735 256.039106 
L 409.121842 265.766331 
L 401.661949 242.439022 
L 394.202055 288.220093 
L 386.742162 224.176683 
L 379.282269 230.327575 
L 371.822376 213.271371 
L 364.362483 261.190228 
L 356.90259 222.103011 
L 349.442697 252.015982 
L 341.982804 228.700694 
L 334.522911 263.778812 
L 327.063018 252.088109 
L 319.603125 244.891365 
L 312.143232 250.312966 
L 304.683339 235.194193 
L 297.223446 236.86966 
L 289.763553 241.510879 
L 282.30366 262.558651 
L 274.843767 279.550741 
L 266.318175 254.48836 
L 259.923981 246.081473 
L 252.464088 267.5555 
L 245.004195 259.925989 
L 237.544301 241.383153 
L 230.084408 256.489904 
L 222.624515 256.766394 
L 215.164622 259.771716 
L 207.704729 260.048205 
L 200.244836 244.083935 
L 192.784943 255.618361 
L 185.32505 243.943687 
L 177.865157 252.3085 
L 170.405264 252.90756 
L 162.945371 256.301571 
L 155.485478 254.540452 
L 148.025585 256.491908 
L 140.565692 244.973511 
L 133.105799 233.218695 
L 125.645906 252.989706 
L 118.186013 256.305578 
L 110.72612 247.257555 
L 103.266227 256.07517 
L 95.806334 256.103219 
L 88.346441 257.036873 
L 80.886547 257.265277 
L 73.426654 262.167959 
L 65.966761 255.361907 
z
" clip-path="url(#pc783629ca8)" style="fill: #8c564b"/>
   </g>
   <g id="PolyCollection_7">
    <path d="M 65.966761 189.359027 
L 65.966761 255.361907 
L 73.426654 262.167959 
L 80.886547 257.265277 
L 88.346441 257.036873 
L 95.806334 256.103219 
L 103.266227 256.07517 
L 110.72612 247.257555 
L 118.186013 256.305578 
L 125.645906 252.989706 
L 133.105799 233.218695 
L 140.565692 244.973511 
L 148.025585 256.491908 
L 155.485478 254.540452 
L 162.945371 256.301571 
L 170.405264 252.90756 
L 177.865157 252.3085 
L 185.32505 243.943687 
L 192.784943 255.618361 
L 200.244836 244.083935 
L 207.704729 260.048205 
L 215.164622 259.771716 
L 222.624515 256.766394 
L 230.084408 256.489904 
L 237.544301 241.383153 
L 245.004195 259.925989 
L 252.464088 267.5555 
L 259.923981 246.081473 
L 266.318175 254.48836 
L 274.843767 279.550741 
L 282.30366 262.558651 
L 289.763553 241.510879 
L 297.223446 236.86966 
L 304.683339 235.194193 
L 312.143232 250.312966 
L 319.603125 244.891365 
L 327.063018 252.088109 
L 334.522911 263.778812 
L 341.982804 228.700694 
L 349.442697 252.015982 
L 356.90259 222.103011 
L 364.362483 261.190228 
L 371.822376 213.271371 
L 379.282269 230.327575 
L 386.742162 224.176683 
L 394.202055 288.220093 
L 401.661949 242.439022 
L 409.121842 265.766331 
L 416.581735 256.039106 
L 424.041628 253.604795 
L 431.501521 274.708166 
L 438.961414 270.015856 
L 446.421307 274.255364 
L 453.8812 274.325488 
L 461.341093 267.27901 
L 468.800986 272.263837 
L 476.260879 269.000058 
L 483.720772 275.912298 
L 491.180665 239.55191 
L 498.640558 281.259767 
L 506.100451 273.301675 
L 513.560344 274.217296 
L 519.954538 277.999995 
L 528.48013 271.945273 
L 535.940023 278.993755 
L 543.399916 291.938678 
L 549.79411 270.372488 
L 558.319703 268.883852 
L 565.779596 266.607821 
L 573.239489 274.656073 
L 573.239489 149.877111 
L 573.239489 149.877111 
L 565.779596 174.723109 
L 558.319703 148.28429 
L 549.79411 148.228191 
L 543.399916 194.428003 
L 535.940023 113.594861 
L 528.48013 101.006569 
L 519.954538 153.647788 
L 513.560344 189.42314 
L 506.100451 180.890029 
L 498.640558 231.978499 
L 491.180665 199.657263 
L 483.720772 152.57589 
L 476.260879 140.197971 
L 468.800986 199.002103 
L 461.341093 174.51474 
L 453.8812 161.732104 
L 446.421307 172.711547 
L 438.961414 191.442716 
L 431.501521 234.300611 
L 424.041628 141.103574 
L 416.581735 140.169921 
L 409.121842 127.894183 
L 401.661949 192.891282 
L 394.202055 227.093849 
L 386.742162 149.468387 
L 379.282269 195.527951 
L 371.822376 72.668387 
L 364.362483 126.561823 
L 356.90259 130.787306 
L 349.442697 156.967667 
L 341.982804 139.715116 
L 334.522911 144.780085 
L 327.063018 107.415919 
L 319.603125 114.997344 
L 312.143232 132.774825 
L 304.683339 60.078092 
L 297.223446 142.609241 
L 289.763553 156.271434 
L 282.30366 91.810284 
L 274.843767 133.301759 
L 266.318175 167.790833 
L 259.923981 155.394882 
L 252.464088 134.297522 
L 245.004195 132.524382 
L 237.544301 148.971507 
L 230.084408 125.175368 
L 222.624515 139.648998 
L 215.164622 186.866613 
L 207.704729 139.532793 
L 200.244836 149.654717 
L 192.784943 147.296541 
L 185.32505 116.333711 
L 177.865157 145.471309 
L 170.405264 152.028921 
L 162.945371 171.337113 
L 155.485478 100.429547 
L 148.025585 163.455155 
L 140.565692 138.525008 
L 133.105799 88.368189 
L 125.645906 87.236184 
L 118.186013 185.844803 
L 110.72612 194.383925 
L 103.266227 118.102844 
L 95.806334 177.109334 
L 88.346441 164.675316 
L 80.886547 85.969942 
L 73.426654 55.249541 
L 65.966761 189.359027 
z
" clip-path="url(#pc783629ca8)" style="fill: #e377c2"/>
   </g>
   <g id="PathCollection_1">
    <defs>
     <path id="md52448af9a" d="M 0 1.414214 
C 0.375054 1.414214 0.734797 1.265203 1 1 
C 1.265203 0.734797 1.414214 0.375054 1.414214 0 
C 1.414214 -0.375054 1.265203 -0.734797 1 -1 
C 0.734797 -1.265203 0.375054 -1.414214 0 -1.414214 
C -0.375054 -1.414214 -0.734797 -1.265203 -1 -1 
C -1.265203 -0.734797 -1.414214 -0.375054 -1.414214 0 
C -1.414214 0.375054 -1.265203 0.734797 -1 1 
C -0.734797 1.265203 -0.375054 1.414214 0 1.414214 
z
" style="stroke: #b0b0b0"/>
    </defs>
    <g clip-path="url(#pc783629ca8)">
     <use xlink:href="#md52448af9a" x="65.966761" y="108.583987" style="fill: #b0b0b0; stroke: #b0b0b0"/>
     <use xlink:href="#md52448af9a" x="73.426654" y="98.566248" style="fill: #b0b0b0; stroke: #b0b0b0"/>
     <use xlink:href="#md52448af9a" x="80.886547" y="88.548508" style="fill: #b0b0b0; stroke: #b0b0b0"/>
     <use xlink:href="#md52448af9a" x="88.346441" y="102.573344" style="fill: #b0b0b0; stroke: #b0b0b0"/>
     <use xlink:href="#md52448af9a" x="95.806334" y="100.569796" style="fill: #b0b0b0; stroke: #b0b0b0"/>
     <use xlink:href="#md52448af9a" x="103.266227" y="130.623015" style="fill: #b0b0b0; stroke: #b0b0b0"/>
     <use xlink:href="#md52448af9a" x="110.72612" y="110.587535" style="fill: #b0b0b0; stroke: #b0b0b0"/>
     <use xlink:href="#md52448af9a" x="118.186013" y="108.583987" style="fill: #b0b0b0; stroke: #b0b0b0"/>
     <use xlink:href="#md52448af9a" x="125.645906" y="92.555604" style="fill: #b0b0b0; stroke: #b0b0b0"/>
     <use xlink:href="#md52448af9a" x="133.105799" y="132.626563" style="fill: #b0b0b0; stroke: #b0b0b0"/>
     <use xlink:href="#md52448af9a" x="140.565692" y="102.573344" style="fill: #b0b0b0; stroke: #b0b0b0"/>
     <use xlink:href="#md52448af9a" x="148.025585" y="108.583987" style="fill: #b0b0b0; stroke: #b0b0b0"/>
     <use xlink:href="#md52448af9a" x="155.485478" y="96.5627" style="fill: #b0b0b0; stroke: #b0b0b0"/>
     <use xlink:href="#md52448af9a" x="162.945371" y="138.637207" style="fill: #b0b0b0; stroke: #b0b0b0"/>
     <use xlink:href="#md52448af9a" x="170.405264" y="98.566248" style="fill: #b0b0b0; stroke: #b0b0b0"/>
     <use xlink:href="#md52448af9a" x="177.865157" y="124.612371" style="fill: #b0b0b0; stroke: #b0b0b0"/>
     <use xlink:href="#md52448af9a" x="185.32505" y="118.601727" style="fill: #b0b0b0; stroke: #b0b0b0"/>
     <use xlink:href="#md52448af9a" x="192.784943" y="130.623015" style="fill: #b0b0b0; stroke: #b0b0b0"/>
     <use xlink:href="#md52448af9a" x="200.244836" y="150.658494" style="fill: #b0b0b0; stroke: #b0b0b0"/>
     <use xlink:href="#md52448af9a" x="207.704729" y="200.747193" style="fill: #b0b0b0; stroke: #b0b0b0"/>
     <use xlink:href="#md52448af9a" x="215.164622" y="184.71881" style="fill: #b0b0b0; stroke: #b0b0b0"/>
     <use xlink:href="#md52448af9a" x="222.624515" y="170.693974" style="fill: #b0b0b0; stroke: #b0b0b0"/>
     <use xlink:href="#md52448af9a" x="230.084408" y="192.733001" style="fill: #b0b0b0; stroke: #b0b0b0"/>
     <use xlink:href="#md52448af9a" x="237.544301" y="204.754289" style="fill: #b0b0b0; stroke: #b0b0b0"/>
     <use xlink:href="#md52448af9a" x="245.004195" y="224.789769" style="fill: #b0b0b0; stroke: #b0b0b0"/>
     <use xlink:href="#md52448af9a" x="252.464088" y="222.786221" style="fill: #b0b0b0; stroke: #b0b0b0"/>
     <use xlink:href="#md52448af9a" x="259.923981" y="252.83944" style="fill: #b0b0b0; stroke: #b0b0b0"/>
     <use xlink:href="#md52448af9a" x="266.318175" y="254.842988" style="fill: #b0b0b0; stroke: #b0b0b0"/>
     <use xlink:href="#md52448af9a" x="274.843767" y="240.818152" style="fill: #b0b0b0; stroke: #b0b0b0"/>
     <use xlink:href="#md52448af9a" x="282.30366" y="250.835892" style="fill: #b0b0b0; stroke: #b0b0b0"/>
     <use xlink:href="#md52448af9a" x="289.763553" y="280.889111" style="fill: #b0b0b0; stroke: #b0b0b0"/>
     <use xlink:href="#md52448af9a" x="297.223446" y="284.896207" style="fill: #b0b0b0; stroke: #b0b0b0"/>
     <use xlink:href="#md52448af9a" x="304.683339" y="278.885563" style="fill: #b0b0b0; stroke: #b0b0b0"/>
     <use xlink:href="#md52448af9a" x="312.143232" y="268.867823" style="fill: #b0b0b0; stroke: #b0b0b0"/>
     <use xlink:href="#md52448af9a" x="319.603125" y="304.931687" style="fill: #b0b0b0; stroke: #b0b0b0"/>
     <use xlink:href="#md52448af9a" x="327.063018" y="306.935234" style="fill: #b0b0b0; stroke: #b0b0b0"/>
     <use xlink:href="#md52448af9a" x="334.522911" y="304.931687" style="fill: #b0b0b0; stroke: #b0b0b0"/>
     <use xlink:href="#md52448af9a" x="341.982804" y="278.885563" style="fill: #b0b0b0; stroke: #b0b0b0"/>
     <use xlink:href="#md52448af9a" x="349.442697" y="240.818152" style="fill: #b0b0b0; stroke: #b0b0b0"/>
     <use xlink:href="#md52448af9a" x="356.90259" y="252.83944" style="fill: #b0b0b0; stroke: #b0b0b0"/>
     <use xlink:href="#md52448af9a" x="364.362483" y="238.814604" style="fill: #b0b0b0; stroke: #b0b0b0"/>
     <use xlink:href="#md52448af9a" x="371.822376" y="226.793316" style="fill: #b0b0b0; stroke: #b0b0b0"/>
     <use xlink:href="#md52448af9a" x="379.282269" y="214.772029" style="fill: #b0b0b0; stroke: #b0b0b0"/>
     <use xlink:href="#md52448af9a" x="386.742162" y="236.811056" style="fill: #b0b0b0; stroke: #b0b0b0"/>
     <use xlink:href="#md52448af9a" x="394.202055" y="226.793316" style="fill: #b0b0b0; stroke: #b0b0b0"/>
     <use xlink:href="#md52448af9a" x="401.661949" y="242.8217" style="fill: #b0b0b0; stroke: #b0b0b0"/>
     <use xlink:href="#md52448af9a" x="409.121842" y="210.764933" style="fill: #b0b0b0; stroke: #b0b0b0"/>
     <use xlink:href="#md52448af9a" x="416.581735" y="178.708166" style="fill: #b0b0b0; stroke: #b0b0b0"/>
     <use xlink:href="#md52448af9a" x="424.041628" y="136.633659" style="fill: #b0b0b0; stroke: #b0b0b0"/>
     <use xlink:href="#md52448af9a" x="431.501521" y="116.598179" style="fill: #b0b0b0; stroke: #b0b0b0"/>
     <use xlink:href="#md52448af9a" x="438.961414" y="112.591083" style="fill: #b0b0b0; stroke: #b0b0b0"/>
     <use xlink:href="#md52448af9a" x="446.421307" y="96.5627" style="fill: #b0b0b0; stroke: #b0b0b0"/>
     <use xlink:href="#md52448af9a" x="453.8812" y="184.71881" style="fill: #b0b0b0; stroke: #b0b0b0"/>
     <use xlink:href="#md52448af9a" x="461.341093" y="146.651399" style="fill: #b0b0b0; stroke: #b0b0b0"/>
     <use xlink:href="#md52448af9a" x="468.800986" y="88.548508" style="fill: #b0b0b0; stroke: #b0b0b0"/>
     <use xlink:href="#md52448af9a" x="476.260879" y="90.552056" style="fill: #b0b0b0; stroke: #b0b0b0"/>
     <use xlink:href="#md52448af9a" x="483.720772" y="100.569796" style="fill: #b0b0b0; stroke: #b0b0b0"/>
     <use xlink:href="#md52448af9a" x="491.180665" y="132.626563" style="fill: #b0b0b0; stroke: #b0b0b0"/>
     <use xlink:href="#md52448af9a" x="498.640558" y="100.569796" style="fill: #b0b0b0; stroke: #b0b0b0"/>
     <use xlink:href="#md52448af9a" x="506.100451" y="84.541412" style="fill: #b0b0b0; stroke: #b0b0b0"/>
     <use xlink:href="#md52448af9a" x="513.560344" y="94.559152" style="fill: #b0b0b0; stroke: #b0b0b0"/>
     <use xlink:href="#md52448af9a" x="519.954538" y="86.54496" style="fill: #b0b0b0; stroke: #b0b0b0"/>
     <use xlink:href="#md52448af9a" x="528.48013" y="86.54496" style="fill: #b0b0b0; stroke: #b0b0b0"/>
     <use xlink:href="#md52448af9a" x="535.940023" y="102.573344" style="fill: #b0b0b0; stroke: #b0b0b0"/>
     <use xlink:href="#md52448af9a" x="543.399916" y="102.573344" style="fill: #b0b0b0; stroke: #b0b0b0"/>
     <use xlink:href="#md52448af9a" x="549.79411" y="104.576892" style="fill: #b0b0b0; stroke: #b0b0b0"/>
     <use xlink:href="#md52448af9a" x="558.319703" y="114.594631" style="fill: #b0b0b0; stroke: #b0b0b0"/>
     <use xlink:href="#md52448af9a" x="565.779596" y="136.633659" style="fill: #b0b0b0; stroke: #b0b0b0"/>
     <use xlink:href="#md52448af9a" x="573.239489" y="158.672686" style="fill: #b0b0b0; stroke: #b0b0b0"/>
    </g>
   </g>
   <g id="PathCollection_2">
    <defs>
     <path id="me787926668" d="M 0 1.414214 
C 0.375054 1.414214 0.734797 1.265203 1 1 
C 1.265203 0.734797 1.414214 0.375054 1.414214 0 
C 1.414214 -0.375054 1.265203 -0.734797 1 -1 
C 0.734797 -1.265203 0.375054 -1.414214 0 -1.414214 
C -0.375054 -1.414214 -0.734797 -1.265203 -1 -1 
C -1.265203 -0.734797 -1.414214 -0.375054 -1.414214 0 
C -1.414214 0.375054 -1.265203 0.734797 -1 1 
C -0.734797 1.265203 -0.375054 1.414214 0 1.414214 
z
" style="stroke: #000000"/>
    </defs>
    <g clip-path="url(#pc783629ca8)">
     <use xlink:href="#me787926668" x="65.966761" y="85.174533" style="stroke: #000000"/>
     <use xlink:href="#me787926668" x="73.426654" y="75.285021" style="stroke: #000000"/>
     <use xlink:href="#me787926668" x="80.886547" y="61.927366" style="stroke: #000000"/>
     <use xlink:href="#me787926668" x="88.346441" y="76.519206" style="stroke: #000000"/>
     <use xlink:href="#me787926668" x="95.806334" y="74.928389" style="stroke: #000000"/>
     <use xlink:href="#me787926668" x="103.266227" y="96.063816" style="stroke: #000000"/>
     <use xlink:href="#me787926668" x="110.72612" y="70.163952" style="stroke: #000000"/>
     <use xlink:href="#me787926668" x="118.186013" y="69.639022" style="stroke: #000000"/>
     <use xlink:href="#me787926668" x="125.645906" y="47.165225" style="stroke: #000000"/>
     <use xlink:href="#me787926668" x="133.105799" y="90.371737" style="stroke: #000000"/>
     <use xlink:href="#me787926668" x="140.565692" y="56.379542" style="stroke: #000000"/>
     <use xlink:href="#me787926668" x="148.025585" y="69.288402" style="stroke: #000000"/>
     <use xlink:href="#me787926668" x="155.485478" y="56.351492" style="stroke: #000000"/>
     <use xlink:href="#me787926668" x="162.945371" y="103.216483" style="stroke: #000000"/>
     <use xlink:href="#me787926668" x="170.405264" y="57.862168" style="stroke: #000000"/>
     <use xlink:href="#me787926668" x="177.865157" y="91.375514" style="stroke: #000000"/>
     <use xlink:href="#me787926668" x="185.32505" y="84.276944" style="stroke: #000000"/>
     <use xlink:href="#me787926668" x="192.784943" y="97.207842" style="stroke: #000000"/>
     <use xlink:href="#me787926668" x="200.244836" y="123.608594" style="stroke: #000000"/>
     <use xlink:href="#me787926668" x="207.704729" y="175.596656" style="stroke: #000000"/>
     <use xlink:href="#me787926668" x="215.164622" y="158.816942" style="stroke: #000000"/>
     <use xlink:href="#me787926668" x="222.624515" y="143.656094" style="stroke: #000000"/>
     <use xlink:href="#me787926668" x="230.084408" y="167.249875" style="stroke: #000000"/>
     <use xlink:href="#me787926668" x="237.544301" y="179.024726" style="stroke: #000000"/>
     <use xlink:href="#me787926668" x="245.004195" y="200.645012" style="stroke: #000000"/>
     <use xlink:href="#me787926668" x="252.464088" y="196.407508" style="stroke: #000000"/>
     <use xlink:href="#me787926668" x="259.923981" y="229.526156" style="stroke: #000000"/>
     <use xlink:href="#me787926668" x="266.318175" y="235.911463" style="stroke: #000000"/>
     <use xlink:href="#me787926668" x="274.843767" y="209.436581" style="stroke: #000000"/>
     <use xlink:href="#me787926668" x="282.30366" y="228.051545" style="stroke: #000000"/>
     <use xlink:href="#me787926668" x="289.763553" y="268.470119" style="stroke: #000000"/>
     <use xlink:href="#me787926668" x="297.223446" y="272.839857" style="stroke: #000000"/>
     <use xlink:href="#me787926668" x="304.683339" y="266.44353" style="stroke: #000000"/>
     <use xlink:href="#me787926668" x="312.143232" y="252.987702" style="stroke: #000000"/>
     <use xlink:href="#me787926668" x="319.603125" y="297.320208" style="stroke: #000000"/>
     <use xlink:href="#me787926668" x="327.063018" y="297.752974" style="stroke: #000000"/>
     <use xlink:href="#me787926668" x="334.522911" y="295.046181" style="stroke: #000000"/>
     <use xlink:href="#me787926668" x="341.982804" y="263.935088" style="stroke: #000000"/>
     <use xlink:href="#me787926668" x="349.442697" y="215.070557" style="stroke: #000000"/>
     <use xlink:href="#me787926668" x="356.90259" y="216.939868" style="stroke: #000000"/>
     <use xlink:href="#me787926668" x="364.362483" y="226.739221" style="stroke: #000000"/>
     <use xlink:href="#me787926668" x="371.822376" y="200.895456" style="stroke: #000000"/>
     <use xlink:href="#me787926668" x="379.282269" y="191.520855" style="stroke: #000000"/>
     <use xlink:href="#me787926668" x="386.742162" y="215.585469" style="stroke: #000000"/>
     <use xlink:href="#me787926668" x="394.202055" y="205.054821" style="stroke: #000000"/>
     <use xlink:href="#me787926668" x="401.661949" y="224.948049" style="stroke: #000000"/>
     <use xlink:href="#me787926668" x="409.121842" y="188.000621" style="stroke: #000000"/>
     <use xlink:href="#me787926668" x="416.581735" y="152.191209" style="stroke: #000000"/>
     <use xlink:href="#me787926668" x="424.041628" y="103.036163" style="stroke: #000000"/>
     <use xlink:href="#me787926668" x="431.501521" y="82.030966" style="stroke: #000000"/>
     <use xlink:href="#me787926668" x="438.961414" y="75.236935" style="stroke: #000000"/>
     <use xlink:href="#me787926668" x="446.421307" y="58.509314" style="stroke: #000000"/>
     <use xlink:href="#me787926668" x="453.8812" y="155.72146" style="stroke: #000000"/>
     <use xlink:href="#me787926668" x="461.341093" y="112.404753" style="stroke: #000000"/>
     <use xlink:href="#me787926668" x="468.800986" y="44.728911" style="stroke: #000000"/>
     <use xlink:href="#me787926668" x="476.260879" y="46.031217" style="stroke: #000000"/>
     <use xlink:href="#me787926668" x="483.720772" y="56.405588" style="stroke: #000000"/>
     <use xlink:href="#me787926668" x="491.180665" y="93.469222" style="stroke: #000000"/>
     <use xlink:href="#me787926668" x="498.640558" y="61.676923" style="stroke: #000000"/>
     <use xlink:href="#me787926668" x="506.100451" y="38.638125" style="stroke: #000000"/>
     <use xlink:href="#me787926668" x="513.560344" y="49.174784" style="stroke: #000000"/>
     <use xlink:href="#me787926668" x="519.954538" y="43.452651" style="stroke: #000000"/>
     <use xlink:href="#me787926668" x="528.48013" y="42.903679" style="stroke: #000000"/>
     <use xlink:href="#me787926668" x="535.940023" y="63.506162" style="stroke: #000000"/>
     <use xlink:href="#me787926668" x="543.399916" y="64.197386" style="stroke: #000000"/>
     <use xlink:href="#me787926668" x="549.79411" y="66.082725" style="stroke: #000000"/>
     <use xlink:href="#me787926668" x="558.319703" y="80.16366" style="stroke: #000000"/>
     <use xlink:href="#me787926668" x="565.779596" y="104.598931" style="stroke: #000000"/>
     <use xlink:href="#me787926668" x="573.239489" y="129.841631" style="stroke: #000000"/>
    </g>
   </g>
   <g id="line2d_23">
    <path d="M 65.966761 108.583987 
L 73.426654 98.566248 
L 80.886547 88.548508 
L 88.346441 102.573344 
L 95.806334 100.569796 
L 103.266227 130.623015 
L 110.72612 110.587535 
L 118.186013 108.583987 
L 125.645906 92.555604 
L 133.105799 132.626563 
L 140.565692 102.573344 
L 148.025585 108.583987 
L 155.485478 96.5627 
L 162.945371 138.637207 
L 170.405264 98.566248 
L 177.865157 124.612371 
L 185.32505 118.601727 
L 192.784943 130.623015 
L 200.244836 150.658494 
L 207.704729 200.747193 
L 215.164622 184.71881 
L 222.624515 170.693974 
L 230.084408 192.733001 
L 237.544301 204.754289 
L 245.004195 224.789769 
L 252.464088 222.786221 
L 259.923981 252.83944 
L 266.318175 254.842988 
L 274.843767 240.818152 
L 282.30366 250.835892 
L 289.763553 280.889111 
L 297.223446 284.896207 
L 304.683339 278.885563 
L 312.143232 268.867823 
L 319.603125 304.931687 
L 327.063018 306.935234 
L 334.522911 304.931687 
L 341.982804 278.885563 
L 349.442697 240.818152 
L 356.90259 252.83944 
L 364.362483 238.814604 
L 371.822376 226.793316 
L 379.282269 214.772029 
L 386.742162 236.811056 
L 394.202055 226.793316 
L 401.661949 242.8217 
L 409.121842 210.764933 
L 416.581735 178.708166 
L 424.041628 136.633659 
L 431.501521 116.598179 
L 438.961414 112.591083 
L 446.421307 96.5627 
L 453.8812 184.71881 
L 461.341093 146.651399 
L 468.800986 88.548508 
L 476.260879 90.552056 
L 483.720772 100.569796 
L 491.180665 132.626563 
L 498.640558 100.569796 
L 506.100451 84.541412 
L 513.560344 94.559152 
L 519.954538 86.54496 
L 528.48013 86.54496 
L 535.940023 102.573344 
L 543.399916 102.573344 
L 549.79411 104.576892 
L 558.319703 114.594631 
L 565.779596 136.633659 
L 573.239489 158.672686 
" clip-path="url(#pc783629ca8)" style="fill: none; stroke: #b0b0b0; stroke-width: 1.5; stroke-linecap: square"/>
   </g>
   <g id="line2d_24">
    <path d="M 65.966761 85.174533 
L 73.426654 75.285021 
L 80.886547 61.927366 
L 88.346441 76.519206 
L 95.806334 74.928389 
L 103.266227 96.063816 
L 110.72612 70.163952 
L 118.186013 69.639022 
L 125.645906 47.165225 
L 133.105799 90.371737 
L 140.565692 56.379542 
L 148.025585 69.288402 
L 155.485478 56.351492 
L 162.945371 103.216483 
L 170.405264 57.862168 
L 177.865157 91.375514 
L 185.32505 84.276944 
L 192.784943 97.207842 
L 200.244836 123.608594 
L 207.704729 175.596656 
L 215.164622 158.816942 
L 222.624515 143.656094 
L 230.084408 167.249875 
L 237.544301 179.024726 
L 245.004195 200.645012 
L 252.464088 196.407508 
L 259.923981 229.526156 
L 266.318175 235.911463 
L 274.843767 209.436581 
L 282.30366 228.051545 
L 289.763553 268.470119 
L 297.223446 272.839857 
L 304.683339 266.44353 
L 312.143232 252.987702 
L 319.603125 297.320208 
L 327.063018 297.752974 
L 334.522911 295.046181 
L 341.982804 263.935088 
L 349.442697 215.070557 
L 356.90259 216.939868 
L 364.362483 226.739221 
L 371.822376 200.895456 
L 379.282269 191.520855 
L 386.742162 215.585469 
L 394.202055 205.054821 
L 401.661949 224.948049 
L 409.121842 188.000621 
L 416.581735 152.191209 
L 424.041628 103.036163 
L 431.501521 82.030966 
L 438.961414 75.236935 
L 446.421307 58.509314 
L 453.8812 155.72146 
L 461.341093 112.404753 
L 468.800986 44.728911 
L 476.260879 46.031217 
L 483.720772 56.405588 
L 491.180665 93.469222 
L 498.640558 61.676923 
L 506.100451 38.638125 
L 513.560344 49.174784 
L 519.954538 43.452651 
L 528.48013 42.903679 
L 535.940023 63.506162 
L 543.399916 64.197386 
L 549.79411 66.082725 
L 558.319703 80.16366 
L 565.779596 104.598931 
L 573.239489 129.841631 
" clip-path="url(#pc783629ca8)" style="fill: none; stroke: #000000; stroke-width: 1.5; stroke-linecap: square"/>
   </g>
   <g id="patch_3">
    <path d="M 40.603125 365.038125 
L 40.603125 22.318125 
" style="fill: none; stroke: #000000; stroke-width: 0.8; stroke-linejoin: miter; stroke-linecap: square"/>
   </g>
   <g id="patch_4">
    <path d="M 598.603125 365.038125 
L 598.603125 22.318125 
" style="fill: none; stroke: #000000; stroke-width: 0.8; stroke-linejoin: miter; stroke-linecap: square"/>
   </g>
   <g id="patch_5">
    <path d="M 40.603125 365.038125 
L 598.603125 365.038125 
" style="fill: none; stroke: #000000; stroke-width: 0.8; stroke-linejoin: miter; stroke-linecap: square"/>
   </g>
   <g id="patch_6">
    <path d="M 40.603125 22.318125 
L 598.603125 22.318125 
" style="fill: none; stroke: #000000; stroke-width: 0.8; stroke-linejoin: miter; stroke-linecap: square"/>
   </g>
   <g id="text_16">
    <!-- Solar Generation and Use - 3.24+.6 kW System -->
    <g transform="translate(176.938125 16.318125) scale(0.12 -0.12)">
     <defs>
      <path id="DejaVuSans-2e" d="M 684 794 
L 1344 794 
L 1344 0 
L 684 0 
L 684 794 
z
" transform="scale(0.015625)"/>
      <path id="DejaVuSans-34" d="M 2419 4116 
L 825 1625 
L 2419 1625 
L 2419 4116 
z
M 2253 4666 
L 3047 4666 
L 3047 1625 
L 3713 1625 
L 3713 1100 
L 3047 1100 
L 3047 0 
L 2419 0 
L 2419 1100 
L 313 1100 
L 313 1709 
L 2253 4666 
z
" transform="scale(0.015625)"/>
      <path id="DejaVuSans-2b" d="M 2944 4013 
L 2944 2272 
L 4684 2272 
L 4684 1741 
L 2944 1741 
L 2944 0 
L 2419 0 
L 2419 1741 
L 678 1741 
L 678 2272 
L 2419 2272 
L 2419 4013 
L 2944 4013 
z
" transform="scale(0.015625)"/>
      <path id="DejaVuSans-36" d="M 2113 2584 
Q 1688 2584 1439 2293 
Q 1191 2003 1191 1497 
Q 1191 994 1439 701 
Q 1688 409 2113 409 
Q 2538 409 2786 701 
Q 3034 994 3034 1497 
Q 3034 2003 2786 2293 
Q 2538 2584 2113 2584 
z
M 3366 4563 
L 3366 3988 
Q 3128 4100 2886 4159 
Q 2644 4219 2406 4219 
Q 1781 4219 1451 3797 
Q 1122 3375 1075 2522 
Q 1259 2794 1537 2939 
Q 1816 3084 2150 3084 
Q 2853 3084 3261 2657 
Q 3669 2231 3669 1497 
Q 3669 778 3244 343 
Q 2819 -91 2113 -91 
Q 1303 -91 875 529 
Q 447 1150 447 2328 
Q 447 3434 972 4092 
Q 1497 4750 2381 4750 
Q 2619 4750 2861 4703 
Q 3103 4656 3366 4563 
z
" transform="scale(0.015625)"/>
      <path id="DejaVuSans-6d" d="M 3328 2828 
Q 3544 3216 3844 3400 
Q 4144 3584 4550 3584 
Q 5097 3584 5394 3201 
Q 5691 2819 5691 2113 
L 5691 0 
L 5113 0 
L 5113 2094 
Q 5113 2597 4934 2840 
Q 4756 3084 4391 3084 
Q 3944 3084 3684 2787 
Q 3425 2491 3425 1978 
L 3425 0 
L 2847 0 
L 2847 2094 
Q 2847 2600 2669 2842 
Q 2491 3084 2119 3084 
Q 1678 3084 1418 2786 
Q 1159 2488 1159 1978 
L 1159 0 
L 581 0 
L 581 3500 
L 1159 3500 
L 1159 2956 
Q 1356 3278 1631 3431 
Q 1906 3584 2284 3584 
Q 2666 3584 2933 3390 
Q 3200 3197 3328 2828 
z
" transform="scale(0.015625)"/>
     </defs>
     <use xlink:href="#DejaVuSans-53"/>
     <use xlink:href="#DejaVuSans-6f" x="63.476562"/>
     <use xlink:href="#DejaVuSans-6c" x="124.658203"/>
     <use xlink:href="#DejaVuSans-61" x="152.441406"/>
     <use xlink:href="#DejaVuSans-72" x="213.720703"/>
     <use xlink:href="#DejaVuSans-20" x="254.833984"/>
     <use xlink:href="#DejaVuSans-47" x="286.621094"/>
     <use xlink:href="#DejaVuSans-65" x="364.111328"/>
     <use xlink:href="#DejaVuSans-6e" x="425.634766"/>
     <use xlink:href="#DejaVuSans-65" x="489.013672"/>
     <use xlink:href="#DejaVuSans-72" x="550.537109"/>
     <use xlink:href="#DejaVuSans-61" x="591.650391"/>
     <use xlink:href="#DejaVuSans-74" x="652.929688"/>
     <use xlink:href="#DejaVuSans-69" x="692.138672"/>
     <use xlink:href="#DejaVuSans-6f" x="719.921875"/>
     <use xlink:href="#DejaVuSans-6e" x="781.103516"/>
     <use xlink:href="#DejaVuSans-20" x="844.482422"/>
     <use xlink:href="#DejaVuSans-61" x="876.269531"/>
     <use xlink:href="#DejaVuSans-6e" x="937.548828"/>
     <use xlink:href="#DejaVuSans-64" x="1000.927734"/>
     <use xlink:href="#DejaVuSans-20" x="1064.404297"/>
     <use xlink:href="#DejaVuSans-55" x="1096.191406"/>
     <use xlink:href="#DejaVuSans-73" x="1169.384766"/>
     <use xlink:href="#DejaVuSans-65" x="1221.484375"/>
     <use xlink:href="#DejaVuSans-20" x="1283.007812"/>
     <use xlink:href="#DejaVuSans-2d" x="1314.794922"/>
     <use xlink:href="#DejaVuSans-20" x="1350.878906"/>
     <use xlink:href="#DejaVuSans-33" x="1382.666016"/>
     <use xlink:href="#DejaVuSans-2e" x="1446.289062"/>
     <use xlink:href="#DejaVuSans-32" x="1478.076172"/>
     <use xlink:href="#DejaVuSans-34" x="1541.699219"/>
     <use xlink:href="#DejaVuSans-2b" x="1605.322266"/>
     <use xlink:href="#DejaVuSans-2e" x="1689.111328"/>
     <use xlink:href="#DejaVuSans-36" x="1720.898438"/>
     <use xlink:href="#DejaVuSans-20" x="1784.521484"/>
     <use xlink:href="#DejaVuSans-6b" x="1816.308594"/>
     <use xlink:href="#DejaVuSans-57" x="1874.21875"/>
     <use xlink:href="#DejaVuSans-20" x="1973.095703"/>
     <use xlink:href="#DejaVuSans-53" x="2004.882812"/>
     <use xlink:href="#DejaVuSans-79" x="2068.359375"/>
     <use xlink:href="#DejaVuSans-73" x="2127.539062"/>
     <use xlink:href="#DejaVuSans-74" x="2179.638672"/>
     <use xlink:href="#DejaVuSans-65" x="2218.847656"/>
     <use xlink:href="#DejaVuSans-6d" x="2280.371094"/>
    </g>
   </g>
   <g id="legend_1">
    <g id="patch_7">
     <path d="M 47.603125 360.038125 
L 136.235938 360.038125 
Q 138.235938 360.038125 138.235938 358.038125 
L 138.235938 226.935 
Q 138.235938 224.935 136.235938 224.935 
L 47.603125 224.935 
Q 45.603125 224.935 45.603125 226.935 
L 45.603125 358.038125 
Q 45.603125 360.038125 47.603125 360.038125 
z
" style="fill: #ffffff; opacity: 0.8; stroke: #cccccc; stroke-linejoin: miter"/>
    </g>
    <g id="patch_8">
     <path d="M 49.603125 236.533437 
L 69.603125 236.533437 
L 69.603125 229.533437 
L 49.603125 229.533437 
z
" style="fill: #1f77b4"/>
    </g>
    <g id="text_17">
     <!-- Other -->
     <g transform="translate(77.603125 236.533437) scale(0.1 -0.1)">
      <defs>
       <path id="DejaVuSans-4f" d="M 2522 4238 
Q 1834 4238 1429 3725 
Q 1025 3213 1025 2328 
Q 1025 1447 1429 934 
Q 1834 422 2522 422 
Q 3209 422 3611 934 
Q 4013 1447 4013 2328 
Q 4013 3213 3611 3725 
Q 3209 4238 2522 4238 
z
M 2522 4750 
Q 3503 4750 4090 4092 
Q 4678 3434 4678 2328 
Q 4678 1225 4090 567 
Q 3503 -91 2522 -91 
Q 1538 -91 948 565 
Q 359 1222 359 2328 
Q 359 3434 948 4092 
Q 1538 4750 2522 4750 
z
" transform="scale(0.015625)"/>
      </defs>
      <use xlink:href="#DejaVuSans-4f"/>
      <use xlink:href="#DejaVuSans-74" x="78.710938"/>
      <use xlink:href="#DejaVuSans-68" x="117.919922"/>
      <use xlink:href="#DejaVuSans-65" x="181.298828"/>
      <use xlink:href="#DejaVuSans-72" x="242.822266"/>
     </g>
    </g>
    <g id="patch_9">
     <path d="M 49.603125 251.211562 
L 69.603125 251.211562 
L 69.603125 244.211562 
L 49.603125 244.211562 
z
" style="fill: #ff7f0e"/>
    </g>
    <g id="text_18">
     <!-- Fridge -->
     <g transform="translate(77.603125 251.211562) scale(0.1 -0.1)">
      <defs>
       <path id="DejaVuSans-46" d="M 628 4666 
L 3309 4666 
L 3309 4134 
L 1259 4134 
L 1259 2759 
L 3109 2759 
L 3109 2228 
L 1259 2228 
L 1259 0 
L 628 0 
L 628 4666 
z
" transform="scale(0.015625)"/>
      </defs>
      <use xlink:href="#DejaVuSans-46"/>
      <use xlink:href="#DejaVuSans-72" x="50.269531"/>
      <use xlink:href="#DejaVuSans-69" x="91.382812"/>
      <use xlink:href="#DejaVuSans-64" x="119.166016"/>
      <use xlink:href="#DejaVuSans-67" x="182.642578"/>
      <use xlink:href="#DejaVuSans-65" x="246.119141"/>
     </g>
    </g>
    <g id="patch_10">
     <path d="M 49.603125 265.889687 
L 69.603125 265.889687 
L 69.603125 258.889687 
L 49.603125 258.889687 
z
" style="fill: #2ca02c"/>
    </g>
    <g id="text_19">
     <!-- TV / Cable -->
     <g transform="translate(77.603125 265.889687) scale(0.1 -0.1)">
      <defs>
       <path id="DejaVuSans-54" d="M -19 4666 
L 3928 4666 
L 3928 4134 
L 2272 4134 
L 2272 0 
L 1638 0 
L 1638 4134 
L -19 4134 
L -19 4666 
z
" transform="scale(0.015625)"/>
       <path id="DejaVuSans-56" d="M 1831 0 
L 50 4666 
L 709 4666 
L 2188 738 
L 3669 4666 
L 4325 4666 
L 2547 0 
L 1831 0 
z
" transform="scale(0.015625)"/>
       <path id="DejaVuSans-2f" d="M 1625 4666 
L 2156 4666 
L 531 -594 
L 0 -594 
L 1625 4666 
z
" transform="scale(0.015625)"/>
       <path id="DejaVuSans-43" d="M 4122 4306 
L 4122 3641 
Q 3803 3938 3442 4084 
Q 3081 4231 2675 4231 
Q 1875 4231 1450 3742 
Q 1025 3253 1025 2328 
Q 1025 1406 1450 917 
Q 1875 428 2675 428 
Q 3081 428 3442 575 
Q 3803 722 4122 1019 
L 4122 359 
Q 3791 134 3420 21 
Q 3050 -91 2638 -91 
Q 1578 -91 968 557 
Q 359 1206 359 2328 
Q 359 3453 968 4101 
Q 1578 4750 2638 4750 
Q 3056 4750 3426 4639 
Q 3797 4528 4122 4306 
z
" transform="scale(0.015625)"/>
       <path id="DejaVuSans-62" d="M 3116 1747 
Q 3116 2381 2855 2742 
Q 2594 3103 2138 3103 
Q 1681 3103 1420 2742 
Q 1159 2381 1159 1747 
Q 1159 1113 1420 752 
Q 1681 391 2138 391 
Q 2594 391 2855 752 
Q 3116 1113 3116 1747 
z
M 1159 2969 
Q 1341 3281 1617 3432 
Q 1894 3584 2278 3584 
Q 2916 3584 3314 3078 
Q 3713 2572 3713 1747 
Q 3713 922 3314 415 
Q 2916 -91 2278 -91 
Q 1894 -91 1617 61 
Q 1341 213 1159 525 
L 1159 0 
L 581 0 
L 581 4863 
L 1159 4863 
L 1159 2969 
z
" transform="scale(0.015625)"/>
      </defs>
      <use xlink:href="#DejaVuSans-54"/>
      <use xlink:href="#DejaVuSans-56" x="61.083984"/>
      <use xlink:href="#DejaVuSans-20" x="129.492188"/>
      <use xlink:href="#DejaVuSans-2f" x="161.279297"/>
      <use xlink:href="#DejaVuSans-20" x="194.970703"/>
      <use xlink:href="#DejaVuSans-43" x="226.757812"/>
      <use xlink:href="#DejaVuSans-61" x="296.582031"/>
      <use xlink:href="#DejaVuSans-62" x="357.861328"/>
      <use xlink:href="#DejaVuSans-6c" x="421.337891"/>
      <use xlink:href="#DejaVuSans-65" x="449.121094"/>
     </g>
    </g>
    <g id="patch_11">
     <path d="M 49.603125 280.567812 
L 69.603125 280.567812 
L 69.603125 273.567812 
L 49.603125 273.567812 
z
" style="fill: #d62728"/>
    </g>
    <g id="text_20">
     <!-- Computers -->
     <g transform="translate(77.603125 280.567812) scale(0.1 -0.1)">
      <defs>
       <path id="DejaVuSans-70" d="M 1159 525 
L 1159 -1331 
L 581 -1331 
L 581 3500 
L 1159 3500 
L 1159 2969 
Q 1341 3281 1617 3432 
Q 1894 3584 2278 3584 
Q 2916 3584 3314 3078 
Q 3713 2572 3713 1747 
Q 3713 922 3314 415 
Q 2916 -91 2278 -91 
Q 1894 -91 1617 61 
Q 1341 213 1159 525 
z
M 3116 1747 
Q 3116 2381 2855 2742 
Q 2594 3103 2138 3103 
Q 1681 3103 1420 2742 
Q 1159 2381 1159 1747 
Q 1159 1113 1420 752 
Q 1681 391 2138 391 
Q 2594 391 2855 752 
Q 3116 1113 3116 1747 
z
" transform="scale(0.015625)"/>
       <path id="DejaVuSans-75" d="M 544 1381 
L 544 3500 
L 1119 3500 
L 1119 1403 
Q 1119 906 1312 657 
Q 1506 409 1894 409 
Q 2359 409 2629 706 
Q 2900 1003 2900 1516 
L 2900 3500 
L 3475 3500 
L 3475 0 
L 2900 0 
L 2900 538 
Q 2691 219 2414 64 
Q 2138 -91 1772 -91 
Q 1169 -91 856 284 
Q 544 659 544 1381 
z
M 1991 3584 
L 1991 3584 
z
" transform="scale(0.015625)"/>
      </defs>
      <use xlink:href="#DejaVuSans-43"/>
      <use xlink:href="#DejaVuSans-6f" x="69.824219"/>
      <use xlink:href="#DejaVuSans-6d" x="131.005859"/>
      <use xlink:href="#DejaVuSans-70" x="228.417969"/>
      <use xlink:href="#DejaVuSans-75" x="291.894531"/>
      <use xlink:href="#DejaVuSans-74" x="355.273438"/>
      <use xlink:href="#DejaVuSans-65" x="394.482422"/>
      <use xlink:href="#DejaVuSans-72" x="456.005859"/>
      <use xlink:href="#DejaVuSans-73" x="497.119141"/>
     </g>
    </g>
    <g id="patch_12">
     <path d="M 49.603125 295.245937 
L 69.603125 295.245937 
L 69.603125 288.245937 
L 49.603125 288.245937 
z
" style="fill: #9467bd"/>
    </g>
    <g id="text_21">
     <!-- Bath Heat -->
     <g transform="translate(77.603125 295.245937) scale(0.1 -0.1)">
      <defs>
       <path id="DejaVuSans-42" d="M 1259 2228 
L 1259 519 
L 2272 519 
Q 2781 519 3026 730 
Q 3272 941 3272 1375 
Q 3272 1813 3026 2020 
Q 2781 2228 2272 2228 
L 1259 2228 
z
M 1259 4147 
L 1259 2741 
L 2194 2741 
Q 2656 2741 2882 2914 
Q 3109 3088 3109 3444 
Q 3109 3797 2882 3972 
Q 2656 4147 2194 4147 
L 1259 4147 
z
M 628 4666 
L 2241 4666 
Q 2963 4666 3353 4366 
Q 3744 4066 3744 3513 
Q 3744 3084 3544 2831 
Q 3344 2578 2956 2516 
Q 3422 2416 3680 2098 
Q 3938 1781 3938 1306 
Q 3938 681 3513 340 
Q 3088 0 2303 0 
L 628 0 
L 628 4666 
z
" transform="scale(0.015625)"/>
       <path id="DejaVuSans-48" d="M 628 4666 
L 1259 4666 
L 1259 2753 
L 3553 2753 
L 3553 4666 
L 4184 4666 
L 4184 0 
L 3553 0 
L 3553 2222 
L 1259 2222 
L 1259 0 
L 628 0 
L 628 4666 
z
" transform="scale(0.015625)"/>
      </defs>
      <use xlink:href="#DejaVuSans-42"/>
      <use xlink:href="#DejaVuSans-61" x="68.603516"/>
      <use xlink:href="#DejaVuSans-74" x="129.882812"/>
      <use xlink:href="#DejaVuSans-68" x="169.091797"/>
      <use xlink:href="#DejaVuSans-20" x="232.470703"/>
      <use xlink:href="#DejaVuSans-48" x="264.257812"/>
      <use xlink:href="#DejaVuSans-65" x="339.453125"/>
      <use xlink:href="#DejaVuSans-61" x="400.976562"/>
      <use xlink:href="#DejaVuSans-74" x="462.255859"/>
     </g>
    </g>
    <g id="patch_13">
     <path d="M 49.603125 309.924062 
L 69.603125 309.924062 
L 69.603125 302.924062 
L 49.603125 302.924062 
z
" style="fill: #8c564b"/>
    </g>
    <g id="text_22">
     <!-- Living Heat -->
     <g transform="translate(77.603125 309.924062) scale(0.1 -0.1)">
      <defs>
       <path id="DejaVuSans-4c" d="M 628 4666 
L 1259 4666 
L 1259 531 
L 3531 531 
L 3531 0 
L 628 0 
L 628 4666 
z
" transform="scale(0.015625)"/>
       <path id="DejaVuSans-76" d="M 191 3500 
L 800 3500 
L 1894 563 
L 2988 3500 
L 3597 3500 
L 2284 0 
L 1503 0 
L 191 3500 
z
" transform="scale(0.015625)"/>
      </defs>
      <use xlink:href="#DejaVuSans-4c"/>
      <use xlink:href="#DejaVuSans-69" x="55.712891"/>
      <use xlink:href="#DejaVuSans-76" x="83.496094"/>
      <use xlink:href="#DejaVuSans-69" x="142.675781"/>
      <use xlink:href="#DejaVuSans-6e" x="170.458984"/>
      <use xlink:href="#DejaVuSans-67" x="233.837891"/>
      <use xlink:href="#DejaVuSans-20" x="297.314453"/>
      <use xlink:href="#DejaVuSans-48" x="329.101562"/>
      <use xlink:href="#DejaVuSans-65" x="404.296875"/>
      <use xlink:href="#DejaVuSans-61" x="465.820312"/>
      <use xlink:href="#DejaVuSans-74" x="527.099609"/>
     </g>
    </g>
    <g id="patch_14">
     <path d="M 49.603125 324.602187 
L 69.603125 324.602187 
L 69.603125 317.602187 
L 49.603125 317.602187 
z
" style="fill: #e377c2"/>
    </g>
    <g id="text_23">
     <!-- Car -->
     <g transform="translate(77.603125 324.602187) scale(0.1 -0.1)">
      <use xlink:href="#DejaVuSans-43"/>
      <use xlink:href="#DejaVuSans-61" x="69.824219"/>
      <use xlink:href="#DejaVuSans-72" x="131.103516"/>
     </g>
    </g>
    <g id="PathCollection_3">
     <g>
      <use xlink:href="#md52448af9a" x="59.603125" y="336.655312" style="fill: #b0b0b0; stroke: #b0b0b0"/>
     </g>
    </g>
    <g id="text_24">
     <!-- Roof Solar -->
     <g transform="translate(77.603125 339.280312) scale(0.1 -0.1)">
      <defs>
       <path id="DejaVuSans-52" d="M 2841 2188 
Q 3044 2119 3236 1894 
Q 3428 1669 3622 1275 
L 4263 0 
L 3584 0 
L 2988 1197 
Q 2756 1666 2539 1819 
Q 2322 1972 1947 1972 
L 1259 1972 
L 1259 0 
L 628 0 
L 628 4666 
L 2053 4666 
Q 2853 4666 3247 4331 
Q 3641 3997 3641 3322 
Q 3641 2881 3436 2590 
Q 3231 2300 2841 2188 
z
M 1259 4147 
L 1259 2491 
L 2053 2491 
Q 2509 2491 2742 2702 
Q 2975 2913 2975 3322 
Q 2975 3731 2742 3939 
Q 2509 4147 2053 4147 
L 1259 4147 
z
" transform="scale(0.015625)"/>
       <path id="DejaVuSans-66" d="M 2375 4863 
L 2375 4384 
L 1825 4384 
Q 1516 4384 1395 4259 
Q 1275 4134 1275 3809 
L 1275 3500 
L 2222 3500 
L 2222 3053 
L 1275 3053 
L 1275 0 
L 697 0 
L 697 3053 
L 147 3053 
L 147 3500 
L 697 3500 
L 697 3744 
Q 697 4328 969 4595 
Q 1241 4863 1831 4863 
L 2375 4863 
z
" transform="scale(0.015625)"/>
      </defs>
      <use xlink:href="#DejaVuSans-52"/>
      <use xlink:href="#DejaVuSans-6f" x="64.982422"/>
      <use xlink:href="#DejaVuSans-6f" x="126.164062"/>
      <use xlink:href="#DejaVuSans-66" x="187.345703"/>
      <use xlink:href="#DejaVuSans-20" x="222.550781"/>
      <use xlink:href="#DejaVuSans-53" x="254.337891"/>
      <use xlink:href="#DejaVuSans-6f" x="317.814453"/>
      <use xlink:href="#DejaVuSans-6c" x="378.996094"/>
      <use xlink:href="#DejaVuSans-61" x="406.779297"/>
      <use xlink:href="#DejaVuSans-72" x="468.058594"/>
     </g>
    </g>
    <g id="PathCollection_4">
     <g>
      <use xlink:href="#me787926668" x="59.603125" y="351.333437" style="stroke: #000000"/>
     </g>
    </g>
    <g id="text_25">
     <!-- Total Solar -->
     <g transform="translate(77.603125 353.958437) scale(0.1 -0.1)">
      <use xlink:href="#DejaVuSans-54"/>
      <use xlink:href="#DejaVuSans-6f" x="44.083984"/>
      <use xlink:href="#DejaVuSans-74" x="105.265625"/>
      <use xlink:href="#DejaVuSans-61" x="144.474609"/>
      <use xlink:href="#DejaVuSans-6c" x="205.753906"/>
      <use xlink:href="#DejaVuSans-20" x="233.537109"/>
      <use xlink:href="#DejaVuSans-53" x="265.324219"/>
      <use xlink:href="#DejaVuSans-6f" x="328.800781"/>
      <use xlink:href="#DejaVuSans-6c" x="389.982422"/>
      <use xlink:href="#DejaVuSans-61" x="417.765625"/>
      <use xlink:href="#DejaVuSans-72" x="479.044922"/>
     </g>
    </g>
   </g>
  </g>
 </g>
 <defs>
  <clipPath id="pc783629ca8">
   <rect x="40.603125" y="22.318125" width="558" height="342.72"/>
  </clipPath>
 </defs>
</svg>
